<svg width="190" height="64" fill="none" xmlns="http://www.w3.org/2000/svg"><path fill-rule="evenodd" clip-rule="evenodd" d="M55.187 58.483l-.263-.277a7.447 7.447 0 01-1.279 1.024c-.218.131-.38.2-.494.2-.118 0-.177-.082-.177-.245 0-.073.19-.915.571-2.532l.767-3.226c.267-1.16.462-1.934.585-2.328.122-.394.254-.652.403-.775.11-.086.268-.131.476-.131.213 0 .44.023.685.063.281.05.499.077.653.077.231 0 .413-.054.535-.158a.518.518 0 00.186-.408c0-.15-.063-.28-.19-.385-.123-.104-.295-.158-.517-.158a3.53 3.53 0 00-1.841.52 3.488 3.488 0 00-1.352 1.464c-.204.416-.458 1.236-.762 2.455l-.83 3.38c-.317 1.29-.476 2.142-.476 2.554 0 .213.05.376.155.498a.494.494 0 00.394.181c.354 0 .803-.185 1.352-.557a7.562 7.562 0 001.419-1.236zm-22.198 1.58l.11-.439a4.832 4.832 0 01-1.076.131c-.226 0-.512-.022-.857-.063l.427-1.853.408-1.621.67-2.664c.273-1.064.436-1.69.486-1.875.395.032.767.045 1.116.045.975 0 1.668-.14 2.086-.421.412-.281.62-.616.62-1.006 0-.19-.049-.34-.149-.453a.484.484 0 00-.38-.167.46.46 0 00-.332.14.45.45 0 00-.14.344c0 .025.007.08.019.163l.003.028c.014.108.023.18.023.217a.529.529 0 01-.2.43c-.131.109-.362.163-.684.163-.327 0-.844-.05-1.565-.14-1.01-.131-1.746-.2-2.208-.2-.97 0-1.796.164-2.471.485a3.845 3.845 0 00-1.597 1.368c-.385.594-.58 1.2-.58 1.826 0 .466.1.852.294 1.155.132.204.304.308.522.308a.513.513 0 00.372-.145.457.457 0 00.154-.353c0-.159-.09-.336-.263-.526-.186-.208-.3-.358-.34-.448a1.071 1.071 0 01-.086-.44c0-.453.14-.874.422-1.263.28-.39.698-.689 1.256-.893.553-.204 1.31-.308 2.258-.308.154 0 .38.01.685.023l-.055.19-.984 4.077c-.426 1.703-.698 2.695-.82 2.98-.123.286-.268.485-.436.603-.236.163-.617.272-1.134.322l-.108.42a9.209 9.209 0 011.587-.14c.294 0 .63.014 1.006.046.5.045.853.068 1.07.068.227 0 .518-.037.871-.114zm6.857-5.875c-.336-.398-.753-.598-1.256-.598-1.152 0-2.118.571-2.893 1.704a5.227 5.227 0 00-.925 2.985c0 .62.167 1.11.503 1.467.335.358.78.54 1.328.54.894 0 1.737-.454 2.54-1.36.803-.906 1.202-1.93 1.202-3.066 0-.716-.164-1.273-.5-1.672zm-3.174.915c.408-.62.83-.933 1.265-.933.313 0 .576.163.78.49.208.326.313.874.313 1.644 0 1.028-.223 1.884-.676 2.577-.354.535-.748.802-1.18.802-.307 0-.552-.14-.738-.421-.25-.385-.377-.91-.377-1.577 0-1.096.204-1.957.613-2.582zm4.602.399l-.299-.308c.467-.557.934-.974 1.392-1.237.463-.267.862-.398 1.202-.398a.45.45 0 01.304.095.357.357 0 01.113.28c0 .15-.018.304-.05.458-.032.159-.136.526-.313 1.11.785-.784 1.324-1.268 1.61-1.454.48-.313.925-.471 1.324-.471.263 0 .48.122.662.371.182.245.268.616.268 1.114 0 1.242-.386 2.42-1.161 3.538-.776 1.12-1.633 1.676-2.571 1.676-.367 0-.74-.1-1.107-.299l-.657 2.537c-.041.154-.064.28-.064.376 0 .19.073.326.218.408.222.127.685.23 1.392.317l-.1.385c-.825-.068-1.478-.1-1.95-.1-.49 0-1.12.032-1.895.1l.1-.385c.39-.041.675-.15.852-.322.177-.176.318-.484.427-.933l1.392-5.839c.263-1.087.394-1.694.394-1.816 0-.132-.063-.2-.19-.2-.227.005-.658.336-1.293.997zm1.56 3.628c.404.403.821.607 1.247.607.617 0 1.157-.48 1.62-1.44.462-.96.697-1.894.697-2.809 0-.294-.063-.516-.195-.666a.67.67 0 00-.526-.226c-.244 0-.521.122-.83.362-.476.376-.838.748-1.092 1.115-.182.267-.35.729-.508 1.386l-.413 1.671zm16.783-.996l.254.34c-1.256 1.195-2.335 1.793-3.233 1.793-.363 0-.644-.122-.834-.371-.19-.25-.29-.643-.29-1.187 0-1.096.335-2.188 1.002-3.28.748-1.236 1.646-1.852 2.689-1.852.363 0 .644.09.834.272.19.18.29.43.29.752 0 .335-.113.66-.344.983-.232.321-.644.66-1.238 1.005-.3.168-.934.476-1.91.915a4.89 4.89 0 00-.068.793c0 .362.06.616.173.76.113.146.285.218.503.218.209 0 .44-.059.694-.176.331-.159.825-.48 1.478-.965zm-2.693-1.12c.825-.37 1.446-.765 1.864-1.19.28-.3.421-.594.421-.884 0-.222-.059-.394-.172-.525a.568.568 0 00-.449-.195.867.867 0 00-.553.217c-.24.19-.445.476-.608.861a7.286 7.286 0 00-.503 1.717zm6.829-1.018c.15-.485.426-1.042.82-1.672.314-.131.468-.272.463-.421a.302.302 0 00-.1-.218.298.298 0 00-.222-.1c-.09 0-.299.073-.625.218-.812-.013-1.46.05-1.955.19-.49.141-.839.331-1.038.576-.2.244-.3.516-.3.82 0 .19.05.34.14.453a.43.43 0 00.341.167.36.36 0 00.258-.095.293.293 0 00.105-.217.863.863 0 00-.068-.3c-.073-.171-.109-.29-.109-.362 0-.18.14-.34.417-.47.39-.186 1.039-.286 1.941-.3-.503.376-.88.825-1.138 1.341a3.501 3.501 0 00-.386 1.595c0 .416.11 1.155.318 2.215.109.53.181.915.218 1.155a9.461 9.461 0 003.614-2.94c.77-1.037 1.16-2.102 1.16-3.194 0-.348-.05-.597-.154-.742a.481.481 0 00-.408-.218c-.127 0-.24.05-.33.15a.49.49 0 00-.141.348c0 .123.063.313.19.571.118.24.177.44.177.598 0 .544-.236 1.191-.707 1.943-.477.752-1.28 1.559-2.413 2.42-.195-.938-.295-1.631-.295-2.07 0-.481.077-.961.227-1.441zm8.321 2.138l.254.34c-1.256 1.195-2.335 1.793-3.233 1.793-.363 0-.644-.122-.835-.371-.19-.25-.29-.643-.29-1.187 0-1.096.336-2.188 1.002-3.28.749-1.236 1.647-1.852 2.69-1.852.362 0 .643.09.834.272.19.18.29.43.29.752 0 .335-.113.66-.344.983-.232.321-.644.66-1.238 1.005-.3.168-.935.476-1.91.915a4.89 4.89 0 00-.068.793c0 .362.06.616.173.76.113.146.285.218.503.218.209 0 .44-.059.694-.176.33-.159.825-.48 1.478-.965zm-2.693-1.12c.825-.37 1.446-.765 1.863-1.19.281-.3.422-.594.422-.884 0-.222-.059-.394-.172-.525a.569.569 0 00-.45-.195.867.867 0 00-.552.217c-.24.19-.445.476-.608.861a7.286 7.286 0 00-.503 1.717zm7.564 1.468l-.263-.276a7.44 7.44 0 01-1.28 1.024c-.217.131-.38.2-.493.2-.118 0-.177-.082-.177-.245 0-.073.19-.915.571-2.532l.766-3.226c.268-1.16.463-1.934.585-2.328.123-.394.254-.652.404-.775.109-.086.267-.131.476-.131.213 0 .44.023.685.063.281.05.499.077.653.077.231 0 .412-.054.535-.158a.518.518 0 00.186-.408c0-.15-.064-.28-.19-.385-.123-.104-.295-.158-.518-.158-.644 0-1.26.172-1.84.52a3.487 3.487 0 00-1.352 1.464c-.204.416-.458 1.236-.762 2.455l-.83 3.38c-.317 1.29-.476 2.142-.476 2.554 0 .213.05.376.154.498a.494.494 0 00.395.181c.353 0 .802-.185 1.351-.557a7.56 7.56 0 001.42-1.236zm8.167-.09l.163.448c-1.22.96-2.254 1.44-3.097 1.44-.45 0-.771-.158-.975-.475-.204-.317-.304-.72-.304-1.21 0-.81.218-1.643.648-2.5.431-.856.957-1.513 1.57-1.97a2.687 2.687 0 011.632-.53c.38 0 .666.072.862.217.194.145.294.317.294.521 0 .159-.05.29-.154.39-.104.1-.245.15-.43.15-.182 0-.413-.082-.695-.245-.294-.172-.535-.263-.73-.263-.25 0-.503.113-.752.34-.25.226-.486.67-.712 1.327a6.013 6.013 0 00-.34 1.975c0 .485.095.865.285 1.128.14.204.336.308.585.308.603-.005 1.32-.353 2.15-1.051zm4.68.09l-.264-.276a7.443 7.443 0 01-1.278 1.024c-.218.131-.381.2-.495.2-.117 0-.176-.082-.176-.245 0-.073.19-.915.57-2.532l.767-3.226c.268-1.16.463-1.934.585-2.328.123-.394.254-.652.404-.775.109-.086.267-.131.476-.131.213 0 .44.023.685.063.28.05.499.077.653.077.231 0 .413-.054.535-.158a.518.518 0 00.186-.408c0-.15-.064-.28-.19-.385-.123-.104-.295-.158-.518-.158-.644 0-1.26.172-1.84.52a3.488 3.488 0 00-1.352 1.464c-.204.416-.458 1.236-.762 2.455l-.83 3.38c-.317 1.29-.476 2.142-.476 2.554 0 .213.05.376.154.498a.494.494 0 00.395.181c.353 0 .802-.185 1.351-.557a7.558 7.558 0 001.42-1.236zm.639-3.107l-.34-.263c.512-.566.98-.965 1.406-1.205.421-.24.784-.357 1.079-.357.163 0 .29.036.376.108a.362.362 0 01.132.295c0 .15-.168.779-.5 1.893-.543 1.821-.815 2.917-.815 3.293 0 .073.018.132.054.181.036.05.073.073.113.073.164 0 .585-.317 1.266-.956l.299.295c-.703.661-1.215 1.082-1.542 1.268-.322.186-.59.276-.794.276a.547.547 0 01-.426-.167c-.104-.114-.159-.267-.159-.471 0-.644.386-2.206 1.157-4.702.036-.118.054-.222.054-.317 0-.105-.045-.154-.14-.154a.677.677 0 00-.35.122c-.126.086-.417.349-.87.788zm3.025-5.091c.158 0 .29.054.394.158.104.104.154.24.154.403a.853.853 0 01-.236.598c-.158.172-.33.258-.526.258a.51.51 0 01-.385-.163.582.582 0 01-.154-.42c0-.232.072-.427.222-.59a.697.697 0 01.53-.244zm.557 4.851l.263.267c.277-.308.576-.566.885-.783.154-.11.272-.163.353-.163.105 0 .154.067.154.208 0 .05-.013.136-.04.254l-.685 2.926c-.159.702-.345 1.44-.562 2.21h1.147l.626-2.69c.14-.607.313-1.051.517-1.328.326-.43.73-.806 1.21-1.123.322-.213.59-.321.794-.321.19 0 .286.081.286.24 0 .108-.091.484-.263 1.132-.572 1.812-.857 2.949-.857 3.406 0 .318.054.549.163.689a.54.54 0 00.453.213c.214 0 .481-.104.803-.308a6.975 6.975 0 001.469-1.255l-.19-.276a14.87 14.87 0 00-.676.57c-.322.286-.553.43-.703.43a.139.139 0 01-.131-.076.461.461 0 01-.046-.236c0-.344.164-1.037.49-2.083.35-1.12.562-1.844.644-2.18.045-.199.068-.38.068-.538 0-.24-.054-.426-.168-.553-.108-.127-.267-.19-.467-.19-.272 0-.617.131-1.038.394-.79.503-1.447 1.046-1.968 1.626l.349-1.55c.027-.117.04-.198.04-.244 0-.063-.027-.117-.09-.163a.422.422 0 00-.254-.068c-.277 0-.612.1-1.002.308-.39.209-.916.625-1.574 1.255zm7.614.24l-.34-.263c.513-.566.98-.965 1.406-1.205.422-.24.784-.357 1.079-.357.163 0 .29.036.377.108a.362.362 0 01.131.295c0 .15-.168.779-.499 1.893-.544 1.821-.816 2.917-.816 3.293 0 .073.018.132.054.181.037.05.073.073.114.073.163 0 .585-.317 1.265-.956l.299.295c-.703.661-1.215 1.082-1.542 1.268-.322.186-.589.276-.793.276a.545.545 0 01-.426-.167c-.105-.114-.159-.267-.159-.471 0-.644.385-2.206 1.156-4.702.037-.118.055-.222.055-.317 0-.105-.046-.154-.141-.154a.676.676 0 00-.349.122c-.132.086-.422.349-.871.788zm3.025-5.091a.535.535 0 01.549.561.856.856 0 01-.236.598c-.159.172-.331.258-.526.258a.513.513 0 01-.386-.163.583.583 0 01-.154-.42.84.84 0 01.222-.59.699.699 0 01.531-.244zm4.979 8.556l-.163-.448c-.835.697-1.547 1.046-2.15 1.05a.675.675 0 01-.585-.307c-.19-.263-.285-.643-.285-1.128 0-.661.113-1.318.34-1.975.226-.657.462-1.1.712-1.327.249-.227.503-.34.752-.34.195 0 .436.09.731.263.281.163.512.244.693.244.186 0 .327-.05.431-.15a.516.516 0 00.154-.389c0-.204-.099-.376-.294-.52-.195-.146-.481-.218-.862-.218a2.69 2.69 0 00-1.633.53c-.612.457-1.138 1.114-1.569 1.97-.43.857-.648 1.69-.648 2.5 0 .49.1.893.304 1.21.204.317.526.476.975.476.843 0 1.877-.48 3.097-1.44zm25.381-40.128l-.177.756c.245-.036.408-.054.498-.05.209 0 .372.055.49.168a.593.593 0 01.177.448c0 .2-.032.44-.104.72l-1.406 5.726-1.211 4.584c-.585 1.803-1.047 2.972-1.387 3.51-.186.304-.413.522-.676.649-.263.127-.93.222-2.009.28l-.404.861a78.905 78.905 0 012.408-.054c1.139 0 2.336.045 3.601.14 1.496.118 2.553.177 3.161.177 1.886 0 3.773-.43 5.664-1.291 1.891-.86 3.505-2.306 4.838-4.335 1.333-2.03 2-4.258 2-6.682 0-2.609-.961-4.778-2.875-6.504-1.914-1.726-4.489-2.591-7.723-2.591-2.621 0-5.006.557-7.151 1.667-2.145 1.11-3.818 2.604-5.02 4.484-1.202 1.88-1.8 3.828-1.8 5.839 0 1.205.403 2.383 1.201 3.529.59.82 1.193 1.227 1.819 1.227.281 0 .53-.108.748-.326.218-.217.327-.466.327-.747a.92.92 0 00-.168-.562c-.114-.15-.354-.33-.73-.544-1.311-.702-1.968-1.802-1.968-3.302 0-1.535.535-3.112 1.605-4.733 1.07-1.617 2.526-2.922 4.362-3.905a12.247 12.247 0 015.864-1.477c2.458 0 4.448.793 5.972 2.378 1.519 1.59 2.281 3.688 2.281 6.297 0 1.988-.449 3.81-1.342 5.458-.898 1.649-2.104 2.904-3.628 3.764-1.524.861-3.306 1.291-5.356 1.291-.775 0-1.664-.1-2.671-.299 1.043-1.798 1.982-4.47 2.812-8.004l1.161-4.896c.385-1.654.83-3.126 1.333-4.426-1.737.412-3.242.67-4.516.775zm26.256 14.015l-.581-.775c-1.487 1.11-2.616 1.848-3.387 2.22-.576.267-1.102.403-1.583.403-.503 0-.889-.168-1.152-.494-.263-.33-.394-.91-.394-1.74 0-.57.054-1.172.158-1.807 2.227-1.005 3.678-1.703 4.358-2.088 1.361-.797 2.304-1.563 2.83-2.301.526-.738.789-1.486.789-2.247 0-.724-.218-1.295-.657-1.712-.44-.417-1.08-.625-1.91-.625-2.38 0-4.425 1.409-6.135 4.23-1.524 2.483-2.286 4.974-2.286 7.48 0 1.24.218 2.142.658 2.704.44.561 1.075.842 1.909.842 2.05 0 4.512-1.363 7.383-4.09zm-2.476-6.043c-.948.974-2.367 1.88-4.254 2.722a17.667 17.667 0 011.143-3.936c.372-.879.839-1.531 1.387-1.966.409-.33.83-.494 1.266-.494.421 0 .766.15 1.029.449.263.299.395.702.395 1.205 0 .67-.322 1.34-.966 2.02zm5.269-.965l-.599-.616c1.501-1.436 2.699-2.387 3.587-2.858.894-.471 1.656-.707 2.286-.707.245 0 .44.055.58.159.141.104.214.226.214.367 0 .104-.028.294-.087.561l-.793 3.534c1.192-1.323 2.689-2.56 4.494-3.71.961-.598 1.75-.897 2.367-.897.458 0 .812.145 1.07.44.259.294.386.715.386 1.263 0 .362-.055.775-.159 1.228-.186.76-.676 2.418-1.469 4.969-.749 2.387-1.121 3.972-1.121 4.756 0 .24.037.421.105.539a.323.323 0 00.299.181c.34 0 .871-.326 1.601-.983a26.137 26.137 0 011.546-1.3l.44.634c-1.079 1.187-2.195 2.143-3.356 2.868-.739.466-1.346.697-1.827.697-.445 0-.789-.163-1.039-.484-.244-.322-.367-.847-.367-1.572 0-1.042.649-3.633 1.95-7.778.399-1.477.599-2.333.599-2.582 0-.362-.218-.543-.649-.543-.467 0-1.07.244-1.809.738a10.865 10.865 0 00-2.762 2.568c-.467.635-.861 1.64-1.179 3.026l-1.424 6.138h-2.621a99.158 99.158 0 001.283-5.046l1.565-6.681c.059-.268.086-.462.086-.58 0-.317-.118-.476-.354-.476-.186 0-.458.122-.807.372a11.12 11.12 0 00-2.036 1.775zm23.558-7.9l-2.789 1.07-.984 3.84h-2.852l-.318 1.246h2.848l-1.791 6.99c-.444 1.735-.667 3.021-.667 3.864 0 .715.123 1.227.377 1.544.254.317.594.476 1.029.476.526 0 1.225-.213 2.091-.648.87-.435 2.584-1.617 5.151-3.547l-.666-.806a22.08 22.08 0 01-2.812 1.948c-.748.43-1.306.648-1.669.648-.236 0-.417-.073-.553-.213-.136-.14-.204-.367-.204-.684 0-.689.245-1.916.73-3.683l1.533-5.884h3.646l.281-1.246h-3.642l1.261-4.915zM101.378 4.61c-16.754 9.109-31.75 5.826-46.981 2.492C46.163 5.3 37.861 3.482 29.175 3.6c-4.19.054-8.33 1.1-11.93 3.239-.175.101-.346.208-.517.314l-.196.12c-4.902 3.099-8.439 8.005-9.45 13.708-.948 5.35-.136 10.966 3.052 15.478 5.66 7.714 16.806 6.305 24.08 1.785-11.41 12.674-28.084 7.442-33.172-8.181C-3.878 14.97 9.412 1.14 24.45.035c10.364-.352 20.19 2.019 29.92 4.367 15.322 3.697 30.412 7.339 47.008.208zm-61.503 7.282c-1.253 1.24-2.55 2.523-4.015 3.35 1.288-.39 2.525-.87 3.636-1.65.378-.265.745-.554 1.107-.84.913-.721 1.803-1.425 2.802-1.687 5.066-1.323 7.188 6.6 6.426 10.609 3.152-4.462 1.642-14.532-4.92-13.318-1.795.33-3.377 1.895-5.036 3.536zm70.871 13.442h-3.201l-.241.956h3.211l-2.721 10.916c-.403 1.613-.802 2.628-1.206 3.044-.399.413-1.043.62-1.927.62a14 14 0 01-1.796-.121 7.409 7.409 0 00-.83-.068c-.376 0-.667.086-.866.249a.81.81 0 00-.299.661c0 .322.145.593.435.811.29.217.716.326 1.279.326 1.678 0 3.233-.67 4.666-2.007 1.433-1.34 2.476-3.306 3.129-5.902l2.095-8.539h3.596l.213-.95h-3.55l.671-2.85c.285-1.237.662-2.22 1.138-2.949.472-.73 1.007-1.092 1.596-1.092.24 0 .576.046 1.007.136.871.186 1.46.281 1.773.281.304 0 .553-.09.739-.267a.898.898 0 00.281-.67c0-.295-.14-.549-.417-.762-.277-.212-.689-.321-1.233-.321-.962 0-1.991.312-3.079.942a7.554 7.554 0 00-2.653 2.578c-.681 1.087-1.284 2.75-1.81 4.978zM72.31 32.97l-.454-.48c-.743.725-1.482 1.318-2.226 1.776-.377.23-.662.348-.857.348-.204 0-.309-.145-.309-.43 0-.127.331-1.595.993-4.403l1.338-5.608c.472-2.016.812-3.366 1.02-4.05.214-.683.445-1.132.703-1.345.186-.15.463-.226.826-.226.363 0 .762.036 1.188.108.49.091.866.136 1.134.136.408 0 .72-.09.934-.276a.886.886 0 00.322-.707c0-.258-.11-.48-.327-.666-.218-.185-.517-.276-.902-.276-1.125 0-2.195.304-3.206.906-1.012.603-1.796 1.454-2.35 2.546-.358.72-.797 2.142-1.323 4.267l-1.447 5.875c-.553 2.251-.83 3.728-.83 4.444 0 .367.09.657.268.865a.867.867 0 00.684.312c.613 0 1.397-.321 2.35-.969a13.32 13.32 0 002.47-2.147zm-19.613 2.143l-.172.76a9.495 9.495 0 01-1.043.082c-.386 0-.894-.032-1.528-.095a19.347 19.347 0 00-1.742-.095c-.385 0-.78.063-1.192.186.362-1.029.78-2.456 1.256-4.281l1.03-4.018-3.624.136a64.46 64.46 0 00-1.96.145c-.602 2.383-1.228 4.145-1.872 5.286-.644 1.142-1.379 1.984-2.204 2.523-.825.54-1.619.811-2.376.811-.74 0-1.374-.177-1.905-.535-.385-.249-.576-.561-.576-.937 0-.222.078-.412.227-.57a.745.745 0 01.549-.236c.349 0 .707.244 1.07.733.222.295.404.485.544.571.14.086.29.127.463.127.698 0 1.351-.562 1.963-1.685.613-1.123 1.506-3.905 2.685-8.335l1.31-4.897c-1.786 0-3.129.295-4.026.884-.898.589-1.347 1.254-1.347 1.993 0 .249.122.566.363.951.213.358.321.648.321.87a.845.845 0 01-.249.634.848.848 0 01-.621.25c-.313 0-.58-.15-.803-.45-.222-.298-.335-.733-.335-1.304 0-1.033.376-1.948 1.124-2.745.748-.793 1.841-1.354 3.27-1.685.82-.186 2.458-.28 4.915-.28-.662 1.304-1.4 3.605-2.217 6.902 2.363 0 4.226-.086 5.587-.253.77-2.587 1.45-4.39 2.04-5.413.59-1.02 1.252-1.758 1.991-2.215a4.621 4.621 0 012.471-.684c.785 0 1.393.15 1.814.448.427.3.635.639.635 1.024a.724.724 0 01-.226.548c-.15.145-.35.213-.59.213-.313 0-.662-.222-1.057-.67-.399-.445-.757-.671-1.07-.671-.666 0-1.328.62-1.977 1.862-1.16 2.21-2.503 6.88-4.027 14.01.15.019.363.05.64.096.508.09.916.135 1.229.135.367.01.78-.036 1.242-.126zm9.206-10.65c.875 0 1.6.349 2.18 1.042.581.697.871 1.662.871 2.904 0 1.979-.698 3.76-2.09 5.331-1.392 1.576-2.866 2.36-4.421 2.36-.957 0-1.728-.313-2.313-.938-.585-.625-.875-1.476-.875-2.554 0-1.876.535-3.606 1.605-5.192 1.356-1.966 3.034-2.953 5.043-2.953zm-1.139 1.006c-.757 0-1.492.543-2.204 1.626-.712 1.082-1.065 2.582-1.065 4.489 0 1.16.218 2.075.657 2.745.322.49.749.734 1.288.734.748 0 1.433-.462 2.05-1.39.785-1.206 1.179-2.7 1.179-4.485 0-1.337-.181-2.293-.544-2.863-.363-.571-.816-.856-1.36-.856zm18.797-1.006c.875 0 1.6.349 2.181 1.042.58.697.87 1.662.87 2.904 0 1.979-.698 3.76-2.09 5.331-1.392 1.576-2.866 2.36-4.421 2.36-.957 0-1.728-.313-2.313-.938-.585-.625-.875-1.476-.875-2.554 0-1.876.535-3.606 1.605-5.192 1.352-1.966 3.034-2.953 5.043-2.953zm-1.138 1.006c-.758 0-1.492.543-2.204 1.626-.712 1.082-1.066 2.582-1.066 4.489 0 1.16.218 2.075.658 2.745.322.49.748.734 1.287.734.749 0 1.433-.462 2.05-1.39.785-1.206 1.18-2.7 1.18-4.485 0-1.337-.182-2.293-.545-2.863-.363-.571-.816-.856-1.36-.856zm16.207 7.986l-.376-.508c-.876.675-1.465 1.101-1.77 1.269-.212.113-.403.172-.561.172-.259 0-.39-.168-.39-.508 0-.312.113-.946.335-1.902l1.896-8.081c.508-2.16.834-3.438.975-3.841.217-.635.444-1.047.68-1.237.236-.19.512-.285.825-.285.222 0 .64.045 1.247.135.608.091 1.025.136 1.247.136.34 0 .612-.09.808-.262a.861.861 0 00.294-.675.908.908 0 00-.322-.712c-.213-.185-.499-.28-.857-.28-.68 0-1.41.158-2.19.475a6.485 6.485 0 00-2.082 1.341 7.082 7.082 0 00-1.487 2.066c-.385.797-.784 2.065-1.206 3.8a6.143 6.143 0 00-.884-.095c-.885 0-1.86.399-2.925 1.187-1.066.788-2.036 2.006-2.907 3.655-.87 1.65-1.306 3.108-1.306 4.376 0 .806.159 1.413.48 1.83.323.412.722.62 1.193.62.572 0 1.211-.203 1.928-.615.716-.408 1.61-1.192 2.68-2.342l-.468 1.635c-.095.344-.145.598-.145.747 0 .15.064.286.2.408.131.122.308.181.521.181.463 0 1.098-.23 1.9-.684.58-.33 1.47-.996 2.667-2.006zM89.9 25.79c.295 0 .798.082 1.515.24l-.617 2.696c-.413 1.744-.74 2.835-.98 3.284a5.545 5.545 0 01-1.632 1.793c-.485.331-.912.494-1.288.494-.313 0-.594-.145-.839-.435-.245-.29-.367-.661-.367-1.118 0-1.002.267-2.175.798-3.525.53-1.35 1.084-2.255 1.655-2.727.572-.466 1.157-.702 1.755-.702zm12.811-1.327c.875 0 1.6.349 2.181 1.042.58.697.871 1.662.871 2.904 0 1.979-.699 3.76-2.091 5.331-1.392 1.576-2.866 2.36-4.421 2.36-.957 0-1.728-.313-2.313-.938-.585-.625-.875-1.476-.875-2.554 0-1.876.535-3.606 1.605-5.192 1.351-1.966 3.029-2.953 5.043-2.953zm-1.143 1.006c-.757 0-1.492.543-2.204 1.626-.712 1.082-1.066 2.582-1.066 4.489 0 1.16.218 2.075.658 2.745.322.49.748.734 1.288.734.748 0 1.433-.462 2.05-1.39.784-1.206 1.179-2.7 1.179-4.485 0-1.337-.182-2.293-.545-2.863-.358-.571-.811-.856-1.36-.856zm14.806-.136h3.201c.526-2.229 1.13-3.891 1.81-4.979a7.554 7.554 0 012.653-2.577c1.088-.63 2.117-.942 3.079-.942.544 0 .957.109 1.233.322.277.212.417.466.417.76 0 .268-.095.49-.281.67-.186.177-.435.268-.739.268-.313 0-.902-.095-1.773-.28-.431-.091-.766-.137-1.007-.137-.589 0-1.124.363-1.596 1.092-.476.73-.853 1.712-1.138 2.949l-.671 2.85h3.55l-.213.95h-3.596l-2.095 8.54c-.653 2.595-1.696 4.56-3.129 5.901-1.433 1.337-2.988 2.007-4.666 2.007-.562 0-.989-.109-1.279-.326-.29-.218-.435-.49-.435-.81 0-.277.1-.5.299-.662.2-.163.49-.25.866-.25.186 0 .463.023.83.069.626.081 1.224.122 1.796.122.884 0 1.528-.209 1.927-.62.404-.417.803-1.432 1.206-3.045l2.721-10.917h-3.201l.231-.955zM21.439 39.92c.503.439 1.061.824 1.633 1.155l.068-.1a9.985 9.985 0 01-1.288-1.445 21.086 21.086 0 01-1.111-1.58 33.515 33.515 0 01-1.873-3.371 49.125 49.125 0 01-1.56-3.506 52.721 52.721 0 01-1.256-3.592c-.703-2.428-1.22-4.86-1.27-7.28-.018-1.204.054-2.391.258-3.51.218-1.11.586-2.152 1.12-2.944.545-.793 1.184-1.3 1.973-1.559.39-.14.83-.226 1.315-.24a3.72 3.72 0 011.247.163c.934.272 1.996.847 3.052 1.518.613.384 1.228.803 1.856 1.23.46.314.927.632 1.405.944 1.124.734 2.322 1.454 3.646 1.975 1.306.54 2.816.793 4.253.598 1.442-.222 2.726-.888 3.787-1.726 1.065-.847 1.922-1.87 2.712-2.917l-.087-.077c-.169.132-.334.267-.499.401-.342.279-.681.555-1.042.8l-.39.28-.409.25-.158.095a6.769 6.769 0 01-.662.37c-1.098.585-2.272.907-3.379.87-1.106-.045-2.158-.394-3.151-1-.994-.59-1.932-1.364-2.866-2.207-.396-.356-.787-.724-1.186-1.098a67.7 67.7 0 00-1.712-1.57 23.51 23.51 0 00-1.669-1.35 12.286 12.286 0 00-2.081-1.173 7.861 7.861 0 00-2.698-.566c-.853 0-1.75.122-2.63.408a7.424 7.424 0 00-2.413 1.372c-.708.598-1.26 1.319-1.692 2.052-.852 1.482-1.238 3.022-1.437 4.503-.09.743-.127 1.477-.132 2.201.005.73.064 1.44.136 2.148.164 1.408.44 2.78.821 4.117.091.335.195.666.3.997l.349.97c.154.449.337.885.519 1.32.08.193.16.384.238.577a38.446 38.446 0 003.977 7.008 35.549 35.549 0 002.549 3.094c.458.484.93.96 1.437 1.395z" fill="#657F92"/></svg>