<svg width="214" height="72" fill="none" xmlns="http://www.w3.org/2000/svg"><path fill-rule="evenodd" clip-rule="evenodd" d="M62.157 65.793l-.296-.31c-.48.468-.96.855-1.44 1.15-.245.149-.43.225-.557.225-.133 0-.199-.092-.199-.275 0-.082.215-1.03.644-2.849l.863-3.628c.301-1.305.52-2.176.659-2.62.137-.443.286-.733.454-.871.123-.097.302-.148.537-.148.24 0 .495.026.77.072.317.056.563.086.736.086.26 0 .465-.06.603-.178a.583.583 0 00.21-.459.544.544 0 00-.215-.433c-.138-.117-.332-.178-.582-.178-.726 0-1.42.193-2.074.586a3.925 3.925 0 00-1.522 1.646c-.23.469-.516 1.391-.858 2.762l-.935 3.801c-.358 1.453-.536 2.41-.536 2.875 0 .24.056.422.173.56a.557.557 0 00.445.204c.398 0 .904-.209 1.522-.627a8.514 8.514 0 001.599-1.391zm-25.001 1.778l.123-.494a5.45 5.45 0 01-1.21.148c-.256 0-.578-.025-.966-.071l.48-2.085.46-1.824.755-2.996c.307-1.198.49-1.901.547-2.11.444.035.863.05 1.257.05 1.098 0 1.88-.157 2.349-.473.465-.316.7-.693.7-1.132 0-.214-.057-.382-.169-.51a.544.544 0 00-.429-.188.519.519 0 00-.373.158.507.507 0 00-.158.388c0 .027.008.088.021.183l.004.03c.016.123.026.204.026.245a.594.594 0 01-.225.484c-.148.123-.408.184-.771.184-.368 0-.95-.056-1.762-.158-1.14-.148-1.966-.224-2.487-.224-1.094 0-2.023.183-2.784.545-.761.362-1.364.876-1.798 1.539-.434.668-.654 1.35-.654 2.054 0 .525.113.958.332 1.3.148.228.343.346.588.346a.579.579 0 00.418-.163.514.514 0 00.174-.398c0-.178-.102-.377-.296-.591-.21-.234-.337-.403-.383-.505a1.203 1.203 0 01-.097-.494c0-.51.158-.983.475-1.422.316-.438.786-.774 1.415-1.004.623-.229 1.476-.346 2.543-.346.174 0 .43.01.771.025l-.06.214-1.11 4.587c-.48 1.916-.786 3.032-.924 3.353-.138.321-.301.545-.49.678-.266.183-.695.305-1.277.361l-.123.475a10.305 10.305 0 011.788-.159c.332 0 .71.016 1.134.051.562.051.96.077 1.205.077.256 0 .583-.04.981-.127zm7.723-6.609c-.378-.449-.848-.673-1.415-.673-1.297 0-2.385.642-3.259 1.916-.694 1.03-1.042 2.146-1.042 3.359 0 .698.19 1.248.567 1.65.378.403.879.607 1.497.607 1.006 0 1.956-.51 2.86-1.529.904-1.019 1.353-2.17 1.353-3.45 0-.805-.183-1.432-.561-1.88zm-3.576 1.03c.46-.699.935-1.05 1.425-1.05.353 0 .649.183.879.55.235.367.352.983.352 1.85 0 1.157-.25 2.12-.76 2.9-.4.6-.843.901-1.329.901-.347 0-.623-.157-.832-.474-.281-.433-.424-1.024-.424-1.773 0-1.233.23-2.201.69-2.905zm5.184.448l-.337-.347c.526-.627 1.053-1.095 1.568-1.39.521-.302.97-.45 1.354-.45a.51.51 0 01.342.108.402.402 0 01.128.316c0 .168-.02.341-.056.514-.036.179-.154.591-.353 1.249.884-.882 1.492-1.427 1.813-1.636.542-.352 1.042-.53 1.492-.53.296 0 .541.138.745.418.205.275.302.693.302 1.254 0 1.396-.434 2.72-1.308 3.98-.873 1.258-1.838 1.885-2.896 1.885-.413 0-.832-.112-1.246-.336l-.74 2.853a1.766 1.766 0 00-.072.423c0 .214.082.367.245.459.25.143.771.26 1.568.357l-.112.433a28.26 28.26 0 00-2.196-.112c-.552 0-1.262.035-2.135.112l.112-.433c.44-.046.761-.168.96-.362.2-.199.358-.545.48-1.05l1.568-6.569c.297-1.223.445-1.905.445-2.043 0-.148-.072-.224-.215-.224-.255.005-.74.377-1.456 1.12zm1.758 4.082c.454.453.924.683 1.404.683.695 0 1.303-.54 1.823-1.621.521-1.08.787-2.13.787-3.16 0-.33-.072-.58-.22-.749a.755.755 0 00-.592-.254c-.276 0-.587.137-.935.407-.536.423-.945.841-1.23 1.254-.205.3-.394.82-.573 1.56l-.465 1.88zM67.148 65.4l.286.382c-1.415 1.345-2.63 2.018-3.642 2.018-.409 0-.725-.138-.94-.418-.214-.28-.327-.724-.327-1.335 0-1.234.378-2.462 1.129-3.69.843-1.39 1.854-2.084 3.029-2.084.408 0 .725.102.94.306.214.204.326.484.326.846 0 .377-.127.744-.388 1.105-.26.362-.725.745-1.394 1.132-.337.188-1.052.535-2.15 1.03-.051.31-.077.606-.077.891 0 .408.067.693.194.856.128.163.322.245.567.245.235 0 .496-.067.782-.199.372-.178.93-.54 1.665-1.085zm-3.034-1.26c.93-.417 1.629-.86 2.099-1.34.317-.336.475-.667.475-.993 0-.25-.067-.443-.194-.591a.64.64 0 00-.506-.22.976.976 0 00-.623.245c-.27.214-.5.535-.684.969a8.196 8.196 0 00-.567 1.93zm7.692-1.146c.168-.545.48-1.172.924-1.88.352-.148.526-.306.521-.474a.34.34 0 00-.112-.245.335.335 0 00-.25-.112c-.103 0-.338.082-.705.245-.915-.016-1.645.056-2.202.214-.551.158-.945.372-1.17.647a1.419 1.419 0 00-.337.922.79.79 0 00.159.51.483.483 0 00.383.189.41.41 0 00.291-.107.33.33 0 00.117-.245.969.969 0 00-.076-.336c-.082-.194-.123-.327-.123-.408 0-.204.159-.382.47-.53.44-.209 1.17-.321 2.186-.336-.567.423-.99.927-1.282 1.508a3.935 3.935 0 00-.434 1.794c0 .469.123 1.3.358 2.492.122.596.204 1.03.245 1.3a10.651 10.651 0 004.07-3.308c.869-1.167 1.308-2.365 1.308-3.593 0-.392-.056-.672-.174-.835a.542.542 0 00-.46-.245.49.49 0 00-.372.168.55.55 0 00-.158.392c0 .138.071.352.214.643.133.27.2.494.2.672 0 .612-.266 1.34-.797 2.186-.537.846-1.44 1.753-2.718 2.722-.22-1.055-.332-1.835-.332-2.33 0-.54.087-1.08.256-1.62zm9.372 2.406l.286.382c-1.415 1.345-2.63 2.018-3.642 2.018-.408 0-.725-.138-.94-.418-.214-.28-.326-.724-.326-1.335 0-1.234.378-2.462 1.128-3.69.843-1.39 1.855-2.084 3.03-2.084.408 0 .725.102.939.306.215.204.327.484.327.846 0 .377-.128.744-.388 1.105-.26.362-.726.745-1.395 1.132-.337.188-1.052.535-2.15 1.03-.051.31-.077.606-.077.891 0 .408.067.693.195.856.127.163.321.245.566.245.235 0 .496-.067.782-.199.373-.178.93-.54 1.665-1.085zm-3.034-1.26c.93-.417 1.63-.86 2.1-1.34.316-.336.474-.667.474-.993 0-.25-.066-.443-.194-.591a.64.64 0 00-.505-.22.976.976 0 00-.624.245c-.27.214-.5.535-.684.969a8.196 8.196 0 00-.567 1.93zm8.52 1.652l-.297-.31a8.39 8.39 0 01-1.44 1.15c-.245.149-.43.225-.557.225-.133 0-.199-.092-.199-.275 0-.082.214-1.03.644-2.849l.863-3.628c.301-1.305.52-2.176.659-2.62.138-.443.286-.733.454-.871.123-.097.302-.148.537-.148.24 0 .495.026.77.072.317.056.563.086.736.086.26 0 .465-.06.603-.178a.583.583 0 00.21-.459.544.544 0 00-.215-.433c-.138-.117-.332-.178-.582-.178-.726 0-1.42.193-2.074.586a3.926 3.926 0 00-1.522 1.646c-.23.469-.516 1.391-.858 2.762l-.935 3.801c-.357 1.453-.536 2.41-.536 2.875 0 .24.056.422.173.56a.557.557 0 00.445.204c.398 0 .904-.209 1.522-.627a8.514 8.514 0 001.599-1.391zm9.198-.102l.184.505c-1.374 1.08-2.538 1.62-3.488 1.62-.506 0-.869-.178-1.099-.535-.23-.357-.342-.81-.342-1.36 0-.913.245-1.85.73-2.814.486-.963 1.078-1.702 1.768-2.216a3.029 3.029 0 011.839-.597c.429 0 .75.082.97.245.22.163.332.357.332.586a.579.579 0 01-.174.438c-.117.112-.275.168-.485.168-.204 0-.465-.091-.781-.275-.332-.193-.603-.295-.823-.295-.28 0-.566.127-.847.382s-.547.754-.802 1.493a6.755 6.755 0 00-.383 2.222c0 .545.107.973.321 1.269a.76.76 0 00.66.346c.679-.005 1.486-.397 2.42-1.182zm5.271.102l-.296-.31c-.48.468-.96.855-1.44 1.15-.246.149-.43.225-.557.225-.133 0-.2-.092-.2-.275 0-.082.215-1.03.644-2.849l.863-3.628c.302-1.305.521-2.176.659-2.62.138-.443.286-.733.455-.871.123-.097.301-.148.536-.148.24 0 .496.026.771.072.317.056.562.086.736.086.26 0 .465-.06.603-.178a.582.582 0 00.209-.459.544.544 0 00-.214-.433c-.138-.117-.332-.178-.583-.178-.725 0-1.42.193-2.073.586a3.925 3.925 0 00-1.522 1.646c-.23.469-.516 1.391-.859 2.762l-.934 3.801c-.358 1.453-.537 2.41-.537 2.875 0 .24.057.422.174.56a.557.557 0 00.445.204c.398 0 .903-.209 1.522-.627a8.512 8.512 0 001.598-1.391zm.72-3.496l-.383-.295c.577-.638 1.104-1.086 1.584-1.356.475-.27.883-.403 1.215-.403.184 0 .327.041.424.123a.407.407 0 01.148.33c0 .17-.189.878-.562 2.131-.612 2.049-.919 3.282-.919 3.705a.34.34 0 00.061.204c.041.056.082.081.128.081.184 0 .659-.356 1.425-1.075l.337.331c-.791.744-1.369 1.218-1.736 1.427-.363.21-.664.311-.894.311-.204 0-.363-.061-.48-.189-.118-.127-.179-.3-.179-.53 0-.723.434-2.481 1.302-5.29.041-.132.062-.249.062-.356 0-.117-.051-.173-.159-.173-.117 0-.245.046-.393.137-.143.097-.47.393-.981.887zm3.407-5.728c.179 0 .327.061.444.178.118.118.174.27.174.454a.962.962 0 01-.265.673c-.179.193-.373.29-.593.29a.574.574 0 01-.434-.183.652.652 0 01-.174-.474c0-.26.082-.48.251-.663a.784.784 0 01.597-.275zm.628 5.458l.297.3a5.85 5.85 0 01.996-.88c.173-.123.306-.184.398-.184.117 0 .174.076.174.234 0 .056-.016.153-.046.285l-.772 3.293c-.178.79-.388 1.62-.633 2.486h1.292l.705-3.027c.158-.683.352-1.182.582-1.493a5.5 5.5 0 011.364-1.264c.363-.24.664-.361.894-.361.214 0 .322.091.322.27 0 .122-.103.545-.297 1.274-.643 2.038-.965 3.317-.965 3.832 0 .356.061.616.184.774a.61.61 0 00.511.24c.24 0 .541-.117.904-.347a7.894 7.894 0 001.655-1.411l-.215-.311c-.25.199-.506.413-.761.642-.363.321-.623.484-.792.484a.157.157 0 01-.148-.087.515.515 0 01-.051-.264c0-.388.184-1.167.552-2.345.393-1.258.633-2.074.725-2.45a2.79 2.79 0 00.077-.607c0-.27-.062-.48-.189-.622-.123-.143-.302-.214-.526-.214-.307 0-.695.148-1.17.443-.889.566-1.629 1.178-2.217 1.83l.394-1.743a1.53 1.53 0 00.046-.275c0-.072-.031-.133-.103-.184a.474.474 0 00-.286-.076c-.311 0-.689.112-1.128.346-.44.235-1.032.704-1.773 1.412zm8.576.27l-.383-.295c.577-.638 1.103-1.086 1.583-1.356.475-.27.884-.403 1.216-.403.184 0 .327.041.424.123a.407.407 0 01.148.33c0 .17-.189.878-.562 2.131-.613 2.049-.919 3.282-.919 3.705 0 .081.02.148.061.204.041.056.082.081.128.081.184 0 .659-.356 1.425-1.075l.337.331c-.792.744-1.369 1.218-1.737 1.427-.362.21-.664.311-.894.311-.204 0-.362-.061-.48-.189-.117-.127-.178-.3-.178-.53 0-.723.434-2.481 1.302-5.29a1.21 1.21 0 00.061-.356c0-.117-.051-.173-.158-.173-.118 0-.245.046-.393.137-.148.097-.475.393-.981.887zm3.407-5.728c.178 0 .327.061.444.178.118.118.174.27.174.454a.959.959 0 01-.266.673c-.179.193-.373.29-.592.29a.574.574 0 01-.434-.183.652.652 0 01-.174-.474c0-.26.082-.48.25-.663a.787.787 0 01.598-.275zm5.608 9.627l-.184-.505c-.94.785-1.742 1.177-2.421 1.182a.759.759 0 01-.659-.346c-.215-.296-.322-.724-.322-1.27 0-.743.128-1.482.383-2.22.256-.74.521-1.24.802-1.494.281-.255.567-.382.848-.382.22 0 .49.102.822.295.317.184.578.275.782.275.209 0 .368-.056.485-.168a.577.577 0 00.174-.438c0-.23-.113-.423-.332-.586-.22-.163-.542-.245-.971-.245-.684 0-1.297.2-1.838.597-.69.514-1.282 1.253-1.768 2.216-.485.963-.73 1.901-.73 2.813 0 .55.112 1.004.342 1.361.23.357.593.535 1.098.535.95 0 2.115-.54 3.489-1.62z" fill="#7C7C7B"/><path fill-rule="evenodd" clip-rule="evenodd" d="M152.066 21.05l-.199.851c.276-.04.46-.061.562-.056.235 0 .418.061.551.189a.666.666 0 01.199.504c0 .224-.035.494-.117.81l-1.583 6.442-1.364 5.157c-.659 2.028-1.18 3.343-1.563 3.95-.209.34-.465.585-.761.728-.296.143-1.047.25-2.263.316l-.454.968a88.885 88.885 0 012.712-.06c1.282 0 2.63.05 4.055.157 1.686.133 2.876.199 3.56.199 2.125 0 4.25-.484 6.38-1.453 2.129-.968 3.948-2.593 5.449-4.876 1.502-2.283 2.253-4.79 2.253-7.517 0-2.935-1.083-5.376-3.238-7.318-2.156-1.941-5.057-2.915-8.699-2.915-2.952 0-5.638.627-8.054 1.876-2.416 1.248-4.301 2.93-5.654 5.045-1.354 2.114-2.028 4.306-2.028 6.568 0 1.356.455 2.68 1.354 3.97.664.922 1.343 1.381 2.048 1.381.316 0 .597-.122.842-.367.246-.244.368-.525.368-.84 0-.25-.061-.46-.189-.633-.127-.168-.398-.371-.822-.611-1.476-.79-2.217-2.028-2.217-3.715 0-1.727.603-3.501 1.808-5.325 1.206-1.82 2.845-3.287 4.914-4.393a13.805 13.805 0 016.604-1.661c2.768 0 5.01.891 6.726 2.675 1.711 1.789 2.57 4.148 2.57 7.084 0 2.237-.506 4.285-1.512 6.14-1.012 1.855-2.37 3.267-4.086 4.235-1.716.968-3.724 1.452-6.032 1.452-.874 0-1.875-.112-3.009-.336 1.175-2.023 2.232-5.03 3.167-9.005l1.308-5.509c.434-1.86.934-3.516 1.501-4.978-1.956.463-3.652.754-5.087.871zm29.573 15.767l-.654-.871c-1.675 1.248-2.947 2.079-3.815 2.497-.649.3-1.242.453-1.783.453-.567 0-1.001-.188-1.297-.555-.296-.372-.445-1.024-.445-1.957 0-.642.062-1.32.179-2.033 2.508-1.132 4.142-1.916 4.909-2.35 1.532-.896 2.594-1.758 3.187-2.588.592-.83.888-1.672.888-2.528 0-.815-.245-1.457-.74-1.926-.496-.469-1.216-.703-2.151-.703-2.681 0-4.985 1.584-6.91 4.76-1.716 2.792-2.574 5.595-2.574 8.413 0 1.396.245 2.41.74 3.042.496.632 1.211.948 2.151.948 2.308 0 5.082-1.534 8.315-4.602zm-2.789-6.798c-1.067 1.096-2.666 2.115-4.791 3.063.25-1.504.679-2.976 1.287-4.429.419-.988.945-1.722 1.563-2.211.46-.372.935-.556 1.425-.556.475 0 .863.169 1.16.505.296.336.444.79.444 1.355 0 .755-.363 1.509-1.088 2.273zm5.935-1.085l-.674-.693c1.69-1.616 3.039-2.686 4.04-3.216 1.006-.53 1.864-.795 2.574-.795.276 0 .496.061.654.178.158.118.24.255.24.413 0 .117-.031.331-.097.632l-.894 3.975c1.343-1.488 3.029-2.88 5.062-4.174 1.082-.672 1.971-1.009 2.666-1.009.516 0 .914.163 1.205.495.291.33.434.805.434 1.422 0 .407-.061.87-.178 1.38-.21.857-.761 2.722-1.655 5.59-.843 2.686-1.262 4.47-1.262 5.352 0 .27.041.474.118.606a.363.363 0 00.337.204c.383 0 .98-.367 1.803-1.106a29.426 29.426 0 011.741-1.463l.496.714c-1.216 1.335-2.472 2.41-3.78 3.226-.832.525-1.517.785-2.058.785-.501 0-.889-.184-1.17-.546-.276-.362-.414-.953-.414-1.768 0-1.172.731-4.087 2.197-8.75.449-1.661.674-2.624.674-2.905 0-.407-.245-.611-.73-.611-.527 0-1.206.275-2.038.83-1.242.816-2.278 1.779-3.111 2.89-.526.713-.97 1.845-1.328 3.404l-1.604 6.905h-2.952a112.176 112.176 0 001.446-5.677l1.762-7.516c.066-.301.097-.52.097-.653 0-.356-.133-.535-.399-.535-.209 0-.515.138-.909.418a12.518 12.518 0 00-2.293 1.998zm26.534-8.888l-3.141 1.203-1.109 4.321h-3.212l-.358 1.402h3.208l-2.018 7.863c-.5 1.952-.751 3.399-.751 4.347 0 .805.138 1.38.424 1.737.286.357.669.536 1.16.536.592 0 1.379-.24 2.354-.73.981-.488 2.912-1.818 5.802-3.99l-.75-.906a24.856 24.856 0 01-3.167 2.19c-.843.485-1.471.73-1.88.73-.265 0-.47-.082-.623-.24-.153-.158-.23-.413-.23-.77 0-.774.276-2.155.823-4.142l1.726-6.62h4.107l.316-1.402h-4.101l1.42-5.529z" fill="#1C9D5B"/><path fill-rule="evenodd" clip-rule="evenodd" d="M114.183 5.186c-18.87 10.248-35.76 6.555-52.915 2.804-9.274-2.028-18.625-4.073-28.407-3.94-4.72.061-9.383 1.238-13.438 3.643-.196.115-.39.235-.582.354l-.22.136c-5.521 3.485-9.505 9.004-10.644 15.42-1.068 6.019-.154 12.338 3.437 17.413 6.374 8.679 18.929 7.094 27.121 2.008-12.85 14.259-31.63 8.373-37.362-9.203C-4.368 16.84 10.602 1.283 27.54.039c11.673-.396 22.739 2.272 33.7 4.913 17.257 4.16 34.252 8.256 52.944.234zM44.912 13.38c-1.411 1.394-2.872 2.838-4.523 3.768 1.45-.439 2.845-.979 4.096-1.855.426-.299.839-.624 1.247-.947 1.028-.81 2.03-1.602 3.156-1.897 5.705-1.488 8.096 7.425 7.238 11.935 3.55-5.02 1.849-16.348-5.542-14.982-2.022.371-3.804 2.132-5.672 3.978zm79.823 15.12h-3.606l-.27 1.076h3.616l-3.065 12.281c-.454 1.814-.904 2.956-1.358 3.425-.45.463-1.175.698-2.171.698-.644 0-1.318-.046-2.023-.138a8.336 8.336 0 00-.934-.076c-.424 0-.751.097-.976.28a.912.912 0 00-.337.744c0 .362.163.668.49.912.327.245.807.367 1.441.367 1.89 0 3.641-.754 5.255-2.257 1.614-1.509 2.789-3.72 3.525-6.64l2.359-9.606h4.051l.24-1.07h-4l.756-3.206c.322-1.391.746-2.497 1.282-3.317.532-.821 1.134-1.229 1.798-1.229.271 0 .649.051 1.134.153.981.21 1.645.316 1.997.316.342 0 .623-.102.833-.3.209-.204.316-.454.316-.755 0-.331-.158-.616-.47-.856-.311-.24-.776-.362-1.389-.362-1.083 0-2.242.352-3.468 1.06a8.508 8.508 0 00-2.988 2.9c-.766 1.223-1.445 3.093-2.038 5.6zm-43.291 8.592l-.511-.54c-.838.816-1.67 1.483-2.508 1.998-.424.26-.746.392-.965.392-.23 0-.347-.163-.347-.484 0-.143.372-1.794 1.118-4.953l1.507-6.31c.531-2.267.914-3.785 1.149-4.555.24-.77.5-1.274.792-1.514.21-.168.52-.254.93-.254.408 0 .857.04 1.337.122.552.102.976.153 1.277.153.46 0 .812-.102 1.052-.31a.996.996 0 00.363-.796c0-.29-.123-.54-.368-.749-.245-.209-.582-.31-1.016-.31-1.267 0-2.472.34-3.611 1.018-1.14.678-2.023 1.636-2.646 2.864-.403.81-.899 2.41-1.491 4.8l-1.63 6.61c-.623 2.533-.934 4.194-.934 5 0 .412.102.738.301.973.204.234.46.351.771.351.69 0 1.574-.361 2.646-1.09a14.992 14.992 0 002.784-2.416zm-22.09 2.41l-.194.857c-.511.061-.905.092-1.175.092-.434 0-1.007-.036-1.721-.107a21.662 21.662 0 00-1.962-.107c-.434 0-.878.07-1.343.209.408-1.157.878-2.762 1.415-4.816l1.16-4.52-4.082.152c-.715.041-1.45.097-2.206.164-.68 2.68-1.385 4.662-2.11 5.947-.725 1.284-1.552 2.232-2.482 2.838-.93.607-1.823.912-2.676.912-.833 0-1.548-.198-2.145-.601-.435-.28-.65-.632-.65-1.055 0-.25.088-.464.256-.642a.84.84 0 01.618-.265c.393 0 .797.275 1.206.826.25.33.454.545.613.642a.965.965 0 00.52.142c.787 0 1.523-.632 2.212-1.895.69-1.264 1.696-4.393 3.024-9.377l1.476-5.509c-2.013 0-3.524.331-4.536.994-1.011.662-1.517 1.412-1.517 2.242 0 .28.138.637.409 1.07.24.403.363.729.363.979a.956.956 0 01-.98.994c-.354 0-.655-.169-.905-.505-.25-.336-.378-.826-.378-1.468 0-1.162.424-2.191 1.267-3.088.842-.892 2.073-1.524 3.682-1.896.925-.208 2.769-.316 5.537-.316-.746 1.468-1.578 4.057-2.498 7.767 2.661 0 4.76-.097 6.293-.286.868-2.91 1.634-4.938 2.298-6.09.664-1.146 1.41-1.977 2.242-2.491a5.208 5.208 0 012.784-.77c.883 0 1.568.168 2.043.505.48.336.715.718.715 1.151 0 .25-.087.46-.255.617-.169.163-.394.24-.664.24-.353 0-.746-.25-1.19-.755-.45-.499-.853-.754-1.206-.754-.75 0-1.496.698-2.227 2.095-1.307 2.486-2.82 7.74-4.535 15.762.168.02.408.056.72.107.572.101 1.032.152 1.384.152.414.01.879-.04 1.4-.142zm10.368-11.98c.986 0 1.803.392 2.457 1.172.653.785.98 1.87.98 3.267 0 2.227-.786 4.23-2.354 5.998-1.568 1.773-3.228 2.655-4.98 2.655-1.078 0-1.946-.352-2.605-1.055s-.986-1.661-.986-2.874c0-2.11.603-4.057 1.808-5.84 1.527-2.212 3.417-3.323 5.68-3.323zm-1.282 1.131c-.853 0-1.68.612-2.482 1.83-.802 1.218-1.2 2.905-1.2 5.05 0 1.304.245 2.334.74 3.088.363.55.843.826 1.45.826.843 0 1.615-.52 2.31-1.565.883-1.355 1.327-3.037 1.327-5.045 0-1.503-.204-2.578-.613-3.22-.408-.643-.92-.964-1.532-.964zm21.17-1.131c.986 0 1.804.392 2.457 1.172.654.785.981 1.87.981 3.267 0 2.227-.787 4.23-2.355 5.998-1.567 1.773-3.227 2.655-4.98 2.655-1.077 0-1.945-.352-2.604-1.055-.66-.703-.986-1.661-.986-2.874 0-2.11.603-4.057 1.808-5.84 1.522-2.212 3.417-3.323 5.68-3.323zm-1.281 1.131c-.853 0-1.68.612-2.483 1.83-.802 1.218-1.2 2.905-1.2 5.05 0 1.304.245 2.334.74 3.088.363.55.844.826 1.451.826.843 0 1.614-.52 2.309-1.565.883-1.355 1.328-3.037 1.328-5.045 0-1.503-.204-2.578-.613-3.22-.409-.643-.92-.964-1.532-.964zm18.254 8.985l-.424-.571c-.986.76-1.65 1.238-1.992 1.427-.24.127-.454.193-.633.193-.291 0-.439-.188-.439-.57 0-.352.127-1.065.378-2.14l2.135-9.092c.572-2.43.939-3.868 1.098-4.321.245-.714.5-1.178.766-1.392a1.44 1.44 0 01.929-.32c.251 0 .721.05 1.405.152s1.154.153 1.405.153c.383 0 .689-.102.909-.296a.97.97 0 00.332-.759 1.02 1.02 0 00-.363-.8c-.24-.209-.562-.316-.965-.316-.766 0-1.589.179-2.467.535a7.309 7.309 0 00-2.345 1.509 7.972 7.972 0 00-1.675 2.323c-.434.897-.883 2.324-1.359 4.276a6.923 6.923 0 00-.995-.107c-.996 0-2.095.449-3.295 1.335-1.2.887-2.293 2.258-3.274 4.113-.98 1.855-1.47 3.495-1.47 4.922 0 .907.178 1.59.54 2.06.363.463.813.697 1.344.697.644 0 1.364-.229 2.17-.693.808-.458 1.814-1.34 3.019-2.634l-.526 1.84c-.107.387-.163.672-.163.84 0 .168.071.321.224.459.149.137.348.204.588.204.521 0 1.236-.26 2.14-.77.654-.372 1.655-1.121 3.003-2.257zm-5.327-8.623c.332 0 .899.092 1.706.27l-.695 3.032c-.465 1.962-.832 3.19-1.103 3.695a6.23 6.23 0 01-1.839 2.018c-.546.372-1.026.556-1.45.556-.353 0-.67-.164-.945-.49-.276-.326-.414-.744-.414-1.258 0-1.127.301-2.447.899-3.965.598-1.519 1.22-2.538 1.864-3.068.644-.525 1.303-.79 1.977-.79zm14.429-1.493c.985 0 1.803.392 2.456 1.172.654.785.981 1.87.981 3.267 0 2.227-.787 4.23-2.355 5.998-1.568 1.773-3.227 2.655-4.979 2.655-1.078 0-1.946-.352-2.605-1.055s-.986-1.661-.986-2.874c0-2.11.603-4.057 1.808-5.84 1.522-2.212 3.412-3.323 5.68-3.323zm-1.287 1.131c-.853 0-1.681.612-2.483 1.83s-1.2 2.905-1.2 5.05c0 1.304.245 2.334.741 3.088.362.55.842.826 1.45.826.843 0 1.614-.52 2.309-1.565.883-1.355 1.328-3.037 1.328-5.045 0-1.503-.205-2.578-.613-3.22-.404-.643-.914-.964-1.532-.964zm16.676-.152h3.606c.592-2.508 1.271-4.378 2.038-5.601a8.508 8.508 0 012.988-2.9c1.225-.708 2.385-1.06 3.468-1.06.612 0 1.077.123 1.389.362.311.24.47.525.47.856 0 .3-.108.55-.317.755-.209.198-.49.3-.833.3-.352 0-1.016-.107-1.997-.316-.485-.102-.863-.153-1.133-.153-.664 0-1.267.408-1.798 1.229-.537.82-.961 1.926-1.282 3.317l-.756 3.205h3.999l-.24 1.07h-4.05l-2.36 9.607c-.736 2.92-1.91 5.131-3.524 6.64-1.614 1.503-3.366 2.257-5.256 2.257-.633 0-1.113-.122-1.44-.367-.327-.244-.491-.55-.491-.912 0-.31.113-.56.338-.744.224-.183.551-.28.975-.28.209 0 .521.025.935.076.705.092 1.379.138 2.022.138.996 0 1.722-.235 2.171-.698.455-.47.904-1.61 1.359-3.425l3.064-12.281h-3.606l.261-1.076zM24.147 44.91c.567.494 1.195.927 1.839 1.3l.076-.113a11.246 11.246 0 01-1.45-1.626 23.743 23.743 0 01-1.251-1.778 37.673 37.673 0 01-2.11-3.792 55.219 55.219 0 01-1.757-3.944 59.234 59.234 0 01-1.415-4.041c-.791-2.732-1.374-5.468-1.43-8.19-.02-1.355.062-2.69.291-3.949.246-1.248.66-2.42 1.262-3.312.613-.892 1.333-1.463 2.222-1.753a4.76 4.76 0 011.48-.27 4.2 4.2 0 011.405.183c1.053.306 2.248.953 3.438 1.707.69.433 1.383.904 2.09 1.385.518.352 1.044.71 1.582 1.061 1.267.826 2.615 1.636 4.107 2.222 1.47.607 3.171.892 4.79.673 1.625-.25 3.07-.999 4.265-1.942 1.2-.953 2.166-2.104 3.055-3.281l-.097-.087c-.191.149-.377.3-.563.451-.386.314-.767.624-1.174.9l-.44.315-.459.28-.178.108a7.87 7.87 0 01-.746.417c-1.236.658-2.56 1.02-3.805.979-1.247-.051-2.432-.443-3.55-1.126-1.119-.663-2.176-1.534-3.228-2.482a93.934 93.934 0 01-1.336-1.236 75.432 75.432 0 00-1.928-1.766 26.42 26.42 0 00-1.88-1.518 13.84 13.84 0 00-2.344-1.32 8.864 8.864 0 00-3.039-.637c-.96 0-1.971.138-2.962.459a8.363 8.363 0 00-2.717 1.544c-.797.672-1.42 1.483-1.906 2.308-.96 1.667-1.394 3.4-1.619 5.066a21.455 21.455 0 00-.148 2.476c.005.82.072 1.62.154 2.416a28.95 28.95 0 00.924 4.632c.102.377.22.75.337 1.121l.393 1.09c.174.506.38.997.585 1.488.09.216.18.431.268.648a43.235 43.235 0 004.48 7.883 39.946 39.946 0 002.87 3.481c.516.545 1.047 1.08 1.62 1.57z" fill="#2581C4"/></svg>