<svg width="40" height="40" fill="none" xmlns="http://www.w3.org/2000/svg"><g clip-path="url(#clip0_461_11816)"><rect x="25" width="15" height="15" rx="4" fill="#1C9D5B" fill-opacity=".4"/><mask id="a" fill="#fff"><path fill-rule="evenodd" clip-rule="evenodd" d="M9.093 29.786A7.52 7.52 0 009 30.964C9 35.954 13.925 40 20 40s11-4.045 11-9.036c0-.4-.032-.793-.093-1.178H9.093z"/></mask><path d="M9.093 29.786v-1.5H7.812l-.2 1.265 1.48.235zm21.814 0l1.482-.235-.2-1.265h-1.282v1.5zM10.5 30.964a6 6 0 01.074-.943l-2.963-.47a9.019 9.019 0 00-.111 1.413h3zM20 38.5c-5.536 0-9.5-3.636-9.5-7.536h-3C7.5 37.045 13.386 41.5 20 41.5v-3zm9.5-7.536c0 3.9-3.964 7.536-9.5 7.536v3c6.614 0 12.5-4.455 12.5-10.536h-3zm-.074-.943a6 6 0 01.074.943h3c0-.478-.038-.95-.111-1.413l-2.963.47zm1.481-1.735H9.093v3h21.814v-3z" fill="#2581C4" mask="url(#a)"/><path d="M17.084 24.923c.488.316 1.756.949 2.928.949 1.17 0 2.44-.633 2.928-.949" stroke="#2581C4" stroke-width="1.5"/><path d="M19.28 32.988c.166-.648.581-.766.851-.737.26-.029.661.09.822.737.235.949.235 3.083 1.648 3.083 1.13 0 1.412-1.897 1.647-3.557.233-1.64.888-2.373 1.648-3.559.546-.852.563-2.646-.235-3.795-.779-1.12-1.93-1.66-3.06-1.66-1.363 0-1.41.442-2.47.473-1.097-.031-1.147-.473-2.56-.473-1.17 0-2.365.54-3.172 1.66-.827 1.148-.9 2.998-.244 3.796.976 1.186 1.467 1.917 1.708 3.558.244 1.66.537 3.557 1.708 3.557 1.464 0 1.464-2.134 1.708-3.083z" fill="#fff"/><path d="M20.256 32.276c-.244-.079-.781-.047-.977.712-.244.949-.244 3.083-1.708 3.083-1.17 0-1.464-1.897-1.708-3.557-.24-1.64-.732-2.373-1.708-3.559-.656-.797-.583-2.646.244-3.795.807-1.12 2.001-1.66 3.172-1.66 1.464 0 1.464.474 2.684.474m-.243 8.302c.235-.079.753-.047.941.712.235.949.235 3.083 1.648 3.083 1.13 0 1.412-1.897 1.647-3.557.233-1.64.888-2.373 1.648-3.559.546-.852.563-2.646-.235-3.795-.779-1.12-1.93-1.66-3.06-1.66-1.413 0-1.413.474-2.59.474m-2.931-5.151c-4.36 1.054-5.895 3.864-6.247 6.116-.13.827-1.085 1.43-1.658.82-3.76-4.006 2.245-10.539 7.537-10.539l.367-.71c1.472-1.992 4.415-1.778 5.518-.308 4.414-1.422 6.498-8.65 6.989-12.087 2.943-2.56 4.169-.119 4.414 1.422-.294 8.816-7.357 13.58-11.035 14.883 0 .355-.883 1.777-2.943 1.777-1.84 0-2.82-1.137-2.943-1.374z" stroke="#2581C4" stroke-width="1.5"/><path d="M22.92 18.823c4.36 1.054 5.895 3.864 6.247 6.116.13.827 1.085 1.43 1.658.82 3.76-4.006-2.245-10.539-7.537-10.539l-.367-.71c-1.472-1.992-4.415-1.778-5.518-.308-4.414-1.422-6.498-8.65-6.989-12.087C7.471-.445 6.245 1.996 6 3.537 6 14.509 16.5 18 16.5 18s1.235 2.197 3.478 2.197c1.84 0 2.82-1.137 2.943-1.374z" fill="#fff" stroke="#2581C4" stroke-width="1.5"/><circle cx="20" cy="16.5" r="1" fill="#2581C4"/></g><defs><clipPath id="clip0_461_11816"><path fill="#fff" d="M0 0h40v40H0z"/></clipPath></defs></svg>