<svg width="40" height="40" fill="none" xmlns="http://www.w3.org/2000/svg"><rect y="12" width="15" height="15" rx="4" fill="#1C9D5B" fill-opacity=".4"/><path d="M12.617 6.745c1.248.832 4.494 2.496 7.49 2.496 2.996 0 6.241-1.664 7.49-2.496" stroke="#2581C4" stroke-width="1.5"/><path d="M20.731 26.093c-.624-.208-1.997-.125-2.497 1.872-.624 2.497-.624 8.114-4.369 8.114-2.995 0-3.744-4.993-4.368-9.362-.617-4.316-1.873-6.241-4.37-9.362-1.679-2.1-1.491-6.965.625-9.986C7.816 4.421 10.87 3 13.866 3c3.744 0 3.744 1.248 6.865 1.248" stroke="#2581C4" stroke-width="1.5"/><path d="M20.107 26.093c.602-.208 1.927-.125 2.408 1.872.602 2.497.602 8.114 4.215 8.114 2.89 0 3.612-4.993 4.214-9.362.595-4.316 2.27-6.241 4.214-9.362 1.397-2.242 1.44-6.965-.602-9.986C32.565 4.421 29.62 3 26.73 3c-3.613 0-3.613 1.248-6.623 1.248" stroke="#2581C4" stroke-width="1.5"/><path d="M30.237 9.632c2.021-.516 5.349 0 5.349 0s.484 2.18.535 3.668c.057 1.687.124 2.633-.535 4.192-.866 2.045-3.21 4.716-3.21 4.716S28.34 20.5 26.493 18.54c-1.336-1.42 1.113-2.262 1.07-4.192-.069-3.069-.358-3.941 2.674-4.716z" fill="#2581C4" stroke="#2581C4" stroke-width="1.5"/></svg>