<svg width="40" height="40" fill="none" xmlns="http://www.w3.org/2000/svg"><g clip-path="url(#clip0_461_11731)"><rect y="20" width="15" height="15" rx="4" fill="#1C9D5B" fill-opacity=".4"/><path d="M13.009 11.548c1.182.788 4.257 2.365 7.095 2.365s5.913-1.577 7.096-2.365" stroke="#2581C4" stroke-width="1.5"/><path d="M20.695 29.878c-.591-.197-1.892-.119-2.365 1.773-.591 2.366-.591 7.687-4.14 7.687-2.837 0-3.547-4.73-4.138-8.87-.584-4.088-1.774-5.912-4.139-8.868-1.591-1.99-1.413-6.6.591-9.461C8.46 9.346 11.353 8 14.191 8c3.548 0 3.548 1.183 6.504 1.183" stroke="#2581C4" stroke-width="1.5"/><path d="M20.104 29.878c.57-.197 1.825-.119 2.281 1.773.57 2.366.57 7.687 3.993 7.687 2.738 0 3.422-4.73 3.992-8.87.564-4.088 2.15-5.912 3.993-8.868 1.324-2.125 1.364-6.599-.57-9.461C31.906 9.346 29.116 8 26.378 8c-3.422 0-3.422 1.183-6.274 1.183" stroke="#2581C4" stroke-width="1.5"/><path stroke="#2581C4" stroke-width="1.5" stroke-linecap="round" d="M2.25 13.75H.75m38.5 0h-1.5"/><path transform="matrix(-.83844 -.54499 .65438 -.75617 6 7.8)" stroke="#2581C4" stroke-width="1.5" stroke-linecap="round" d="M.75-.75h3.271"/><path transform="matrix(-.83844 .54499 -.65438 -.75617 38 5.2)" stroke="#2581C4" stroke-width="1.5" stroke-linecap="round" d="M.75-.75h3.271"/><path transform="matrix(-.41906 -.90796 .94484 -.32754 12 4.333)" stroke="#2581C4" stroke-width="1.5" stroke-linecap="round" d="M.75-.75h3.273"/><path transform="matrix(-.41903 .90797 -.94484 -.32752 29 0)" stroke="#2581C4" stroke-width="1.5" stroke-linecap="round" d="M.75-.75h3.273"/><path stroke="#2581C4" stroke-width="1.5" stroke-linecap="round" d="M19.25 2.25V.75"/><path d="M26 24c4.2 0 7 3.5 7 7 0-3.5 2.8-7 7-7-4.2 0-7-3.5-7-7 0 3.5-2.8 7-7 7z" fill="#fff" stroke="#2581C4" stroke-width="1.5"/></g><defs><clipPath id="clip0_461_11731"><path fill="#fff" d="M0 0h40v40H0z"/></clipPath></defs></svg>