<svg width="40" height="40" fill="none" xmlns="http://www.w3.org/2000/svg"><rect width="15" height="15" rx="4" fill="#1C9D5B" fill-opacity=".4"/><path d="M13.009 7.548c1.182.788 4.257 2.365 7.095 2.365s5.913-1.577 7.096-2.365" stroke="#2581C4" stroke-width="1.5"/><path d="M20.695 25.878c-.591-.197-1.892-.119-2.365 1.773-.591 2.366-.591 7.687-4.14 7.687-2.837 0-3.547-4.73-4.138-8.87-.584-4.088-1.774-5.912-4.139-8.868-1.591-1.99-1.413-6.6.591-9.461C8.46 5.346 11.353 4 14.191 4c3.548 0 3.548 1.183 6.504 1.183" stroke="#2581C4" stroke-width="1.5"/><path d="M20.104 25.878c.57-.197 1.825-.119 2.281 1.773.57 2.366.57 4.349 3.993 4.349 2.738 0 3.422-1.392 3.992-5.531.564-4.09 2.151-5.913 3.993-8.87 1.324-2.123 1.364-6.598-.57-9.46C31.906 5.346 29.116 4 26.378 4c-3.422 0-3.422 1.183-6.274 1.183" stroke="#2581C4" stroke-width="1.5"/><path d="M23.013 28.495C21.5 30 21.561 30.032 21.228 31.28c-.613 2.301 0 4.79 2.01 5.757 6.528 3.14 9.039-2.093 11.048-5.757 2.009-3.663-.502-5.233-4.018-6.28" stroke="#2581C4" stroke-width="1.5"/></svg>