<svg width="41" height="40" fill="none" xmlns="http://www.w3.org/2000/svg"><rect width="15" height="15" rx="4" fill="#1C9D5B" fill-opacity=".4"/><path d="M12.597 6.736c1.245.83 4.483 2.49 7.471 2.49 2.99 0 6.227-1.66 7.472-2.49" stroke="#2581C4" stroke-width="1.5"/><path d="M20.69 26.038c-.622-.208-1.992-.125-2.49 1.868-.622 2.49-.622 8.094-4.358 8.094-2.989 0-3.736-4.981-4.359-9.34-.615-4.306-1.868-6.226-4.358-9.34-1.676-2.094-1.488-6.948.622-9.962C7.807 4.418 10.854 3 13.843 3c3.736 0 3.736 1.245 6.849 1.245" stroke="#2581C4" stroke-width="1.5"/><path d="M20.068 26.038c.6-.208 1.922-.125 2.402 1.868.601 2.49.601 8.094 4.205 8.094 2.883 0 3.603-4.981 4.204-9.34.593-4.306 2.264-6.226 4.204-9.34 1.394-2.236 1.436-6.948-.6-9.962C32.496 4.418 29.558 3 26.675 3c-3.604 0-3.604 1.245-6.607 1.245" stroke="#2581C4" stroke-width="1.5"/><path d="M32.063 14.312l-.306-.133-.303.139-6.524 2.978-.361.165-.067.392c-1.524 8.976 4.213 13.632 7.225 14.843l.293.118.29-.128c3.94-1.734 5.94-4.595 6.829-7.462.88-2.839.67-5.666.242-7.423l-.089-.363-.343-.148-6.886-2.978z" fill="#fff" stroke="#2581C4" stroke-width="1.5"/><path d="M29 22.6l2.4 2.4 3.6-4" stroke="#2581C4" stroke-width="1.5"/></svg>