<svg width="40" height="40" fill="none" xmlns="http://www.w3.org/2000/svg"><g clip-path="url(#clip0_461_4429)"><rect y="25" width="15" height="15" rx="4" fill="#1C9D5B" fill-opacity=".4"/><path d="M20.695 29.878c-.591-.197-1.892-.119-2.365 1.773-.591 2.366-.591 7.687-4.14 7.687-2.837 0-3.547-4.73-4.138-8.87-.584-4.088-1.774-5.912-4.139-8.868-1.591-1.99-1.413-6.6.591-9.461C8.46 9.346 11.353 8 14.191 8c3.548 0 3.548 1.183 6.504 1.183" stroke="#2581C4" stroke-width="1.5"/><path d="M20.104 29.878c.57-.197 1.825-.119 2.281 1.773.57 2.366.57 7.687 3.993 7.687 2.738 0 3.422-4.73 3.992-8.87.564-4.088 2.15-5.912 3.993-8.868 1.324-2.125 1.364-6.599-.57-9.461C31.906 9.346 29.116 8 26.378 8c-3.422 0-3.422 1.183-6.274 1.183" stroke="#2581C4" stroke-width="1.5"/><path d="M18 18c4.2 0 7 3.5 7 7 0-3.5 2.8-7 7-7-4.2 0-7-3.5-7-7 0 3.5-2.8 7-7 7z" fill="#fff"/><path d="M25.75 25c0-3.865-3.088-7.75-7.75-7.75v1.5c3.738 0 6.25 3.115 6.25 6.25h1.5zm-1.5-14c0 3.865 3.088 7.75 7.75 7.75v-1.5c-3.738 0-6.25-3.115-6.25-6.25h-1.5zm1.5 14c0-3.135 2.512-6.25 6.25-6.25v-1.5c-4.662 0-7.75 3.885-7.75 7.75h1.5zm-1.5-14c0 3.135-2.512 6.25-6.25 6.25v1.5c4.662 0 7.75-3.885 7.75-7.75h-1.5z" fill="#2581C4"/><path stroke="#2581C4" stroke-width="1.5" d="M17.97 24.97l3-3M21 14l-3-3m14 14l-3-3"/><circle cx="25" cy="18" r="1" fill="#2581C4"/><path d="M37 2l-7.5 11.5 12.5-7" stroke="#2581C4" stroke-width="1.5"/></g><defs><clipPath id="clip0_461_4429"><path fill="#fff" d="M0 0h40v40H0z"/></clipPath></defs></svg>