<svg width="40" height="40" fill="none" xmlns="http://www.w3.org/2000/svg"><rect y="12" width="16" height="16" rx="4" fill="#1C9D5B" fill-opacity=".4"/><path d="M12.81 23.92l-.119.741.059.01h.06v-.75zm7.088 0v.75-.75zM8.674 19.416l-.742.112.742-.111zM6.84 15.92l.574-.482-.574.482zm-1.712-3.261l-.743.097.743-.098zm5.908-11.264L10.79.686l.247.708zm4.07-.057L15.29.61l-.184.727zm9.583 0l.184.727-.184-.727zm4.07.057l.247-.708-.247.708zm5.908 11.264l.743.097-.743-.098zm-1.712 3.26l-.574-.481.574.482zm-1.833 3.498l.742.11-.742-.11zm-4.135 4.505v.75h.059l.058-.01-.117-.74zm-14.179.75h7.09v-1.5h-7.09v1.5zm-4.877-5.144c.535 3.57 3.36 4.912 4.76 5.134l.235-1.481c-.964-.153-3.101-1.14-3.511-3.876l-1.484.223zM6.266 16.4c.788.94 1.461 1.758 1.666 3.126l1.484-.223c-.274-1.823-1.213-2.927-2-3.867l-1.15.964zm-1.88-3.646c.22 1.687 1.116 2.735 1.88 3.646l1.15-.964c-.776-.925-1.385-1.67-1.543-2.877l-1.487.195zM10.79.686C5.487 2.535 3.719 7.67 4.386 12.755l1.487-.195c-.613-4.674 1.023-8.928 5.41-10.457L10.79.686zm4.5-.076c-.655-.166-1.298-.331-2.016-.356-.735-.026-1.511.093-2.484.432l.494 1.417c.832-.29 1.422-.369 1.937-.35.532.018 1.021.14 1.702.311L15.291.61zm4.608.597c-2.246 0-3.541-.328-4.607-.597l-.368 1.454c1.117.282 2.55.643 4.975.643v-1.5zm0 1.5c2.427 0 3.86-.36 4.976-.643L24.506.61c-1.066.27-2.361.597-4.608.597v1.5zm4.976-.643c.681-.172 1.17-.293 1.702-.311.515-.019 1.104.06 1.937.35l.494-1.417c-.973-.339-1.75-.458-2.484-.432-.718.025-1.36.19-2.017.356l.368 1.454zm3.64.039c4.387 1.529 6.023 5.783 5.41 10.457l1.487.195c.667-5.086-1.102-10.22-6.404-12.069l-.494 1.417zm5.41 10.457c-.158 1.206-.767 1.952-1.542 2.877l1.15.964c.763-.911 1.658-1.96 1.88-3.646l-1.488-.195zm-1.542 2.877c-.788.94-1.727 2.044-2 3.867l1.483.223c.205-1.368.878-2.187 1.666-3.126l-1.15-.964zm-2 3.867c-.41 2.736-2.548 3.723-3.512 3.876l.235 1.481c1.4-.222 4.225-1.563 4.76-5.134l-1.484-.223zm-3.394 3.867h-7.09v1.5h7.09v-1.5z" fill="#2581C4"/><path d="M13.022 4.438c1.146.764 4.126 2.292 6.876 2.292s5.73-1.528 6.877-2.292" stroke="#2581C4" stroke-width="1.5"/><path d="M12.6 23.8v-.75h-.75v.75h.75zm0 9.673h-.75v.282l.185.212.565-.494zM17.436 39l-.564.494.224.256h.34V39zm5.133 0v.75h.375l.225-.3-.6-.45zm4.145-5.527l.6.45.15-.2v-.25h-.75zm0-9.673h.75v-.75h-.75v.75zm-14.114.75h7.6v-1.5h-7.6v1.5zm.75 8.923V23.8h-1.5v9.673h1.5zM18 38.506l-4.836-5.527-1.129.988 4.837 5.527L18 38.506zm2.2-.256h-2.764v1.5H20.2v-1.5zm0 1.5h2.369v-1.5h-2.37v1.5zm2.969-.3l4.145-5.527-1.2-.9-4.145 5.527 1.2.9zm4.295-5.977V23.8h-1.5v9.673h1.5zm-.75-10.423H20.2v1.5h6.514v-1.5z" fill="#2581C4"/><path d="M10.73 26.786l18.337 1.719M10.73 30.224l18.337 1.719M10.73 33.547l18.337 1.72" stroke="#2581C4" stroke-width="1.5"/></svg>