<svg width="41" height="40" fill="none" xmlns="http://www.w3.org/2000/svg"><rect x="25" y="25" width="15" height="15" rx="4" fill="#1C9D5B" fill-opacity=".4"/><path d="M12.519 7.736c1.245.83 4.483 2.49 7.471 2.49 2.989 0 6.227-1.66 7.472-2.49" stroke="#2581C4" stroke-width="1.5"/><path d="M20.613 27.038c-.623-.208-1.993-.125-2.49 1.868C17.5 31.396 17.5 37 13.762 37c-2.988 0-3.735-4.981-4.358-9.34-.615-4.306-1.868-6.226-4.358-9.34-1.676-2.094-1.489-6.948.622-9.962C7.73 5.418 10.775 4 13.764 4 17.5 4 17.5 5.245 20.613 5.245" stroke="#2581C4" stroke-width="1.5"/><path d="M19.99 27.038c.6-.208 1.922-.125 2.403 1.868.6 2.49.6 8.094 4.204 8.094 2.883 0 3.604-4.981 4.204-9.34.594-4.306 2.265-6.226 4.204-9.34 1.394-2.236 1.436-6.948-.6-9.962C32.418 5.418 29.48 4 26.597 4c-3.604 0-3.604 1.245-6.607 1.245M0 19.623h13.008m2.365 0h9.461m2.365 0h13.009" stroke="#2581C4" stroke-width="1.5"/><rect x="12.576" y="14.028" width="15.056" height="10.326" rx="1.25" stroke="#2581C4" stroke-width="1.5"/><path stroke="#2581C4" stroke-width="1.5" d="M18.488 16.826v4.73m3.548-4.73v4.73"/></svg>