<svg width="40" height="40" fill="none" xmlns="http://www.w3.org/2000/svg"><rect x="25" y="25" width="15" height="15" rx="4" fill="#1C9D5B" fill-opacity=".4"/><path d="M20.569 30.431c-.544-.18-1.74-.108-2.174 1.63-.543 2.175-.543 7.066-3.804 7.066-2.61 0-3.261-4.348-3.805-8.152-.537-3.759-1.63-5.435-3.804-8.152-1.463-1.829-1.3-6.065.543-8.696 1.798-2.567 2.629-4.242 4.346-2.246 2.72 3.161 5.412 4.064 8.129 4.064" stroke="#2581C4" stroke-width="1.5"/><path d="M20.026 30.432c.524-.182 1.677-.11 2.097 1.63.524 2.174.524 7.065 3.67 7.065 2.516 0 3.145-4.348 3.67-8.152.517-3.759 1.976-5.435 3.669-8.152 1.216-1.953 1.253-6.065-.524-8.696-1.734-2.567-2.483-3.327-4.479-1.794-2.337 1.794-5.482 3.613-8.104 3.613" stroke="#2581C4" stroke-width="1.5"/><path d="M20 6v5.5m-2.5-2L20 12l2.5-2.5" stroke="#2581C4" stroke-width="1.5" stroke-linejoin="round"/><path d="M27.425 1l.717.222a.75.75 0 00-1.1-.867l.383.646zM13 1l.382-.645a.75.75 0 00-1.099.866l.717-.22zM27.043.355c-1.807 1.07-4.193 1.732-6.83 1.732v1.5c2.878 0 5.533-.721 7.594-1.941l-.764-1.29zm-6.83 1.732c-2.637 0-5.024-.663-6.83-1.732l-.765 1.29c2.06 1.22 4.716 1.942 7.595 1.942v-1.5zm0 3.483A6.8 6.8 0 0113.717.78l-1.434.441a8.3 8.3 0 007.93 5.849v-1.5zM26.708.78a6.8 6.8 0 01-6.495 4.79v1.5a8.3 8.3 0 007.929-5.848L26.708.78z" fill="#2581C4"/></svg>