<svg width="40" height="40" fill="none" xmlns="http://www.w3.org/2000/svg"><g clip-path="url(#clip0_461_11795)"><mask id="a" fill="#fff"><path fill-rule="evenodd" clip-rule="evenodd" d="M1.824 14.667a27.1 27.1 0 00-.157 2.923C1.667 29.967 10.024 40 20.334 40 30.643 40 39 29.966 39 17.59c0-.991-.053-1.967-.157-2.923H1.824z"/></mask><path d="M1.824 14.667v-1.5H.478l-.145 1.338 1.491.162zm37.019 0l1.491-.162-.145-1.338h-1.346v1.5zM3.167 17.59c0-.937.05-1.858.149-2.761l-2.983-.324c-.11 1.01-.166 2.04-.166 3.085h3zM20.334 38.5c-9.236 0-17.167-9.094-17.167-20.91h-3c0 12.936 8.784 23.91 20.167 23.91v-3zM37.5 17.59c0 11.816-7.93 20.91-17.166 20.91v3C31.716 41.5 40.5 30.526 40.5 17.59h-3zm-.148-2.761c.098.902.148 1.824.148 2.76h3c0-1.044-.056-2.074-.166-3.084l-2.982.323zm1.49-1.662H1.825v3h37.019v-3z" fill="#2581C4" mask="url(#a)"/><mask id="b" style="mask-type:alpha" maskUnits="userSpaceOnUse" x="1" y="14" width="39" height="27"><path fill-rule="evenodd" clip-rule="evenodd" d="M1.824 14.667a27.1 27.1 0 00-.157 2.923C1.667 29.967 10.024 40 20.334 40 30.643 40 39 29.967 39 17.59c0-.99-.053-1.966-.157-2.923H1.824z" fill="#fff"/></mask><g mask="url(#b)"><path d="M10 15l-23 24 1.083 1.038 23-24L10 15zm6 0L-7 39l1.083 1.038 23-24L16 15zm6 0L-1 39l1.083 1.038 23-24L22 15zm6 0L5 39l1.083 1.038 23-24L28 15zm6 0L11 39l1.083 1.038 23-24L34 15zm6 0L17 39l1.083 1.038 23-24L40 15zm6 0L23 39l1.083 1.038 23-24L46 15z" fill="#2581C4"/></g><path d="M15.384 6.415c.828.537 2.981 1.61 4.969 1.61 1.987 0 4.14-1.073 4.969-1.61" stroke="#2581C4" stroke-width="1.5"/><path d="M19.11 20.1c.282-1.099.987-1.299 1.445-1.25.442-.049 1.122.151 1.395 1.25.4 1.61.4 5.233 2.796 5.233 1.917 0 2.396-3.22 2.796-6.037.394-2.784 1.506-4.026 2.796-6.038.927-1.446.955-4.492-.4-6.44C28.619 4.917 26.664 4 24.747 4c-2.313 0-2.394.75-4.19.802C18.692 4.75 18.607 4 16.21 4c-1.987 0-4.013.917-5.383 2.818-1.404 1.948-1.528 5.086-.414 6.44 1.656 2.012 2.49 3.254 2.899 6.038.414 2.817.91 6.037 2.898 6.037 2.485 0 2.485-3.622 2.899-5.232z" fill="#fff"/><path d="M19.11 20.1l-.727-.186.727.187zm-5.797-.804l-.742.109.742-.11zm-2.899-6.038l-.579.476.58-.476zm.414-6.44l-.608-.439.608.439zM21.95 20.1l-.728.18.728-.18zm5.592-.805l.742.105-.742-.105zm2.796-6.038l.631.405-.631-.405zm-.4-6.44l-.615.428.616-.428zm-8.94 11.362a1.795 1.795 0 00-.364-.076l-.157 1.491a.272.272 0 01.058.012l.462-1.427zm-.364-.076a1.937 1.937 0 00-1.287.319c-.45.304-.786.801-.964 1.49l1.453.374c.106-.41.263-.562.35-.62a.436.436 0 01.29-.072l.158-1.491zm-2.25 1.81c-.114.442-.2 1.023-.292 1.557-.096.561-.205 1.119-.368 1.616-.165.503-.365.884-.607 1.131-.219.225-.493.365-.906.365v1.5c.83 0 1.487-.312 1.98-.817.47-.482.761-1.108.959-1.712.2-.61.323-1.259.42-1.83.103-.598.173-1.073.266-1.437l-1.453-.373zm-2.173 4.67c-.475 0-.926-.356-1.335-1.471-.393-1.07-.611-2.497-.821-3.927l-1.484.219c.204 1.388.44 2.98.897 4.224.44 1.2 1.231 2.454 2.743 2.454v-1.5zm-2.156-5.398c-.214-1.453-.544-2.542-1.056-3.54-.507-.988-1.174-1.855-2.006-2.865l-1.158.953c.825 1.003 1.402 1.763 1.829 2.596.42.82.711 1.744.907 3.075l1.484-.219zm-3.062-6.405c-.387-.47-.63-1.373-.567-2.478.06-1.083.407-2.21 1.01-3.047l-1.216-.877c-.8 1.111-1.218 2.527-1.292 3.84-.072 1.288.18 2.632.907 3.515l1.158-.953zm.444-5.525c1.224-1.7 3.02-2.506 4.774-2.506v-1.5c-2.221 0-4.476 1.027-5.991 3.13l1.217.876zM16.21 4.75c1.096 0 1.631.166 2.125.34.551.192 1.138.432 2.198.462l.043-1.5c-.803-.022-1.19-.184-1.745-.379-.614-.215-1.32-.423-2.62-.423v1.5zm4.323.802c.075.002.153.003.232.003v-1.5c-.066 0-.129 0-.19-.003l-.042 1.5zm.057 14.052a.241.241 0 01.046-.009l-.163-1.491c-.127.014-.25.04-.36.078l.477 1.422zm.046-.009a.363.363 0 01.25.064c.078.055.232.207.335.622l1.456-.361c-.17-.684-.492-1.182-.932-1.49a1.863 1.863 0 00-1.272-.326l.163 1.491zm.585.686c.09.364.157.841.256 1.439.095.57.214 1.219.406 1.827.19.601.47 1.226.924 1.71a2.576 2.576 0 001.938.826v-1.5c-.382 0-.637-.133-.846-.355-.232-.247-.426-.628-.586-1.133-.157-.5-.263-1.058-.356-1.62-.088-.535-.17-1.114-.28-1.555l-1.456.361zm3.524 5.802c1.492 0 2.255-1.278 2.674-2.462.44-1.242.668-2.831.864-4.22l-1.485-.21c-.202 1.428-.413 2.857-.793 3.93-.4 1.13-.834 1.462-1.26 1.462v1.5zm3.538-6.682c.367-2.582 1.354-3.662 2.685-5.738l-1.263-.81c-1.248 1.948-2.483 3.352-2.907 6.337l1.485.21zm2.685-5.738c.574-.896.824-2.188.774-3.466-.05-1.292-.41-2.689-1.189-3.807l-1.231.856c.576.83.879 1.93.921 3.01.043 1.093-.184 2.046-.538 2.597l1.263.81zm-.415-7.273c-1.461-2.103-3.645-3.14-5.808-3.14v1.5c1.672 0 3.396.797 4.577 2.496l1.231-.856zm-5.808-3.14c-1.263 0-1.95.21-2.545.426-.536.195-.903.354-1.668.376l.044 1.5c1.033-.03 1.605-.273 2.136-.466.473-.171.983-.336 2.033-.336v-1.5zm-4.213.802a6.182 6.182 0 01-.181.003v1.5c.077 0 .152-.001.225-.003l-.044-1.5z" fill="#2581C4"/><rect y="25" width="15" height="15" rx="4" fill="#1C9D5B" fill-opacity=".4"/></g><defs><clipPath id="clip0_461_11795"><path fill="#fff" d="M0 0h40v40H0z"/></clipPath></defs></svg>