<svg width="40" height="40" fill="none" xmlns="http://www.w3.org/2000/svg"><rect width="15" height="15" rx="4" fill="#1C9D5B" fill-opacity=".4"/><path d="M13.009 7.548c1.182.788 4.257 2.365 7.095 2.365s5.913-1.577 7.096-2.365" stroke="#2581C4" stroke-width="1.5"/><path d="M20.695 25.878c-.591-.197-1.892-.119-2.365 1.773-.591 2.366-.591 7.687-4.14 7.687-2.837 0-3.547-4.73-4.138-8.87-.584-4.088-1.774-5.912-4.139-8.868-1.591-1.99-1.413-6.6.591-9.461C8.46 5.346 11.353 4 14.191 4c3.548 0 3.548 1.183 6.504 1.183" stroke="#2581C4" stroke-width="1.5"/><path d="M20.104 25.878c.57-.197 1.825-.119 2.281 1.773.57 2.366.57 7.687 3.993 7.687 2.738 0 3.422-4.73 3.992-8.87.564-4.088 2.15-5.912 3.993-8.868 1.324-2.125 1.364-6.599-.57-9.461C31.906 5.346 29.116 4 26.378 4c-3.422 0-3.422 1.183-6.274 1.183M14.5 17c-2.4 3.6-1 11.833 0 15.5-.5-2.5-.8-8.1 2-10.5" stroke="#2581C4" stroke-width="1.5"/><path d="M26.406 17c2.887 3.716 1.203 12.215 0 16 .601-2.58.962-8.361-2.406-10.839" stroke="#2581C4" stroke-width="1.5"/></svg>