<svg width="40" height="40" fill="none" xmlns="http://www.w3.org/2000/svg"><rect x="25" y="25" width="15" height="15" rx="4" fill="#1C9D5B" fill-opacity=".4"/><path d="M12.597 7.736c1.245.83 4.483 2.49 7.471 2.49 2.99 0 6.227-1.66 7.472-2.49" stroke="#2581C4" stroke-width="1.5"/><path d="M20.69 27.038c-.622-.208-1.992-.125-2.49 1.868-.622 2.49-.622 8.094-4.358 8.094-2.989 0-3.736-4.981-4.359-9.34-.615-4.306-1.868-6.226-4.358-9.34-1.676-2.094-1.488-6.948.622-9.962C7.807 5.418 10.854 4 13.843 4c3.736 0 3.736 1.245 6.849 1.245" stroke="#2581C4" stroke-width="1.5"/><path d="M20.068 27.038c.6-.208 1.922-.125 2.403 1.868.6 2.49.6 8.094 4.204 8.094 2.883 0 3.604-4.981 4.204-9.34.594-4.306 2.265-6.226 4.205-9.34 1.393-2.236 1.435-6.948-.601-9.962C32.496 5.418 29.558 4 26.675 4c-3.604 0-3.604 1.245-6.607 1.245" stroke="#2581C4" stroke-width="1.5"/><path d="M32.28 8.212l-8.11 8.108.708.707 8.108-8.108-.707-.707zm1.157 3.475l-8.108 8.108.707.707 8.108-8.108-.707-.707zm1.159 3.475l-5.792 5.792.707.707 5.792-5.792-.707-.707zm1.158 1.158l-5.791-8.108-.814.581 5.791 8.109.814-.582zm-1.158 4.634l-6.95-10.425-.833.555 6.95 10.425.833-.555zm-3.475 1.158l-5.791-9.267-.848.53 5.791 9.267.848-.53z" fill="#2581C4"/></svg>