<svg width="190" height="64" viewBox="0 0 190 64" fill="none" xmlns="http://www.w3.org/2000/svg">
<path fill-rule="evenodd" clip-rule="evenodd" d="M55.1869 58.4825L54.9239 58.2062C54.4976 58.623 54.0713 58.9672 53.6451 59.2299C53.4274 59.3613 53.2641 59.4293 53.1508 59.4293C53.0329 59.4293 52.9739 59.3477 52.9739 59.1847C52.9739 59.1122 53.1644 58.2696 53.5453 56.6525L54.3117 53.4273C54.5792 52.2677 54.7742 51.4931 54.8967 51.099C55.0191 50.7049 55.1506 50.4467 55.3002 50.3244C55.4091 50.2383 55.5678 50.193 55.7764 50.193C55.9895 50.193 56.2163 50.2157 56.4612 50.2564C56.7423 50.3063 56.96 50.3334 57.1142 50.3334C57.3454 50.3334 57.5268 50.2791 57.6493 50.1749C57.7717 50.0662 57.8352 49.9348 57.8352 49.7672C57.8352 49.6177 57.7717 49.4864 57.6447 49.3822C57.5223 49.278 57.35 49.2236 57.1278 49.2236C56.4838 49.2236 55.8671 49.3958 55.2866 49.7446C54.7017 50.0934 54.2527 50.578 53.9353 51.2077C53.7312 51.6244 53.4773 52.4443 53.1735 53.6628L52.3436 57.0421C52.0262 58.333 51.8674 59.1846 51.8674 59.5969C51.8674 59.8098 51.9173 59.9728 52.0216 60.0951C52.1259 60.2174 52.2574 60.2763 52.4161 60.2763C52.7699 60.2763 53.2188 60.0906 53.7675 59.7192C54.3117 59.3477 54.7878 58.9355 55.1869 58.4825ZM32.9893 60.0634L33.0982 59.624C32.7218 59.7101 32.3635 59.7554 32.0234 59.7554C31.7967 59.7554 31.511 59.7328 31.1664 59.692L31.5926 57.8393L32.0008 56.2176L32.6719 53.5541C32.944 52.4896 33.1072 51.8645 33.1571 51.6788C33.5516 51.7105 33.9235 51.7241 34.2727 51.7241C35.2476 51.7241 35.9414 51.5837 36.3586 51.3028C36.7713 51.022 36.9799 50.6868 36.9799 50.2972C36.9799 50.107 36.93 49.9575 36.8303 49.8442C36.7305 49.731 36.6035 49.6766 36.4493 49.6766C36.3224 49.6766 36.209 49.7265 36.1183 49.8171C36.0231 49.9077 35.9777 50.0209 35.9777 50.1613C35.9777 50.1859 35.9852 50.2403 35.9967 50.3244L36.0004 50.3516C36.014 50.4603 36.0231 50.5328 36.0231 50.569C36.0231 50.7502 35.955 50.8906 35.8235 50.9993C35.692 51.108 35.4608 51.1624 35.1388 51.1624C34.8123 51.1624 34.2953 51.1126 33.5743 51.022C32.5631 50.8906 31.8284 50.8227 31.3659 50.8227C30.3955 50.8227 29.5701 50.9857 28.8945 51.3074C28.2188 51.629 27.6837 52.0865 27.2982 52.6754C26.9128 53.2688 26.7178 53.8757 26.7178 54.5009C26.7178 54.9674 26.8175 55.3525 27.0125 55.6559C27.144 55.8598 27.3164 55.964 27.534 55.964C27.6791 55.964 27.8016 55.9187 27.9059 55.819C28.0102 55.7239 28.0601 55.6061 28.0601 55.4657C28.0601 55.3072 27.9694 55.1305 27.797 54.9402C27.6111 54.7319 27.4977 54.5824 27.4569 54.4918C27.398 54.3604 27.3708 54.211 27.3708 54.0524C27.3708 53.5994 27.5114 53.1782 27.7925 52.7886C28.0737 52.399 28.4909 52.1001 29.0486 51.8962C29.6019 51.6924 30.3592 51.5882 31.3069 51.5882C31.4611 51.5882 31.6879 51.5973 31.9917 51.6109L31.9373 51.8011L30.9532 55.8779C30.527 57.5811 30.2549 58.5731 30.1324 58.8585C30.01 59.1439 29.8649 59.3432 29.6971 59.461C29.4613 59.624 29.0804 59.7328 28.5634 59.7826L28.4546 60.2039C28.9987 60.1087 29.5293 60.0634 30.0417 60.0634C30.3365 60.0634 30.6721 60.077 31.0485 60.1087C31.5473 60.154 31.901 60.1767 32.1187 60.1767C32.3454 60.1767 32.6356 60.1404 32.9893 60.0634ZM39.8459 54.1883C39.5103 53.7897 39.0931 53.5904 38.5897 53.5904C37.4379 53.5904 36.472 54.1611 35.6966 55.2936C35.0799 56.2086 34.7715 57.2006 34.7715 58.2787C34.7715 58.8993 34.9393 59.3885 35.2748 59.7464C35.6104 60.1042 36.0548 60.2854 36.6035 60.2854C37.4969 60.2854 38.3403 59.8324 39.143 58.9265C39.9456 58.0205 40.3447 56.9968 40.3447 55.8598C40.3447 55.1441 40.1814 54.5869 39.8459 54.1883ZM36.6715 55.1033C37.0797 54.4827 37.5014 54.1702 37.9367 54.1702C38.2496 54.1702 38.5127 54.3333 38.7167 54.6594C38.9253 54.9855 39.0296 55.5337 39.0296 56.3037C39.0296 57.332 38.8074 58.1881 38.3539 58.8812C38.0002 59.4157 37.6057 59.683 37.1749 59.683C36.8665 59.683 36.6217 59.5425 36.4357 59.2617C36.1863 58.8766 36.0594 58.3512 36.0594 57.6853C36.0594 56.5891 36.2634 55.7284 36.6715 55.1033ZM41.2743 55.5019L40.975 55.1939C41.4421 54.6367 41.9092 54.22 42.3672 53.9573C42.8297 53.69 43.2288 53.5587 43.5689 53.5587C43.6958 53.5587 43.8001 53.5904 43.8727 53.6538C43.9453 53.7172 43.9861 53.8123 43.9861 53.9346C43.9861 54.0841 43.9679 54.2381 43.9362 54.3921C43.9044 54.5507 43.8001 54.9176 43.6233 55.5019C44.4078 54.7183 44.9474 54.2336 45.2331 54.0479C45.7138 53.7353 46.1582 53.5768 46.5573 53.5768C46.8203 53.5768 47.0379 53.6991 47.2193 53.9482C47.4007 54.1928 47.4869 54.5643 47.4869 55.0625C47.4869 56.3037 47.1014 57.4815 46.326 58.6003C45.5505 59.7192 44.6935 60.2763 43.7548 60.2763C43.3875 60.2763 43.0156 60.1767 42.6483 59.9774L41.9908 62.5141C41.95 62.6681 41.9273 62.7949 41.9273 62.89C41.9273 63.0803 41.9999 63.2162 42.145 63.2977C42.3672 63.4245 42.8297 63.5287 43.5371 63.6148L43.4374 63.9998C42.612 63.9319 41.959 63.9002 41.4874 63.9002C40.9977 63.9002 40.3674 63.9319 39.5919 63.9998L39.6917 63.6148C40.0817 63.574 40.3674 63.4653 40.5442 63.2932C40.7211 63.1165 40.8616 62.8085 40.9705 62.36L42.3626 56.5211C42.6256 55.434 42.7572 54.827 42.7572 54.7047C42.7572 54.5733 42.6937 54.5054 42.5667 54.5054C42.34 54.5099 41.9092 54.8406 41.2743 55.5019ZM42.8342 59.1303C43.2378 59.5335 43.655 59.7373 44.0813 59.7373C44.698 59.7373 45.2376 59.2571 45.7002 58.2968C46.1627 57.3365 46.3985 56.4034 46.3985 55.4883C46.3985 55.1939 46.3351 54.9719 46.2035 54.8225C46.072 54.673 45.8952 54.596 45.6775 54.596C45.4326 54.596 45.156 54.7183 44.8477 54.9584C44.3715 55.3343 44.0087 55.7058 43.7548 56.0727C43.5734 56.3399 43.4056 56.802 43.2469 57.4588L42.8342 59.1303ZM59.6173 58.1337L59.8713 58.4735C58.6152 59.6693 57.5359 60.2673 56.638 60.2673C56.2752 60.2673 55.9941 60.145 55.8036 59.8958C55.6132 59.6467 55.5134 59.2526 55.5134 58.709C55.5134 57.6128 55.849 56.5211 56.5156 55.4295C57.2638 54.1928 58.1617 53.5768 59.2047 53.5768C59.5675 53.5768 59.8486 53.6674 60.0391 53.8486C60.2295 54.0298 60.3293 54.2789 60.3293 54.6005C60.3293 54.9357 60.2159 55.2619 59.9847 55.5835C59.7534 55.9051 59.3407 56.2448 58.7467 56.5891C58.4474 56.7567 57.8125 57.0647 56.8375 57.5041C56.7922 57.7804 56.7695 58.0432 56.7695 58.2968C56.7695 58.6592 56.8285 58.9129 56.9418 59.0578C57.0552 59.2028 57.2275 59.2753 57.4452 59.2753C57.6538 59.2753 57.8851 59.2164 58.139 59.0986C58.4701 58.94 58.9643 58.6184 59.6173 58.1337ZM56.9237 57.0149C57.749 56.6434 58.3703 56.2494 58.7875 55.8236C59.0686 55.5246 59.2092 55.2302 59.2092 54.9403C59.2092 54.7183 59.1503 54.5462 59.0369 54.4148C58.9235 54.2834 58.7693 54.22 58.588 54.22C58.3975 54.22 58.2116 54.2925 58.0347 54.4374C57.7944 54.6277 57.5903 54.9131 57.4271 55.2981C57.1867 55.8553 57.0189 56.4305 56.9237 57.0149ZM63.753 55.9957C63.9027 55.511 64.1793 54.9538 64.5738 54.3242C64.8867 54.1928 65.0409 54.0524 65.0363 53.9029C65.0363 53.8259 65.0046 53.7535 64.9366 53.6855C64.8731 53.6176 64.796 53.5859 64.7144 53.5859C64.6237 53.5859 64.4151 53.6583 64.0886 53.8033C63.2769 53.7897 62.6284 53.8531 62.1341 53.9935C61.6444 54.134 61.2952 54.3242 61.0956 54.5688C60.8961 54.8134 60.7964 55.0852 60.7964 55.3887C60.7964 55.579 60.8462 55.7284 60.9369 55.8417C61.0322 55.9549 61.1455 56.0093 61.277 56.0093C61.3813 56.0093 61.4675 55.9776 61.5355 55.9142C61.6035 55.8507 61.6398 55.7783 61.6398 55.6967C61.6398 55.6152 61.6171 55.5155 61.5718 55.3978C61.4992 55.2256 61.463 55.1079 61.463 55.0354C61.463 54.8542 61.6035 54.6956 61.8802 54.5643C62.2701 54.3786 62.9186 54.2789 63.821 54.2653C63.3177 54.6413 62.9413 55.0897 62.6828 55.6061C62.4243 56.118 62.2974 56.6525 62.2974 57.2006C62.2974 57.6174 62.4062 58.3557 62.6148 59.4157C62.7236 59.9457 62.7962 60.3307 62.8325 60.5708C64.2926 59.8822 65.4989 58.9038 66.4466 57.6309C67.2176 56.5936 67.6075 55.5291 67.6075 54.4375C67.6075 54.0887 67.5577 53.8395 67.4534 53.6946C67.3491 53.5496 67.213 53.4771 67.0452 53.4771C66.9183 53.4771 66.8049 53.527 66.7142 53.6266C66.619 53.7263 66.5736 53.844 66.5736 53.9754C66.5736 54.0977 66.6371 54.288 66.7641 54.5462C66.882 54.7862 66.9409 54.9856 66.9409 55.1441C66.9409 55.6877 66.7051 56.3354 66.2335 57.0874C65.7574 57.8393 64.9547 58.6456 63.821 59.5063C63.626 58.5686 63.5263 57.8756 63.5263 57.4362C63.5263 56.956 63.6034 56.4759 63.753 55.9957ZM72.0742 58.1337L72.3282 58.4735C71.072 59.6693 69.9928 60.2673 69.0949 60.2673C68.7321 60.2673 68.451 60.145 68.2605 59.8958C68.0701 59.6467 67.9703 59.2526 67.9703 58.709C67.9703 57.6128 68.3059 56.5211 68.9725 55.4295C69.7207 54.1928 70.6186 53.5768 71.6616 53.5768C72.0243 53.5768 72.3055 53.6674 72.496 53.8486C72.6864 54.0298 72.7862 54.2789 72.7862 54.6005C72.7862 54.9357 72.6728 55.2619 72.4415 55.5835C72.2103 55.9051 71.7976 56.2448 71.2036 56.5891C70.9043 56.7567 70.2694 57.0647 69.2944 57.5041C69.2491 57.7804 69.2264 58.0432 69.2264 58.2968C69.2264 58.6592 69.2854 58.9129 69.3987 59.0578C69.5121 59.2028 69.6844 59.2753 69.9021 59.2753C70.1107 59.2753 70.342 59.2164 70.5959 59.0986C70.9269 58.94 71.4212 58.6184 72.0742 58.1337ZM69.3806 57.0149C70.2059 56.6434 70.8272 56.2494 71.2444 55.8236C71.5255 55.5246 71.6661 55.2302 71.6661 54.9403C71.6661 54.7183 71.6072 54.5462 71.4938 54.4148C71.3804 54.2834 71.2262 54.22 71.0448 54.22C70.8544 54.22 70.6685 54.2925 70.4916 54.4374C70.2513 54.6277 70.0472 54.9131 69.884 55.2981C69.6436 55.8553 69.4758 56.4305 69.3806 57.0149ZM76.9445 58.4825L76.6815 58.2062C76.2553 58.623 75.829 58.9672 75.4027 59.2299C75.1851 59.3613 75.0218 59.4293 74.9085 59.4293C74.7906 59.4293 74.7316 59.3477 74.7316 59.1847C74.7316 59.1122 74.9221 58.2696 75.303 56.6525L76.0693 53.4273C76.3369 52.2677 76.5319 51.4931 76.6543 51.099C76.7768 50.7049 76.9083 50.4467 77.0579 50.3244C77.1668 50.2383 77.3255 50.193 77.5341 50.193C77.7472 50.193 77.9739 50.2157 78.2188 50.2564C78.5 50.3063 78.7176 50.3334 78.8718 50.3334C79.1031 50.3334 79.2845 50.2791 79.4069 50.1749C79.5293 50.0662 79.5928 49.9348 79.5928 49.7672C79.5928 49.6177 79.5293 49.4864 79.4024 49.3822C79.2799 49.278 79.1076 49.2236 78.8854 49.2236C78.2415 49.2236 77.6248 49.3958 77.0443 49.7446C76.4593 50.0934 76.0104 50.578 75.693 51.2077C75.4889 51.6244 75.235 52.4443 74.9311 53.6628L74.1013 57.0421C73.7838 58.333 73.6251 59.1846 73.6251 59.5969C73.6251 59.8098 73.675 59.9728 73.7793 60.0951C73.8836 60.2174 74.0151 60.2763 74.1738 60.2763C74.5275 60.2763 74.9765 60.0906 75.5252 59.7192C76.0693 59.3477 76.5455 58.9355 76.9445 58.4825ZM85.1116 58.392L85.2749 58.8404C84.055 59.8007 83.0211 60.2809 82.1777 60.2809C81.7287 60.2809 81.4067 60.1223 81.2027 59.8053C80.9986 59.4882 80.8989 59.085 80.8989 58.5958C80.8989 57.785 81.1165 56.9515 81.5473 56.0954C81.9781 55.2392 82.5042 54.5824 83.1164 54.1249C83.597 53.7716 84.1412 53.5949 84.7489 53.5949C85.1298 53.5949 85.4155 53.6674 85.6105 53.8123C85.8055 53.9573 85.9052 54.1294 85.9052 54.3333C85.9052 54.4918 85.8553 54.6232 85.751 54.7228C85.6467 54.8225 85.5062 54.8723 85.3202 54.8723C85.1389 54.8723 84.9076 54.7908 84.6264 54.6277C84.3317 54.4556 84.0913 54.365 83.8963 54.365C83.6469 54.365 83.393 54.4782 83.1436 54.7047C82.8941 54.9312 82.6583 55.3751 82.4316 56.0319C82.2049 56.6888 82.0915 57.3456 82.0915 58.0069C82.0915 58.4916 82.1867 58.8721 82.3772 59.1348C82.5178 59.3387 82.7128 59.4429 82.9622 59.4429C83.5653 59.4383 84.2818 59.0895 85.1116 58.392ZM89.7915 58.4825L89.5285 58.2062C89.1022 58.623 88.676 58.9672 88.2497 59.2299C88.032 59.3613 87.8688 59.4293 87.7554 59.4293C87.6375 59.4293 87.5785 59.3477 87.5785 59.1847C87.5785 59.1122 87.769 58.2696 88.1499 56.6525L88.9163 53.4273C89.1839 52.2677 89.3788 51.4931 89.5013 51.099C89.6237 50.7049 89.7552 50.4467 89.9049 50.3244C90.0137 50.2383 90.1724 50.193 90.381 50.193C90.5942 50.193 90.8209 50.2157 91.0658 50.2564C91.3469 50.3063 91.5646 50.3334 91.7188 50.3334C91.9501 50.3334 92.1315 50.2791 92.2539 50.1749C92.3763 50.0662 92.4398 49.9348 92.4398 49.7672C92.4398 49.6177 92.3763 49.4864 92.2494 49.3822C92.1269 49.278 91.9546 49.2236 91.7324 49.2236C91.0885 49.2236 90.4717 49.3958 89.8913 49.7446C89.3063 50.0934 88.8573 50.578 88.5399 51.2077C88.3358 51.6244 88.0819 52.4443 87.7781 53.6628L86.9482 57.0421C86.6308 58.333 86.4721 59.1846 86.4721 59.5969C86.4721 59.8098 86.5219 59.9728 86.6263 60.0951C86.7305 60.2174 86.8621 60.2763 87.0208 60.2763C87.3745 60.2763 87.8234 60.0906 88.3721 59.7192C88.9163 59.3477 89.3925 58.9355 89.7915 58.4825ZM90.4309 55.3751L90.0908 55.1124C90.6032 54.5461 91.0703 54.1475 91.4966 53.9074C91.9183 53.6674 92.2811 53.5496 92.5758 53.5496C92.7391 53.5496 92.866 53.5858 92.9522 53.6583C93.0384 53.7308 93.0837 53.8259 93.0837 53.9527C93.0837 54.1022 92.9159 54.7319 92.5849 55.8462C92.0407 57.6672 91.7686 58.7634 91.7686 59.1393C91.7686 59.2118 91.7868 59.2707 91.8231 59.3205C91.8593 59.3704 91.8956 59.393 91.9364 59.393C92.0997 59.393 92.5214 59.0759 93.2016 58.4372L93.5009 58.7317C92.798 59.393 92.2856 59.8143 91.9591 60C91.6371 60.1857 91.3696 60.2763 91.1655 60.2763C90.9841 60.2763 90.8436 60.222 90.7393 60.1087C90.635 59.9955 90.5805 59.8415 90.5805 59.6376C90.5805 58.9944 90.966 57.4316 91.7369 54.9357C91.7732 54.8179 91.7913 54.7137 91.7913 54.6186C91.7913 54.5144 91.746 54.4646 91.6507 54.4646C91.5464 54.4646 91.4331 54.5054 91.3016 54.5869C91.1746 54.673 90.8844 54.9357 90.4309 55.3751ZM93.4556 50.2836C93.6143 50.2836 93.7458 50.338 93.8501 50.4421C93.9544 50.5463 94.0042 50.6822 94.0042 50.8453C94.0042 51.0718 93.9272 51.2711 93.7684 51.4432C93.6097 51.6154 93.4374 51.7014 93.2424 51.7014C93.0882 51.7014 92.9613 51.6471 92.857 51.5384C92.7527 51.4296 92.7028 51.2892 92.7028 51.1171C92.7028 50.8861 92.7753 50.6913 92.925 50.5282C93.0746 50.3651 93.2515 50.2836 93.4556 50.2836ZM94.0133 55.135L94.2763 55.4023C94.5529 55.0943 94.8522 54.8361 95.1606 54.6187C95.3148 54.5099 95.4327 54.4556 95.5143 54.4556C95.6186 54.4556 95.6685 54.5235 95.6685 54.664C95.6685 54.7138 95.6549 54.7998 95.6277 54.9176L94.9429 57.8439C94.7842 58.546 94.5983 59.2843 94.3806 60.0544H95.5279L96.1537 57.3637C96.2943 56.7567 96.4666 56.3128 96.6707 56.0365C96.9972 55.6061 97.4007 55.2302 97.8814 54.9131C98.2034 54.7002 98.4709 54.5915 98.675 54.5915C98.8655 54.5915 98.9607 54.673 98.9607 54.8316C98.9607 54.9403 98.87 55.3162 98.6977 55.964C98.1263 57.7759 97.8406 58.9129 97.8406 59.3704C97.8406 59.6875 97.895 59.9185 98.0039 60.0589C98.1127 60.1994 98.2623 60.2718 98.4573 60.2718C98.6705 60.2718 98.938 60.1677 99.26 59.9638C99.7679 59.6467 100.258 59.23 100.729 58.7091L100.539 58.4327C100.317 58.6094 100.09 58.7997 99.8631 59.0035C99.5411 59.2889 99.3099 59.4338 99.1602 59.4338C99.1013 59.4338 99.0605 59.4112 99.0287 59.3568C98.997 59.307 98.9834 59.2254 98.9834 59.1213C98.9834 58.777 99.1466 58.0839 99.4731 57.0376C99.8223 55.9187 100.035 55.1939 100.117 54.8587C100.162 54.6594 100.185 54.4782 100.185 54.3197C100.185 54.0796 100.131 53.8939 100.017 53.767C99.9085 53.6402 99.7497 53.5768 99.5502 53.5768C99.2781 53.5768 98.9335 53.7082 98.5118 53.9709C97.7227 54.4737 97.0652 55.0173 96.5437 55.5971L96.8929 54.0479C96.9201 53.9301 96.9337 53.8486 96.9337 53.8033C96.9337 53.7399 96.9065 53.6855 96.843 53.6402C96.7795 53.5949 96.6979 53.5723 96.589 53.5723C96.3124 53.5723 95.9769 53.6719 95.5869 53.8803C95.1969 54.0887 94.6708 54.5054 94.0133 55.135ZM101.627 55.3751L101.287 55.1124C101.8 54.5461 102.267 54.1475 102.693 53.9074C103.115 53.6674 103.477 53.5496 103.772 53.5496C103.935 53.5496 104.062 53.5858 104.149 53.6583C104.235 53.7308 104.28 53.8259 104.28 53.9527C104.28 54.1022 104.112 54.7319 103.781 55.8462C103.237 57.6672 102.965 58.7634 102.965 59.1393C102.965 59.2118 102.983 59.2707 103.019 59.3205C103.056 59.3704 103.092 59.393 103.133 59.393C103.296 59.393 103.718 59.0759 104.398 58.4372L104.697 58.7317C103.994 59.393 103.482 59.8143 103.155 60C102.833 60.1857 102.566 60.2763 102.362 60.2763C102.18 60.2763 102.04 60.222 101.936 60.1087C101.831 59.9955 101.777 59.8415 101.777 59.6376C101.777 58.9944 102.162 57.4316 102.933 54.9357C102.97 54.8179 102.988 54.7137 102.988 54.6186C102.988 54.5144 102.942 54.4646 102.847 54.4646C102.743 54.4646 102.629 54.5054 102.498 54.5869C102.366 54.673 102.076 54.9357 101.627 55.3751ZM104.652 50.2836C104.811 50.2836 104.942 50.338 105.046 50.4421C105.151 50.5463 105.201 50.6822 105.201 50.8453C105.201 51.0718 105.123 51.2711 104.965 51.4432C104.806 51.6154 104.634 51.7014 104.439 51.7014C104.285 51.7014 104.158 51.6471 104.053 51.5384C103.949 51.4296 103.899 51.2892 103.899 51.1171C103.899 50.8861 103.972 50.6913 104.121 50.5282C104.271 50.3651 104.448 50.2836 104.652 50.2836ZM109.631 58.8404L109.468 58.392C108.633 59.0895 107.921 59.4383 107.318 59.4429C107.069 59.4429 106.874 59.3387 106.733 59.1348C106.543 58.8721 106.448 58.4916 106.448 58.0069C106.448 57.3456 106.561 56.6888 106.788 56.0319C107.014 55.3751 107.25 54.9312 107.5 54.7047C107.749 54.4782 108.003 54.365 108.252 54.365C108.447 54.365 108.688 54.4556 108.983 54.6277C109.264 54.7908 109.495 54.8723 109.676 54.8723C109.862 54.8723 110.003 54.8225 110.107 54.7228C110.211 54.6232 110.261 54.4918 110.261 54.3333C110.261 54.1294 110.162 53.9573 109.967 53.8123C109.772 53.6674 109.486 53.5949 109.105 53.5949C108.497 53.5949 107.953 53.7716 107.472 54.1249C106.86 54.5824 106.334 55.2392 105.903 56.0954C105.473 56.9515 105.255 57.785 105.255 58.5958C105.255 59.085 105.355 59.4882 105.559 59.8053C105.763 60.1223 106.085 60.2809 106.534 60.2809C107.377 60.2809 108.411 59.8007 109.631 58.8404Z" fill="#657F92"/>
<path fill-rule="evenodd" clip-rule="evenodd" d="M135.012 18.7116L134.835 19.468C135.08 19.4318 135.243 19.4137 135.333 19.4182C135.542 19.4182 135.705 19.4726 135.823 19.5858C135.941 19.6991 136 19.8485 136 20.0343C136 20.2336 135.968 20.4737 135.896 20.7545L134.49 26.4802L133.279 31.0643C132.694 32.8672 132.232 34.0358 131.892 34.5749C131.706 34.8784 131.479 35.0958 131.216 35.2226C130.953 35.3495 130.286 35.4446 129.207 35.5035L128.803 36.3642C129.883 36.3279 130.685 36.3098 131.211 36.3098C132.35 36.3098 133.547 36.3551 134.812 36.4502C136.308 36.568 137.365 36.6269 137.973 36.6269C139.859 36.6269 141.746 36.1965 143.637 35.3359C145.528 34.4752 147.142 33.0302 148.475 31.0009C149.808 28.9715 150.475 26.7429 150.475 24.3194C150.475 21.7103 149.514 19.5405 147.6 17.8147C145.686 16.0888 143.111 15.2236 139.877 15.2236C137.256 15.2236 134.871 15.7808 132.726 16.8906C130.581 18.0004 128.908 19.4952 127.706 21.3751C126.504 23.2549 125.906 25.2028 125.906 27.214C125.906 28.4189 126.309 29.5966 127.107 30.7427C127.697 31.5626 128.3 31.9703 128.926 31.9703C129.207 31.9703 129.456 31.8615 129.674 31.6441C129.892 31.4267 130.001 31.1775 130.001 30.8967C130.001 30.6747 129.946 30.489 129.833 30.335C129.719 30.1855 129.479 30.0043 129.103 29.7914C127.792 29.0893 127.135 27.9886 127.135 26.4892C127.135 24.9536 127.67 23.3773 128.74 21.7556C129.81 20.1385 131.266 18.8339 133.102 17.8509C134.939 16.8679 136.893 16.3742 138.966 16.3742C141.424 16.3742 143.414 17.1669 144.938 18.7523C146.457 20.3423 147.219 22.4396 147.219 25.0487C147.219 27.0373 146.77 28.8583 145.877 30.5071C144.979 32.156 143.773 33.4107 142.249 34.2714C140.725 35.132 138.943 35.5624 136.893 35.5624C136.118 35.5624 135.229 35.4627 134.222 35.2634C135.265 33.4651 136.204 30.7925 137.034 27.2593L138.195 22.3626C138.58 20.7092 139.025 19.237 139.528 17.937C137.791 18.3492 136.286 18.6074 135.012 18.7116ZM161.268 32.7268L160.687 31.9522C159.2 33.062 158.071 33.8003 157.3 34.1718C156.724 34.439 156.198 34.5749 155.717 34.5749C155.214 34.5749 154.828 34.4073 154.565 34.0812C154.302 33.7505 154.171 33.1707 154.171 32.3417C154.171 31.771 154.225 31.1685 154.329 30.5343C156.556 29.5287 158.007 28.8311 158.687 28.4461C160.048 27.6489 160.991 26.8833 161.517 26.145C162.043 25.4066 162.306 24.6592 162.306 23.8982C162.306 23.1735 162.088 22.6027 161.649 22.186C161.209 21.7692 160.569 21.5609 159.739 21.5609C157.359 21.5609 155.314 22.9696 153.604 25.7917C152.08 28.274 151.318 30.7654 151.318 33.2703C151.318 34.5115 151.536 35.4129 151.976 35.9746C152.416 36.5363 153.051 36.8172 153.885 36.8172C155.935 36.8172 158.397 35.4537 161.268 32.7268ZM158.792 26.684C157.844 27.6579 156.425 28.5639 154.538 29.4064C154.76 28.0701 155.141 26.761 155.681 25.4701C156.053 24.5913 156.52 23.939 157.068 23.5041C157.477 23.1735 157.898 23.0104 158.334 23.0104C158.755 23.0104 159.1 23.1599 159.363 23.4588C159.626 23.7578 159.758 24.1609 159.758 24.6637C159.758 25.3342 159.436 26.0046 158.792 26.684ZM164.061 25.7192L163.462 25.1031C164.963 23.6672 166.161 22.7159 167.049 22.2448C167.943 21.7737 168.705 21.5382 169.335 21.5382C169.58 21.5382 169.775 21.5925 169.915 21.6967C170.056 21.8009 170.129 21.9232 170.129 22.0636C170.129 22.1678 170.101 22.3581 170.042 22.6253L169.249 26.1586C170.441 24.8359 171.938 23.5992 173.743 22.4487C174.704 21.8507 175.493 21.5518 176.11 21.5518C176.568 21.5518 176.922 21.6967 177.18 21.9912C177.439 22.2856 177.566 22.7069 177.566 23.255C177.566 23.6173 177.511 24.0296 177.407 24.4825C177.221 25.2435 176.731 26.9014 175.938 29.4517C175.189 31.8389 174.817 33.4243 174.817 34.208C174.817 34.4481 174.854 34.6293 174.922 34.747C174.99 34.8693 175.09 34.9282 175.221 34.9282C175.561 34.9282 176.092 34.6021 176.822 33.9453C177.339 33.4787 177.851 33.0438 178.368 32.6452L178.808 33.2794C177.729 34.4662 176.613 35.422 175.452 36.1467C174.713 36.6133 174.106 36.8443 173.625 36.8443C173.18 36.8443 172.836 36.6812 172.586 36.3596C172.342 36.038 172.219 35.5126 172.219 34.7878C172.219 33.7459 172.868 31.1549 174.169 27.0102C174.568 25.5335 174.768 24.6773 174.768 24.4282C174.768 24.0658 174.55 23.8846 174.119 23.8846C173.652 23.8846 173.049 24.1292 172.31 24.623C171.208 25.3477 170.287 26.2039 169.548 27.1914C169.081 27.8255 168.687 28.8311 168.369 30.2172L166.945 36.3551H164.324C164.818 34.5975 165.245 32.917 165.607 31.3089L167.172 24.6275C167.231 24.3602 167.258 24.1655 167.258 24.0477C167.258 23.7306 167.14 23.5721 166.904 23.5721C166.718 23.5721 166.446 23.6944 166.097 23.9435C165.372 24.4327 164.691 25.0216 164.061 25.7192ZM187.619 17.8192L184.83 18.8883L183.846 22.7295H180.994L180.676 23.9752H183.524L181.733 30.9647C181.289 32.6996 181.066 33.986 181.066 34.8286C181.066 35.5443 181.189 36.0562 181.443 36.3732C181.697 36.6903 182.037 36.8489 182.472 36.8489C182.998 36.8489 183.697 36.636 184.563 36.2011C185.433 35.7662 187.147 34.584 189.714 32.6543L189.048 31.848C188.159 32.5727 187.22 33.2205 186.236 33.7958C185.488 34.2261 184.93 34.4436 184.567 34.4436C184.331 34.4436 184.15 34.3711 184.014 34.2306C183.878 34.0902 183.81 33.8637 183.81 33.5467C183.81 32.8581 184.055 31.6306 184.54 29.8639L186.073 23.9797H189.719L190 22.7341H186.358L187.619 17.8192Z" fill="#657F92"/>
<path fill-rule="evenodd" clip-rule="evenodd" d="M101.378 4.60997C84.6235 13.7187 69.6272 10.436 54.397 7.10205C46.1631 5.29961 37.8607 3.4822 29.1753 3.59983C24.9852 3.65419 20.845 4.70057 17.2444 6.83863C17.0705 6.94028 16.8989 7.04668 16.7279 7.15266C16.6627 7.19309 16.5976 7.23346 16.5325 7.27349C11.6304 10.3719 8.09333 15.2776 7.08208 20.9806C6.13432 26.3303 6.94604 31.9472 10.134 36.4589C15.7933 44.1731 26.9397 42.7644 34.2134 38.2436C22.804 50.918 6.12978 45.6861 1.0418 30.0628C-3.87839 14.9696 9.41294 1.14016 24.4501 0.0348894C34.8143 -0.317007 44.6393 2.05387 54.3705 4.40214C69.6924 8.09947 84.7819 11.7407 101.378 4.60997ZM39.875 11.8923C38.622 13.1319 37.3252 14.4148 35.8596 15.2414C37.1475 14.8518 38.3854 14.3717 39.4965 13.5925C39.8744 13.3271 40.2406 13.0379 40.6032 12.7514L40.6033 12.7514C41.5157 12.0307 42.406 11.3275 43.4054 11.0649C48.4707 9.74222 50.593 17.6648 49.8311 21.6737C52.9828 17.2118 51.4727 7.14212 44.9109 8.35611C43.1156 8.6864 41.5336 10.2514 39.875 11.8923ZM110.746 25.3337H107.545L107.304 26.2895H110.515L107.794 37.2063C107.391 38.8189 106.992 39.8336 106.588 40.2503C106.189 40.6625 105.545 40.8709 104.661 40.8709C104.089 40.8709 103.491 40.8301 102.865 40.7486C102.498 40.7033 102.221 40.6806 102.035 40.6806C101.659 40.6806 101.368 40.7667 101.169 40.9298C100.969 41.0929 100.87 41.3148 100.87 41.5911C100.87 41.9127 101.015 42.1845 101.305 42.402C101.595 42.6194 102.021 42.7281 102.584 42.7281C104.262 42.7281 105.817 42.0577 107.25 40.7214C108.683 39.3806 109.726 37.4147 110.379 34.8191L112.474 26.2805H116.07L116.283 25.3292H112.733L113.404 22.48C113.689 21.2433 114.066 20.2604 114.542 19.5311C115.014 18.8018 115.549 18.4394 116.138 18.4394C116.378 18.4394 116.714 18.4847 117.145 18.5753C118.016 18.761 118.605 18.8561 118.918 18.8561C119.222 18.8561 119.471 18.7655 119.657 18.5889C119.843 18.4077 119.938 18.1857 119.938 17.9185C119.938 17.624 119.798 17.3704 119.521 17.1575C119.244 16.9446 118.832 16.8359 118.288 16.8359C117.326 16.8359 116.297 17.1484 115.209 17.778C114.12 18.4077 113.236 19.2684 112.556 20.3555C111.875 21.4426 111.272 23.1051 110.746 25.3337ZM72.3098 32.971L71.8564 32.4908C71.1127 33.2156 70.3735 33.809 69.6298 34.2665C69.2534 34.4975 68.9677 34.6153 68.7727 34.6153C68.5687 34.6153 68.4644 34.4703 68.4644 34.1849C68.4644 34.0581 68.7954 32.5905 69.4575 29.782L70.7952 24.1741C71.2668 22.1584 71.6069 20.8085 71.8156 20.1245C72.0287 19.4405 72.26 18.992 72.5184 18.7791C72.7044 18.6297 72.981 18.5526 73.3438 18.5526C73.7065 18.5526 74.1056 18.5889 74.5319 18.6614C75.0216 18.752 75.398 18.7973 75.6656 18.7973C76.0737 18.7973 76.3866 18.7067 76.5997 18.5209C76.8128 18.3397 76.9217 18.1042 76.9217 17.8143C76.9217 17.5561 76.8128 17.3341 76.5952 17.1484C76.3775 16.9627 76.0782 16.8721 75.6928 16.8721C74.5681 16.8721 73.4979 17.1756 72.4867 17.7781C71.4754 18.3805 70.6909 19.2321 70.1377 20.3238C69.7794 21.044 69.3396 22.4664 68.8135 24.5909L67.367 30.466C66.8137 32.7173 66.5371 34.194 66.5371 34.9097C66.5371 35.2766 66.6278 35.5665 66.8047 35.7749C66.9861 35.9833 67.2128 36.0874 67.4894 36.0874C68.1016 36.0874 68.8861 35.7658 69.8384 35.1181C70.7907 34.4703 71.6115 33.7546 72.3098 32.971ZM52.6971 35.1136L52.5248 35.8746C52.0713 35.9289 51.7221 35.9561 51.4818 35.9561C51.0963 35.9561 50.5884 35.9244 49.9536 35.861C49.2733 35.7976 48.6929 35.7659 48.2122 35.7659C47.8268 35.7659 47.4322 35.8293 47.0196 35.9516C47.3824 34.9233 47.7996 33.4964 48.2757 31.6709L49.3051 27.653L45.6818 27.7889C45.047 27.8251 44.394 27.875 43.7228 27.9339C43.1197 30.3165 42.4939 32.0786 41.85 33.2201C41.206 34.3616 40.4714 35.2042 39.6461 35.7432C38.8208 36.2823 38.0272 36.554 37.2699 36.554C36.5307 36.554 35.8958 36.3774 35.3653 36.0195C34.9798 35.7704 34.7894 35.4578 34.7894 35.0819C34.7894 34.8599 34.8665 34.6697 35.0161 34.5111C35.1658 34.3571 35.3517 34.2756 35.5648 34.2756C35.914 34.2756 36.2722 34.5202 36.635 35.0094C36.8572 35.3038 37.0386 35.4941 37.1792 35.5801C37.3198 35.6662 37.4694 35.707 37.6417 35.707C38.3401 35.707 38.9931 35.1453 39.6053 34.0219C40.2175 32.8985 41.1108 30.1172 42.2898 25.6871L43.6004 20.7904C41.8137 20.7904 40.4714 21.0848 39.5735 21.6737C38.6756 22.2626 38.2267 22.9284 38.2267 23.6668C38.2267 23.9159 38.3491 24.233 38.5895 24.6181C38.8026 24.9759 38.9115 25.2658 38.9115 25.4878C38.9115 25.746 38.8298 25.9589 38.662 26.1219C38.4988 26.285 38.2902 26.3711 38.0408 26.3711C37.7279 26.3711 37.4603 26.2216 37.2381 25.9226C37.0159 25.6237 36.9026 25.1888 36.9026 24.6181C36.9026 23.5853 37.2789 22.6703 38.0272 21.873C38.7754 21.0803 39.8683 20.5186 41.2967 20.1879C42.1175 20.0022 43.7546 19.9071 46.2124 19.9071C45.5503 21.2117 44.8112 23.5128 43.9949 26.8105C46.3575 26.8105 48.2213 26.7244 49.5817 26.5568C50.3526 23.9703 51.0328 22.1674 51.6223 21.1437C52.2119 20.1245 52.8739 19.3862 53.6131 18.9286C54.3477 18.4757 55.173 18.2447 56.0845 18.2447C56.869 18.2447 57.4767 18.3941 57.8984 18.6931C58.3247 18.9921 58.5333 19.3318 58.5333 19.7168C58.5333 19.9388 58.4562 20.1245 58.3066 20.2649C58.1569 20.4099 57.9574 20.4778 57.717 20.4778C57.4041 20.4778 57.055 20.2559 56.6604 19.8074C56.2614 19.3635 55.9031 19.137 55.5902 19.137C54.9236 19.137 54.2616 19.7576 53.6131 20.9988C52.4522 23.2093 51.1099 27.8795 49.5862 35.0094C49.7359 35.0275 49.949 35.0592 50.2256 35.1045C50.7335 35.1951 51.1417 35.2404 51.4546 35.2404C51.8219 35.2495 52.2345 35.2042 52.6971 35.1136ZM61.9026 24.464C62.7778 24.464 63.5034 24.8128 64.0838 25.5059C64.6643 26.2035 64.9545 27.1683 64.9545 28.4095C64.9545 30.389 64.2561 32.1692 62.864 33.741C61.4718 35.3174 59.998 36.101 58.4426 36.101C57.4858 36.101 56.7149 35.7885 56.1299 35.1634C55.5449 34.5383 55.2547 33.6867 55.2547 32.6086C55.2547 30.7333 55.7898 29.0029 56.86 27.4174C58.2159 25.4515 59.8937 24.464 61.9026 24.464ZM60.7644 25.4696C60.0071 25.4696 59.2725 26.0132 58.5605 27.0958C57.8485 28.1784 57.4948 29.6778 57.4948 31.5849C57.4948 32.7445 57.7125 33.6595 58.1524 34.3299C58.4743 34.8191 58.9006 35.0637 59.4402 35.0637C60.1885 35.0637 60.8732 34.6017 61.49 33.6731C62.2745 32.4682 62.669 30.9733 62.669 29.1886C62.669 27.8523 62.4876 26.8965 62.1248 26.3258C61.762 25.755 61.3086 25.4696 60.7644 25.4696ZM79.5609 24.464C80.4361 24.464 81.1617 24.8128 81.7421 25.5059C82.3225 26.2035 82.6128 27.1683 82.6128 28.4095C82.6128 30.389 81.9144 32.1692 80.5222 33.741C79.1301 35.3174 77.6563 36.101 76.1009 36.101C75.1441 36.101 74.3732 35.7885 73.7882 35.1634C73.2032 34.5383 72.913 33.6867 72.913 32.6086C72.913 30.7333 73.4481 29.0029 74.5183 27.4174C75.8696 25.4515 77.552 24.464 79.5609 24.464ZM78.4227 25.4696C77.6654 25.4696 76.9307 26.0132 76.2188 27.0958C75.5068 28.1784 75.1531 29.6778 75.1531 31.5849C75.1531 32.7445 75.3708 33.6595 75.8107 34.3299C76.1326 34.8191 76.5589 35.0637 77.0985 35.0637C77.8468 35.0637 78.5315 34.6017 79.1482 33.6731C79.9327 32.4682 80.3273 30.9733 80.3273 29.1886C80.3273 27.8523 80.1459 26.8965 79.7831 26.3258C79.4203 25.755 78.9668 25.4696 78.4227 25.4696ZM94.6298 33.4557L94.2535 32.9483C93.3783 33.6233 92.7887 34.0491 92.4849 34.2167C92.2718 34.3299 92.0813 34.3888 91.9226 34.3888C91.6641 34.3888 91.5326 34.2212 91.5326 33.8815C91.5326 33.5689 91.646 32.9347 91.8682 31.9789L93.7637 23.8978C94.2716 21.7371 94.5981 20.4597 94.7387 20.0565C94.9563 19.4224 95.1831 19.0101 95.4189 18.8199C95.6547 18.6296 95.9313 18.5345 96.2442 18.5345C96.4664 18.5345 96.8836 18.5798 97.4913 18.6704C98.0989 18.761 98.5161 18.8063 98.7383 18.8063C99.0784 18.8063 99.3505 18.7157 99.5455 18.5436C99.7405 18.3715 99.8403 18.145 99.8403 17.8686C99.8403 17.5833 99.7314 17.3432 99.5183 17.1575C99.3052 16.9717 99.0195 16.8766 98.6612 16.8766C97.981 16.8766 97.2509 17.0352 96.471 17.3522C95.691 17.6648 94.9972 18.1132 94.3895 18.6931C93.7818 19.2729 93.2876 19.9614 92.9021 20.7587C92.5166 21.5559 92.1176 22.8242 91.6959 24.5591C91.3013 24.4957 91.0066 24.464 90.8116 24.464C89.9273 24.464 88.9523 24.8626 87.8867 25.6508C86.821 26.439 85.8506 27.6575 84.9799 29.3064C84.1092 30.9552 83.6739 32.4138 83.6739 33.6821C83.6739 34.4884 83.8326 35.0954 84.1546 35.5122C84.4765 35.9244 84.8756 36.1328 85.3472 36.1328C85.9186 36.1328 86.558 35.9289 87.2745 35.5167C87.991 35.109 88.8843 34.3254 89.9545 33.1748L89.4874 34.8101C89.3922 35.1543 89.3423 35.408 89.3423 35.5575C89.3423 35.707 89.4058 35.8429 89.5419 35.9652C89.6734 36.0875 89.8502 36.1463 90.0634 36.1463C90.5259 36.1463 91.1608 35.9153 91.9634 35.4623C92.5439 35.1317 93.4327 34.4658 94.6298 33.4557ZM89.9001 25.7912C90.1949 25.7912 90.6982 25.8728 91.4147 26.0313L90.798 28.7265C90.3853 30.4705 90.0588 31.5622 89.8185 32.0106C89.4194 32.7128 88.8752 33.3152 88.186 33.8044C87.7007 34.1351 87.2745 34.2982 86.8981 34.2982C86.5852 34.2982 86.304 34.1532 86.0592 33.8633C85.8143 33.5734 85.6919 33.202 85.6919 32.7445C85.6919 31.7434 85.9594 30.5702 86.49 29.2203C87.0205 27.8704 87.5738 26.9645 88.1452 26.4934C88.7165 26.0268 89.3015 25.7912 89.9001 25.7912ZM102.711 24.464C103.586 24.464 104.311 24.8128 104.892 25.5059C105.472 26.2035 105.763 27.1683 105.763 28.4095C105.763 30.389 105.064 32.1692 103.672 33.741C102.28 35.3174 100.806 36.101 99.2507 36.101C98.2939 36.101 97.523 35.7885 96.938 35.1634C96.353 34.5383 96.0628 33.6867 96.0628 32.6086C96.0628 30.7333 96.5979 29.0029 97.6681 27.4174C99.0194 25.4515 100.697 24.464 102.711 24.464ZM101.568 25.4696C100.811 25.4696 100.076 26.0132 99.3641 27.0958C98.6521 28.1784 98.2984 29.6778 98.2984 31.5849C98.2984 32.7445 98.5161 33.6595 98.956 34.3299C99.2779 34.8191 99.7042 35.0637 100.244 35.0637C100.992 35.0637 101.677 34.6017 102.294 33.6731C103.078 32.4682 103.473 30.9733 103.473 29.1886C103.473 27.8523 103.291 26.8965 102.928 26.3258C102.57 25.755 102.117 25.4696 101.568 25.4696ZM116.374 25.3337H119.575C120.101 23.1051 120.705 21.4426 121.385 20.3555C122.065 19.2684 122.949 18.4077 124.038 17.778C125.126 17.1484 126.155 16.8359 127.117 16.8359C127.661 16.8359 128.074 16.9446 128.35 17.1575C128.627 17.3704 128.767 17.624 128.767 17.9185C128.767 18.1857 128.672 18.4077 128.486 18.5889C128.3 18.7655 128.051 18.8561 127.747 18.8561C127.434 18.8561 126.845 18.761 125.974 18.5753C125.543 18.4847 125.208 18.4394 124.967 18.4394C124.378 18.4394 123.843 18.8018 123.371 19.5311C122.895 20.2604 122.518 21.2433 122.233 22.48L121.562 25.3292H125.112L124.899 26.2805H121.303L119.208 34.8191C118.555 37.4147 117.512 39.3806 116.079 40.7214C114.646 42.0577 113.091 42.7281 111.413 42.7281C110.851 42.7281 110.424 42.6194 110.134 42.402C109.844 42.1845 109.699 41.9127 109.699 41.5911C109.699 41.3148 109.799 41.0929 109.998 40.9298C110.198 40.7667 110.488 40.6806 110.864 40.6806C111.05 40.6806 111.327 40.7033 111.694 40.7486C112.32 40.8301 112.918 40.8709 113.49 40.8709C114.374 40.8709 115.018 40.6625 115.417 40.2503C115.821 39.8336 116.22 38.8189 116.623 37.2063L119.344 26.2895H116.143L116.374 25.3337ZM21.4391 39.9196C21.9424 40.359 22.5002 40.7441 23.0716 41.0747L23.1396 40.9751C22.6634 40.5312 22.2326 40.0555 21.8517 39.5301C21.4572 39.0182 21.0853 38.4928 20.7407 37.9492C20.0469 36.8666 19.4302 35.7296 18.8679 34.579C18.3055 33.4239 17.775 32.2598 17.3079 31.073C16.8499 29.8816 16.4191 28.6903 16.0518 27.4808C15.3489 25.0529 14.8319 22.6204 14.7821 20.2015C14.7639 18.9966 14.8365 17.8098 15.0405 16.6909C15.2582 15.5811 15.6255 14.5393 16.1606 13.7465C16.7048 12.9538 17.3442 12.4465 18.1332 12.1883C18.5232 12.0479 18.9631 11.9618 19.4483 11.9482C19.8292 11.9301 20.2328 11.9754 20.6954 12.1113C21.6295 12.3831 22.6906 12.9584 23.7472 13.6288C24.3595 14.013 24.9749 14.4319 25.6028 14.8594C26.0631 15.1728 26.5301 15.4908 27.0077 15.8031C28.1323 16.5369 29.3295 17.2571 30.6537 17.778C31.9597 18.3171 33.4697 18.5708 34.9072 18.376C36.3493 18.154 37.6326 17.4881 38.6938 16.6501C39.7594 15.8031 40.6165 14.7793 41.4055 13.7329L41.3194 13.6559C41.1501 13.7883 40.9846 13.923 40.82 14.0571C40.4776 14.3359 40.1389 14.6116 39.7776 14.8563L39.3876 15.1372L38.9794 15.3863C38.9266 15.418 38.8739 15.45 38.8213 15.482C38.6029 15.6147 38.3852 15.747 38.1587 15.8529C37.0612 16.4372 35.8867 16.7588 34.7803 16.7226C33.6738 16.6773 32.6217 16.3285 31.6286 15.7215C30.6355 15.1327 29.6968 14.3581 28.7627 13.5155C28.3675 13.1589 27.9756 12.7911 27.5767 12.4168C27.0281 11.9019 26.4663 11.3747 25.865 10.8475C25.3525 10.39 24.7902 9.93699 24.1962 9.4976C23.5749 9.07181 22.8992 8.66412 22.1147 8.32439C21.3212 8.0073 20.387 7.78082 19.4166 7.75817C18.564 7.75817 17.6662 7.88047 16.7864 8.16585C15.9112 8.46028 15.0768 8.94044 14.3739 9.53837C13.6665 10.1363 13.1133 10.8565 12.6825 11.5904C11.8299 13.0716 11.4445 14.6117 11.245 16.093C11.1543 16.8359 11.118 17.5697 11.1134 18.2944C11.118 19.0237 11.1769 19.7349 11.2495 20.4416C11.4127 21.8503 11.6894 23.2228 12.0703 24.5591C12.161 24.8943 12.2653 25.225 12.3696 25.5557L12.7187 26.5251C12.873 26.9746 13.0556 27.4111 13.2378 27.8467C13.3181 28.0386 13.3984 28.2304 13.476 28.423C14.5553 30.9144 15.9021 33.2518 17.453 35.4306C18.2511 36.5087 19.0901 37.546 20.0015 38.5245C20.4596 39.0091 20.9312 39.4848 21.4391 39.9196Z" fill="#657F92"/>
</svg>
