<svg width="214" height="72" viewBox="0 0 214 72" fill="none" xmlns="http://www.w3.org/2000/svg">
<path fill-rule="evenodd" clip-rule="evenodd" d="M62.1575 65.793L61.8613 65.4821C61.3811 65.9509 60.901 66.3382 60.4209 66.6338C60.1758 66.7816 59.9919 66.858 59.8642 66.858C59.7314 66.858 59.665 66.7663 59.665 66.5829C59.665 66.5013 59.8795 65.5534 60.3086 63.7342L61.1717 60.1058C61.4731 58.8012 61.6927 57.9298 61.8306 57.4865C61.9685 57.0431 62.1166 56.7526 62.2852 56.615C62.4078 56.5182 62.5865 56.4673 62.8215 56.4673C63.0615 56.4673 63.3169 56.4927 63.5927 56.5386C63.9094 56.5947 64.1545 56.6252 64.3282 56.6252C64.5887 56.6252 64.793 56.5641 64.9309 56.4469C65.0688 56.3246 65.1403 56.1768 65.1403 55.9882C65.1403 55.8201 65.0688 55.6723 64.9258 55.5551C64.7879 55.4379 64.5938 55.3767 64.3435 55.3767C63.6183 55.3767 62.9236 55.5704 62.2699 55.9628C61.611 56.3551 61.1053 56.9004 60.7478 57.6088C60.518 58.0776 60.2319 59 59.8897 60.3708L58.955 64.1724C58.5975 65.6248 58.4188 66.5828 58.4188 67.0466C58.4188 67.2861 58.4749 67.4695 58.5924 67.6071C58.7099 67.7447 58.858 67.811 59.0368 67.811C59.4352 67.811 59.9408 67.602 60.5588 67.1842C61.1717 66.7663 61.708 66.3026 62.1575 65.793ZM37.156 67.5715L37.2786 67.0772C36.8547 67.174 36.4512 67.2249 36.0681 67.2249C35.8127 67.2249 35.491 67.1995 35.1028 67.1536L35.5829 65.0693L36.0426 63.245L36.7985 60.2485C37.105 59.051 37.2888 58.3477 37.345 58.1388C37.7894 58.1744 38.2082 58.1897 38.6015 58.1897C39.6996 58.1897 40.4811 58.0318 40.9509 57.7158C41.4157 57.3998 41.6507 57.0227 41.6507 56.5845C41.6507 56.3705 41.5945 56.2023 41.4821 56.0749C41.3698 55.9475 41.2268 55.8863 41.0531 55.8863C40.9101 55.8863 40.7824 55.9424 40.6802 56.0443C40.573 56.1462 40.5219 56.2736 40.5219 56.4316C40.5219 56.4593 40.5303 56.5204 40.5433 56.615L40.5474 56.6456C40.5628 56.7679 40.573 56.8495 40.573 56.8903C40.573 57.0941 40.4964 57.2521 40.3483 57.3744C40.2001 57.4967 39.9396 57.5578 39.577 57.5578C39.2093 57.5578 38.627 57.5018 37.8149 57.3999C36.6759 57.2521 35.8485 57.1756 35.3275 57.1756C34.2345 57.1756 33.3049 57.3591 32.5439 57.7209C31.7829 58.0827 31.1802 58.5974 30.7461 59.2599C30.3119 59.9275 30.0923 60.6103 30.0923 61.3136C30.0923 61.8385 30.2047 62.2716 30.4243 62.6131C30.5724 62.8424 30.7665 62.9596 31.0116 62.9596C31.1751 62.9596 31.313 62.9086 31.4305 62.7965C31.5479 62.6895 31.6041 62.557 31.6041 62.399C31.6041 62.2207 31.502 62.0219 31.3079 61.8079C31.0985 61.5735 30.9708 61.4053 30.9248 61.3034C30.8584 61.1556 30.8278 60.9874 30.8278 60.8091C30.8278 60.2995 30.9861 59.8256 31.3028 59.3873C31.6194 58.949 32.0893 58.6127 32.7176 58.3834C33.3407 58.1541 34.1936 58.0369 35.2611 58.0369C35.4348 58.0369 35.6902 58.047 36.0324 58.0623L35.9711 58.2764L34.8627 62.8628C34.3826 64.7789 34.0762 65.8949 33.9383 66.2159C33.8004 66.537 33.6369 66.7612 33.4479 66.8937C33.1824 67.0772 32.7533 67.1995 32.1711 67.2555L32.0485 67.7295C32.6614 67.6224 33.259 67.5715 33.8361 67.5715C34.1681 67.5715 34.5461 67.5868 34.97 67.6224C35.5318 67.6734 35.9302 67.6989 36.1754 67.6989C36.4308 67.6989 36.7576 67.6581 37.156 67.5715ZM44.8787 60.962C44.5007 60.5135 44.0308 60.2893 43.4639 60.2893C42.1666 60.2893 41.0786 60.9314 40.2053 62.2054C39.5106 63.2348 39.1633 64.3508 39.1633 65.5637C39.1633 66.2618 39.3523 66.8122 39.7303 67.2148C40.1082 67.6174 40.6088 67.8212 41.2268 67.8212C42.233 67.8212 43.183 67.3116 44.087 66.2924C44.991 65.2732 45.4405 64.1215 45.4405 62.8424C45.4405 62.0372 45.2566 61.4104 44.8787 60.962ZM41.3034 61.9914C41.7631 61.2932 42.2381 60.9416 42.7284 60.9416C43.0808 60.9416 43.377 61.125 43.6069 61.4919C43.8418 61.8589 43.9593 62.4755 43.9593 63.3418C43.9593 64.4986 43.709 65.4618 43.1983 66.2414C42.7999 66.8428 42.3555 67.1434 41.8703 67.1434C41.523 67.1434 41.2472 66.9855 41.0378 66.6695C40.7569 66.2363 40.6139 65.6452 40.6139 64.8961C40.6139 63.6629 40.8437 62.6946 41.3034 61.9914ZM46.4875 62.4398L46.1504 62.0933C46.6765 61.4665 47.2026 60.9976 47.7184 60.7021C48.2394 60.4014 48.6889 60.2536 49.0719 60.2536C49.215 60.2536 49.3324 60.2893 49.4141 60.3606C49.4959 60.432 49.5418 60.539 49.5418 60.6766C49.5418 60.8447 49.5214 61.018 49.4857 61.1913C49.4499 61.3696 49.3324 61.7824 49.1332 62.4398C50.0168 61.5582 50.6246 61.0129 50.9464 60.804C51.4878 60.4523 51.9883 60.274 52.4378 60.274C52.734 60.274 52.9792 60.4116 53.1835 60.6919C53.3878 60.967 53.4849 61.3849 53.4849 61.9455C53.4849 63.3418 53.0507 64.6668 52.1773 65.9255C51.3039 67.1842 50.3386 67.811 49.2813 67.811C48.8676 67.811 48.4488 67.6989 48.0351 67.4747L47.2945 70.3284C47.2485 70.5017 47.223 70.6444 47.223 70.7514C47.223 70.9654 47.3047 71.1183 47.4682 71.21C47.7184 71.3527 48.2394 71.4699 49.0362 71.5668L48.9238 71.9999C47.9942 71.9235 47.2588 71.8878 46.7276 71.8878C46.176 71.8878 45.466 71.9235 44.5926 71.9999L44.705 71.5668C45.1442 71.5209 45.466 71.3986 45.6652 71.205C45.8644 71.0062 46.0227 70.6597 46.1453 70.1552L47.7133 63.5864C48.0096 62.3634 48.1577 61.6805 48.1577 61.5429C48.1577 61.3951 48.0862 61.3187 47.9432 61.3187C47.6878 61.3238 47.2026 61.6958 46.4875 62.4398ZM48.2445 66.5217C48.6991 66.9753 49.169 67.2046 49.6491 67.2046C50.3437 67.2046 50.9515 66.6644 51.4725 65.584C51.9935 64.5037 52.259 63.4539 52.259 62.4245C52.259 62.0933 52.1875 61.8436 52.0394 61.6754C51.8913 61.5072 51.6921 61.4206 51.4469 61.4206C51.1711 61.4206 50.8596 61.5582 50.5123 61.8283C49.976 62.2512 49.5674 62.6691 49.2813 63.0819C49.077 63.3826 48.8881 63.9024 48.7093 64.6413L48.2445 66.5217ZM67.1476 65.4006L67.4336 65.7828C66.0188 67.1281 64.8032 67.8008 63.7919 67.8008C63.3833 67.8008 63.0667 67.6632 62.8521 67.3829C62.6376 67.1027 62.5253 66.6593 62.5253 66.0478C62.5253 64.8145 62.9032 63.5864 63.654 62.3583C64.4968 60.9671 65.5081 60.274 66.6828 60.274C67.0914 60.274 67.4081 60.3759 67.6226 60.5798C67.8371 60.7836 67.9495 61.0639 67.9495 61.4257C67.9495 61.8028 67.8218 62.1697 67.5613 62.5315C67.3008 62.8934 66.836 63.2756 66.1669 63.6629C65.8298 63.8514 65.1148 64.1979 64.0167 64.6922C63.9656 65.0031 63.94 65.2987 63.94 65.584C63.94 65.9917 64.0065 66.2771 64.1341 66.4402C64.2618 66.6033 64.4559 66.6848 64.7011 66.6848C64.936 66.6848 65.1965 66.6185 65.4825 66.486C65.8554 66.3077 66.4121 65.9459 67.1476 65.4006ZM64.1137 64.1419C65.0433 63.724 65.743 63.2807 66.2129 62.8016C66.5296 62.4653 66.6879 62.1341 66.6879 61.8079C66.6879 61.5582 66.6215 61.3646 66.4938 61.2168C66.3661 61.069 66.1925 60.9976 65.9882 60.9976C65.7737 60.9976 65.5642 61.0792 65.3651 61.2423C65.0944 61.4563 64.8645 61.7773 64.6806 62.2105C64.4099 62.8373 64.221 63.4845 64.1137 64.1419ZM71.8057 62.9953C71.9742 62.45 72.2858 61.8232 72.7301 61.1149C73.0825 60.9671 73.2562 60.8091 73.2511 60.6409C73.2511 60.5543 73.2153 60.4728 73.1387 60.3963C73.0672 60.3199 72.9804 60.2842 72.8885 60.2842C72.7863 60.2842 72.5514 60.3657 72.1836 60.5288C71.2694 60.5135 70.539 60.5849 69.9823 60.7428C69.4306 60.9008 69.0374 61.1149 68.8126 61.39C68.5879 61.6652 68.4755 61.971 68.4755 62.3124C68.4755 62.5264 68.5317 62.6946 68.6339 62.822C68.7411 62.9494 68.8688 63.0106 69.0169 63.0106C69.1344 63.0106 69.2314 62.9749 69.3081 62.9036C69.3847 62.8322 69.4255 62.7507 69.4255 62.6589C69.4255 62.5672 69.4 62.4551 69.3489 62.3226C69.2672 62.129 69.2263 61.9965 69.2263 61.9149C69.2263 61.7111 69.3847 61.5327 69.6962 61.3849C70.1355 61.176 70.8659 61.0639 71.8823 61.0486C71.3153 61.4716 70.8914 61.9761 70.6003 62.557C70.3091 63.1329 70.1661 63.7342 70.1661 64.3508C70.1661 64.8197 70.2887 65.6503 70.5237 66.8428C70.6462 67.439 70.728 67.8722 70.7688 68.1422C72.4135 67.3677 73.7721 66.2669 74.8395 64.8349C75.7078 63.668 76.1471 62.4704 76.1471 61.2423C76.1471 60.8499 76.0909 60.5696 75.9734 60.4065C75.8559 60.2434 75.7027 60.1619 75.5137 60.1619C75.3707 60.1619 75.243 60.218 75.1409 60.3301C75.0336 60.4422 74.9826 60.5747 74.9826 60.7225C74.9826 60.8601 75.0541 61.0741 75.1971 61.3646C75.3299 61.6346 75.3963 61.8589 75.3963 62.0372C75.3963 62.6488 75.1307 63.3775 74.5995 64.2234C74.0632 65.0694 73.1592 65.9764 71.8823 66.9447C71.6626 65.8898 71.5503 65.1101 71.5503 64.6158C71.5503 64.0756 71.6371 63.5355 71.8057 62.9953ZM81.178 65.4006L81.464 65.7828C80.0492 67.1281 78.8336 67.8008 77.8223 67.8008C77.4137 67.8008 77.0971 67.6632 76.8825 67.3829C76.668 67.1027 76.5557 66.6593 76.5557 66.0478C76.5557 64.8145 76.9336 63.5864 77.6844 62.3583C78.5272 60.9671 79.5385 60.274 80.7132 60.274C81.1218 60.274 81.4385 60.3759 81.653 60.5798C81.8675 60.7836 81.9799 61.0639 81.9799 61.4257C81.9799 61.8028 81.8522 62.1697 81.5917 62.5315C81.3312 62.8934 80.8664 63.2756 80.1973 63.6629C79.8602 63.8514 79.1452 64.1979 78.0471 64.6922C77.996 65.0031 77.9704 65.2987 77.9704 65.584C77.9704 65.9917 78.0368 66.2771 78.1645 66.4402C78.2922 66.6033 78.4863 66.6848 78.7315 66.6848C78.9664 66.6848 79.2269 66.6185 79.5129 66.486C79.8858 66.3077 80.4425 65.9459 81.178 65.4006ZM78.1441 64.1419C79.0737 63.724 79.7734 63.2807 80.2433 62.8016C80.56 62.4653 80.7183 62.1341 80.7183 61.8079C80.7183 61.5582 80.6519 61.3646 80.5242 61.2168C80.3965 61.069 80.2229 60.9976 80.0186 60.9976C79.8041 60.9976 79.5946 61.0792 79.3954 61.2423C79.1247 61.4563 78.8949 61.7773 78.711 62.2105C78.4403 62.8373 78.2514 63.4845 78.1441 64.1419ZM86.6635 65.793L86.3673 65.4821C85.8872 65.9509 85.407 66.3382 84.9269 66.6338C84.6818 66.7816 84.4979 66.858 84.3702 66.858C84.2374 66.858 84.171 66.7663 84.171 66.5829C84.171 66.5013 84.3855 65.5534 84.8146 63.7342L85.6777 60.1058C85.9791 58.8012 86.1987 57.9298 86.3366 57.4865C86.4745 57.0431 86.6226 56.7526 86.7912 56.615C86.9138 56.5182 87.0925 56.4673 87.3275 56.4673C87.5675 56.4673 87.8229 56.4927 88.0987 56.5386C88.4154 56.5947 88.6605 56.6252 88.8342 56.6252C89.0947 56.6252 89.299 56.5641 89.4369 56.4469C89.5748 56.3246 89.6463 56.1768 89.6463 55.9882C89.6463 55.8201 89.5748 55.6723 89.4318 55.5551C89.2939 55.4379 89.0998 55.3767 88.8495 55.3767C88.1243 55.3767 87.4296 55.5704 86.7759 55.9628C86.117 56.3551 85.6114 56.9004 85.2538 57.6088C85.024 58.0776 84.738 59 84.3958 60.3708L83.4611 64.1724C83.1036 65.6248 82.9248 66.5828 82.9248 67.0466C82.9248 67.2861 82.981 67.4695 83.0984 67.6071C83.2159 67.7447 83.364 67.811 83.5428 67.811C83.9412 67.811 84.4468 67.602 85.0648 67.1842C85.6777 66.7663 86.214 66.3026 86.6635 65.793ZM95.8622 65.6911L96.0461 66.1956C94.6722 67.2759 93.5076 67.8161 92.5576 67.8161C92.052 67.8161 91.6893 67.6377 91.4595 67.281C91.2297 66.9243 91.1173 66.4708 91.1173 65.9204C91.1173 65.0082 91.3625 64.0705 91.8477 63.1074C92.3329 62.1443 92.9254 61.4053 93.6149 60.8906C94.1563 60.4931 94.7692 60.2944 95.4536 60.2944C95.8827 60.2944 96.2044 60.3759 96.4241 60.539C96.6437 60.7021 96.7561 60.8957 96.7561 61.125C96.7561 61.3034 96.6999 61.4512 96.5824 61.5633C96.4649 61.6754 96.3066 61.7315 96.0972 61.7315C95.8929 61.7315 95.6324 61.6397 95.3157 61.4563C94.9837 61.2626 94.713 61.1607 94.4934 61.1607C94.2125 61.1607 93.9265 61.2881 93.6455 61.5429C93.3646 61.7977 93.099 62.2971 92.8437 63.0361C92.5883 63.775 92.4606 64.5139 92.4606 65.2579C92.4606 65.8032 92.5678 66.2312 92.7824 66.5268C92.9407 66.7561 93.1603 66.8733 93.4412 66.8733C94.1205 66.8683 94.9275 66.4759 95.8622 65.6911ZM101.133 65.793L100.837 65.4821C100.357 65.9509 99.8768 66.3382 99.3967 66.6338C99.1515 66.7816 98.9676 66.858 98.8399 66.858C98.7071 66.858 98.6407 66.7663 98.6407 66.5829C98.6407 66.5013 98.8553 65.5534 99.2843 63.7342L100.147 60.1058C100.449 58.8012 100.668 57.9298 100.806 57.4865C100.944 57.0431 101.092 56.7526 101.261 56.615C101.384 56.5182 101.562 56.4673 101.797 56.4673C102.037 56.4673 102.293 56.4927 102.568 56.5386C102.885 56.5947 103.13 56.6252 103.304 56.6252C103.564 56.6252 103.769 56.5641 103.907 56.4469C104.045 56.3246 104.116 56.1768 104.116 55.9882C104.116 55.8201 104.045 55.6723 103.902 55.5551C103.764 55.4379 103.57 55.3767 103.319 55.3767C102.594 55.3767 101.899 55.5704 101.246 55.9628C100.587 56.3551 100.081 56.9004 99.7235 57.6088C99.4937 58.0776 99.2077 59 98.8655 60.3708L97.9308 64.1724C97.5733 65.6248 97.3945 66.5828 97.3945 67.0466C97.3945 67.2861 97.4507 67.4695 97.5682 67.6071C97.6856 67.7447 97.8337 67.811 98.0125 67.811C98.4109 67.811 98.9165 67.602 99.5346 67.1842C100.147 66.7663 100.684 66.3026 101.133 65.793ZM101.853 62.2971L101.47 62.0015C102.047 61.3645 102.574 60.9161 103.054 60.646C103.529 60.3759 103.937 60.2434 104.269 60.2434C104.453 60.2434 104.596 60.2842 104.693 60.3657C104.79 60.4472 104.841 60.5543 104.841 60.6969C104.841 60.8651 104.652 61.5735 104.279 62.8271C103.667 64.8757 103.36 66.1089 103.36 66.5319C103.36 66.6134 103.381 66.6797 103.421 66.7357C103.462 66.7918 103.503 66.8173 103.549 66.8173C103.733 66.8173 104.208 66.4605 104.974 65.742L105.311 66.0732C104.52 66.8173 103.942 67.2912 103.575 67.5001C103.212 67.7091 102.911 67.811 102.681 67.811C102.477 67.811 102.318 67.7498 102.201 67.6224C102.083 67.495 102.022 67.3218 102.022 67.0924C102.022 66.3688 102.456 64.6107 103.324 61.8028C103.365 61.6703 103.386 61.5531 103.386 61.4461C103.386 61.3289 103.335 61.2728 103.227 61.2728C103.11 61.2728 102.982 61.3187 102.834 61.4104C102.691 61.5072 102.364 61.8028 101.853 62.2971ZM105.26 56.5692C105.439 56.5692 105.587 56.6303 105.704 56.7475C105.822 56.8647 105.878 57.0176 105.878 57.2011C105.878 57.4559 105.791 57.6801 105.613 57.8738C105.434 58.0674 105.24 58.1642 105.02 58.1642C104.846 58.1642 104.703 58.1031 104.586 57.9808C104.468 57.8585 104.412 57.7005 104.412 57.5068C104.412 57.247 104.494 57.0278 104.663 56.8444C104.831 56.6609 105.03 56.5692 105.26 56.5692ZM105.888 62.027L106.185 62.3277C106.496 61.9812 106.833 61.6907 107.181 61.4461C107.354 61.3238 107.487 61.2626 107.579 61.2626C107.696 61.2626 107.753 61.3391 107.753 61.4971C107.753 61.5531 107.737 61.6499 107.707 61.7824L106.935 65.0745C106.757 65.8644 106.547 66.695 106.302 67.5613H107.594L108.299 64.5343C108.457 63.8514 108.651 63.352 108.881 63.0412C109.249 62.557 109.704 62.1341 110.245 61.7773C110.608 61.5378 110.909 61.4155 111.139 61.4155C111.353 61.4155 111.461 61.5073 111.461 61.6856C111.461 61.8079 111.358 62.2309 111.164 62.9596C110.521 64.998 110.199 66.2771 110.199 66.7918C110.199 67.1485 110.26 67.4084 110.383 67.5664C110.506 67.7244 110.674 67.8059 110.894 67.8059C111.134 67.8059 111.435 67.6887 111.798 67.4594C112.37 67.1027 112.921 66.6338 113.453 66.0478L113.238 65.737C112.988 65.9357 112.732 66.1497 112.477 66.379C112.114 66.7001 111.854 66.8632 111.685 66.8632C111.619 66.8632 111.573 66.8377 111.537 66.7765C111.501 66.7205 111.486 66.6288 111.486 66.5115C111.486 66.1242 111.67 65.3446 112.038 64.1674C112.431 62.9087 112.671 62.0933 112.763 61.7162C112.814 61.492 112.84 61.2881 112.84 61.1098C112.84 60.8397 112.778 60.6307 112.651 60.4881C112.528 60.3454 112.349 60.274 112.125 60.274C111.818 60.274 111.43 60.4218 110.955 60.7174C110.066 61.283 109.326 61.8946 108.738 62.5468L109.132 60.804C109.162 60.6715 109.178 60.5798 109.178 60.5288C109.178 60.4575 109.147 60.3963 109.075 60.3454C109.004 60.2944 108.912 60.2689 108.789 60.2689C108.478 60.2689 108.1 60.381 107.661 60.6155C107.221 60.8499 106.629 61.3187 105.888 62.027ZM114.464 62.2971L114.081 62.0015C114.658 61.3645 115.184 60.9161 115.664 60.646C116.139 60.3759 116.548 60.2434 116.88 60.2434C117.064 60.2434 117.207 60.2842 117.304 60.3657C117.401 60.4472 117.452 60.5543 117.452 60.6969C117.452 60.8651 117.263 61.5735 116.89 62.8271C116.277 64.8757 115.971 66.1089 115.971 66.5319C115.971 66.6134 115.991 66.6797 116.032 66.7357C116.073 66.7918 116.114 66.8173 116.16 66.8173C116.344 66.8173 116.819 66.4605 117.585 65.742L117.922 66.0732C117.13 66.8173 116.553 67.2912 116.185 67.5001C115.823 67.7091 115.521 67.811 115.291 67.811C115.087 67.811 114.929 67.7498 114.811 67.6224C114.694 67.495 114.633 67.3218 114.633 67.0924C114.633 66.3688 115.067 64.6107 115.935 61.8028C115.976 61.6703 115.996 61.5531 115.996 61.4461C115.996 61.3289 115.945 61.2728 115.838 61.2728C115.72 61.2728 115.593 61.3187 115.445 61.4104C115.297 61.5072 114.97 61.8028 114.464 62.2971ZM117.871 56.5692C118.049 56.5692 118.198 56.6303 118.315 56.7475C118.433 56.8647 118.489 57.0176 118.489 57.2011C118.489 57.4559 118.402 57.6801 118.223 57.8738C118.044 58.0674 117.85 58.1642 117.631 58.1642C117.457 58.1642 117.314 58.1031 117.197 57.9808C117.079 57.8585 117.023 57.7005 117.023 57.5068C117.023 57.247 117.105 57.0278 117.273 56.8444C117.442 56.6609 117.641 56.5692 117.871 56.5692ZM123.479 66.1956L123.295 65.6911C122.355 66.4759 121.553 66.8683 120.874 66.8733C120.593 66.8733 120.373 66.7561 120.215 66.5268C120 66.2312 119.893 65.8032 119.893 65.2579C119.893 64.5139 120.021 63.775 120.276 63.0361C120.532 62.2971 120.797 61.7977 121.078 61.5429C121.359 61.2881 121.645 61.1607 121.926 61.1607C122.146 61.1607 122.416 61.2626 122.748 61.4563C123.065 61.6397 123.326 61.7315 123.53 61.7315C123.739 61.7315 123.898 61.6754 124.015 61.5633C124.133 61.4512 124.189 61.3034 124.189 61.125C124.189 60.8957 124.076 60.7021 123.857 60.539C123.637 60.3759 123.315 60.2944 122.886 60.2944C122.202 60.2944 121.589 60.4931 121.048 60.8906C120.358 61.4053 119.766 62.1443 119.28 63.1074C118.795 64.0705 118.55 65.0082 118.55 65.9204C118.55 66.4708 118.662 66.9243 118.892 67.281C119.122 67.6377 119.485 67.8161 119.99 67.8161C120.94 67.8161 122.105 67.2759 123.479 66.1956Z" fill="#7C7C7B"/>
<path fill-rule="evenodd" clip-rule="evenodd" d="M152.066 21.0501L151.867 21.9012C152.143 21.8604 152.327 21.84 152.429 21.8451C152.664 21.8451 152.847 21.9063 152.98 22.0337C153.113 22.1611 153.179 22.3293 153.179 22.5382C153.179 22.7624 153.144 23.0325 153.062 23.3484L151.479 29.7898L150.115 34.947C149.456 36.9752 148.935 38.29 148.552 38.8964C148.343 39.2378 148.087 39.4824 147.791 39.6251C147.495 39.7678 146.744 39.8748 145.528 39.9411L145.074 40.9093C146.289 40.8685 147.193 40.8482 147.786 40.8482C149.068 40.8482 150.416 40.8991 151.841 41.0061C153.527 41.1386 154.717 41.2049 155.401 41.2049C157.526 41.2049 159.651 40.7208 161.781 39.7525C163.91 38.7843 165.729 37.1586 167.23 34.8756C168.732 32.5926 169.483 30.0854 169.483 27.359C169.483 24.4237 168.4 21.9827 166.245 20.0411C164.089 18.0996 161.188 17.1262 157.546 17.1262C154.594 17.1262 151.908 17.753 149.492 19.0016C147.076 20.2501 145.191 21.9318 143.838 24.0466C142.484 26.1615 141.81 28.3527 141.81 30.6154C141.81 31.9709 142.265 33.2959 143.164 34.5852C143.828 35.5075 144.507 35.9662 145.212 35.9662C145.528 35.9662 145.809 35.8439 146.054 35.5993C146.3 35.3547 146.422 35.0744 146.422 34.7584C146.422 34.5087 146.361 34.2998 146.233 34.1265C146.106 33.9583 145.835 33.7545 145.411 33.515C143.935 32.7251 143.194 31.4868 143.194 29.8C143.194 28.0725 143.797 26.299 145.002 24.4747C146.208 22.6554 147.847 21.1877 149.916 20.0819C151.984 18.9761 154.186 18.4206 156.52 18.4206C159.288 18.4206 161.53 19.3124 163.246 21.096C164.957 22.8847 165.816 25.2442 165.816 28.1795C165.816 30.4166 165.31 32.4652 164.304 34.3202C163.292 36.1751 161.934 37.5867 160.218 38.5549C158.502 39.5232 156.494 40.0073 154.186 40.0073C153.312 40.0073 152.311 39.8952 151.177 39.671C152.352 37.6479 153.409 34.6412 154.344 30.6663L155.652 25.1575C156.086 23.2975 156.586 21.6413 157.153 20.1787C155.197 20.6425 153.501 20.9329 152.066 21.0501ZM181.639 36.8172L180.985 35.9458C179.31 37.1943 178.038 38.025 177.17 38.4429C176.521 38.7435 175.928 38.8964 175.387 38.8964C174.82 38.8964 174.386 38.7079 174.09 38.3409C173.794 37.9689 173.645 37.3166 173.645 36.3841C173.645 35.742 173.707 35.0642 173.824 34.3508C176.332 33.2195 177.966 32.4347 178.733 32.0015C180.265 31.1046 181.327 30.2434 181.92 29.4127C182.512 28.5821 182.808 27.7413 182.808 26.8851C182.808 26.0698 182.563 25.4277 182.068 24.9588C181.572 24.49 180.852 24.2556 179.917 24.2556C177.236 24.2556 174.932 25.8404 173.007 29.0153C171.291 31.8079 170.433 34.6107 170.433 37.4288C170.433 38.8251 170.678 39.8392 171.173 40.4711C171.669 41.103 172.384 41.4189 173.324 41.4189C175.632 41.4189 178.406 39.885 181.639 36.8172ZM178.85 30.0192C177.783 31.1148 176.184 32.134 174.059 33.0819C174.309 31.5785 174.738 30.1058 175.346 28.6534C175.765 27.6648 176.291 26.931 176.909 26.4418C177.369 26.0698 177.844 25.8863 178.334 25.8863C178.809 25.8863 179.197 26.0545 179.494 26.3908C179.79 26.7272 179.938 27.1807 179.938 27.7464C179.938 28.5006 179.575 29.2548 178.85 30.0192ZM184.785 28.9337L184.111 28.2406C185.801 26.6252 187.15 25.555 188.151 25.0251C189.157 24.4951 190.015 24.2301 190.725 24.2301C191.001 24.2301 191.221 24.2912 191.379 24.4084C191.537 24.5257 191.619 24.6632 191.619 24.8212C191.619 24.9384 191.588 25.1525 191.522 25.4531L190.628 29.428C191.971 27.94 193.657 26.5488 195.69 25.2544C196.772 24.5817 197.661 24.2454 198.356 24.2454C198.872 24.2454 199.27 24.4084 199.561 24.7397C199.852 25.0709 199.995 25.5449 199.995 26.1615C199.995 26.5692 199.934 27.0329 199.817 27.5425C199.607 28.3986 199.056 30.2638 198.162 33.1328C197.319 35.8184 196.9 37.602 196.9 38.4836C196.9 38.7537 196.941 38.9575 197.018 39.09C197.094 39.2276 197.207 39.2939 197.355 39.2939C197.738 39.2939 198.335 38.927 199.158 38.1881C199.74 37.6632 200.317 37.1739 200.899 36.7255L201.395 37.4389C200.179 38.7741 198.923 39.8493 197.615 40.6647C196.783 41.1896 196.098 41.4495 195.557 41.4495C195.056 41.4495 194.668 41.266 194.387 40.9042C194.111 40.5424 193.973 39.9513 193.973 39.1359C193.973 37.9638 194.704 35.0489 196.17 30.3861C196.619 28.7248 196.844 27.7616 196.844 27.4813C196.844 27.0737 196.599 26.8698 196.114 26.8698C195.587 26.8698 194.908 27.145 194.076 27.7005C192.834 28.5158 191.798 29.479 190.965 30.5899C190.439 31.3033 189.995 32.4347 189.637 33.994L188.033 40.8991H185.081C185.638 38.9219 186.118 37.0313 186.527 35.2222L188.289 27.7056C188.355 27.4049 188.386 27.1858 188.386 27.0533C188.386 26.6966 188.253 26.5182 187.987 26.5182C187.778 26.5182 187.472 26.6558 187.078 26.9361C186.261 27.4864 185.495 28.1489 184.785 28.9337ZM211.319 20.0463L208.178 21.2489L207.069 25.5704H203.857L203.499 26.9718H206.707L204.689 34.8349C204.189 36.7867 203.938 38.2339 203.938 39.1818C203.938 39.987 204.076 40.5628 204.362 40.9195C204.648 41.2763 205.031 41.4546 205.522 41.4546C206.114 41.4546 206.901 41.2151 207.876 40.7259C208.857 40.2367 210.788 38.9066 213.678 36.7357L212.928 35.8286C211.927 36.644 210.869 37.3727 209.761 38.0199C208.918 38.504 208.29 38.7486 207.881 38.7486C207.616 38.7486 207.411 38.6671 207.258 38.5091C207.105 38.3511 207.028 38.0963 207.028 37.7396C207.028 36.965 207.304 35.584 207.851 33.5966L209.577 26.9768H213.684L214 25.5754H209.899L211.319 20.0463Z" fill="#1C9D5B"/>
<path fill-rule="evenodd" clip-rule="evenodd" d="M114.183 5.18622C95.3128 15.4336 78.4222 11.7405 61.2682 7.98981C51.9942 5.96206 42.6432 3.91748 32.8606 4.04981C28.1413 4.11096 23.4781 5.28814 19.4227 7.69346C19.2267 7.80781 19.0334 7.92751 18.8409 8.04675C18.7675 8.09223 18.6941 8.13765 18.6208 8.18267C13.0995 11.6683 9.11564 17.1873 7.97666 23.6032C6.90918 29.6216 7.82343 35.9406 11.414 41.0163C17.7883 49.6948 30.3426 48.1099 38.5351 43.0241C25.6845 57.2827 6.90407 51.3968 1.1734 33.8207C-4.3683 16.8408 10.6019 1.28268 27.5386 0.0392506C39.2119 -0.356633 50.2779 2.31061 61.2384 4.9524C78.4957 9.1119 95.4912 13.2083 114.183 5.18622ZM44.9118 13.3789C43.5005 14.7734 42.0399 16.2167 40.3892 17.1466C41.8398 16.7083 43.2341 16.1681 44.4855 15.2916C44.9112 14.993 45.3236 14.6676 45.7321 14.3453L45.7321 14.3453C46.7598 13.5345 47.7625 12.7434 48.8882 12.448C54.5933 10.96 56.9837 19.8729 56.1256 24.3829C59.6753 19.3633 57.9745 8.03489 50.5839 9.40062C48.5618 9.7722 46.78 11.5329 44.9118 13.3789ZM124.735 28.5005H121.129L120.859 29.5757H124.475L121.41 41.8571C120.956 43.6713 120.506 44.8128 120.052 45.2816C119.602 45.7453 118.877 45.9798 117.881 45.9798C117.237 45.9798 116.563 45.9339 115.858 45.8422C115.445 45.7912 115.133 45.7657 114.924 45.7657C114.5 45.7657 114.173 45.8626 113.948 46.046C113.723 46.2295 113.611 46.4792 113.611 46.79C113.611 47.1518 113.774 47.4576 114.101 47.7022C114.428 47.9468 114.908 48.0691 115.542 48.0691C117.432 48.0691 119.183 47.3149 120.797 45.8116C122.411 44.3032 123.586 42.0915 124.322 39.1715L126.681 29.5655H130.732L130.972 28.4953H126.972L127.728 25.29C128.05 23.8988 128.474 22.7929 129.01 21.9725C129.542 21.152 130.144 20.7443 130.808 20.7443C131.079 20.7443 131.457 20.7953 131.942 20.8972C132.923 21.1061 133.587 21.2132 133.939 21.2132C134.281 21.2132 134.562 21.1112 134.772 20.9125C134.981 20.7087 135.088 20.4589 135.088 20.1583C135.088 19.827 134.93 19.5417 134.618 19.3022C134.307 19.0626 133.842 18.9403 133.229 18.9403C132.146 18.9403 130.987 19.292 129.761 20.0003C128.535 20.7087 127.539 21.6769 126.773 22.8999C126.007 24.123 125.328 25.9932 124.735 28.5005ZM81.4437 37.0923L80.933 36.5522C80.0953 37.3675 79.2628 38.0351 78.4251 38.5498C78.0012 38.8097 77.6794 38.9422 77.4598 38.9422C77.23 38.9422 77.1125 38.7791 77.1125 38.4581C77.1125 38.3154 77.4854 36.6643 78.2311 33.5047L79.7378 27.1959C80.269 24.9281 80.652 23.4095 80.887 22.64C81.127 21.8705 81.3875 21.366 81.6787 21.1265C81.8881 20.9584 82.1996 20.8717 82.6082 20.8717C83.0168 20.8717 83.4663 20.9125 83.9464 20.994C84.498 21.096 84.922 21.1469 85.2233 21.1469C85.683 21.1469 86.0354 21.045 86.2755 20.8361C86.5155 20.6322 86.6381 20.3672 86.6381 20.0411C86.6381 19.7506 86.5155 19.5009 86.2703 19.292C86.0252 19.083 85.6881 18.9811 85.2539 18.9811C83.9873 18.9811 82.7819 19.3225 81.6429 20.0003C80.5039 20.6781 79.6203 21.6361 78.9972 22.8643C78.5937 23.6745 78.0983 25.2747 77.5058 27.6647L75.8765 34.2742C75.2534 36.8069 74.9418 38.4683 74.9418 39.2734C74.9418 39.6862 75.0439 40.0123 75.2431 40.2468C75.4474 40.4812 75.7028 40.5984 76.0144 40.5984C76.7039 40.5984 77.5875 40.2366 78.6601 39.5078C79.7327 38.7791 80.6572 37.9739 81.4437 37.0923ZM59.3535 39.5028L59.1595 40.3589C58.6487 40.4201 58.2554 40.4506 57.9847 40.4506C57.5506 40.4506 56.9785 40.415 56.2635 40.3436C55.4973 40.2723 54.8436 40.2366 54.3022 40.2366C53.868 40.2366 53.4237 40.3079 52.9589 40.4455C53.3675 39.2887 53.8374 37.6835 54.3737 35.6298L55.5331 31.1096L51.4522 31.2625C50.7371 31.3033 50.0016 31.3593 49.2457 31.4256C48.5664 34.1061 47.8615 36.0884 47.1363 37.3726C46.411 38.6568 45.5836 39.6047 44.654 40.2111C43.7244 40.8175 42.8306 41.1233 41.9776 41.1233C41.1451 41.1233 40.4301 40.9246 39.8325 40.522C39.3983 40.2417 39.1838 39.8901 39.1838 39.4671C39.1838 39.2174 39.2706 39.0034 39.4392 38.825C39.6077 38.6517 39.8172 38.56 40.0572 38.56C40.4505 38.56 40.854 38.8352 41.2626 39.3856C41.5129 39.7168 41.7172 39.9308 41.8755 40.0277C42.0338 40.1245 42.2024 40.1703 42.3965 40.1703C43.183 40.1703 43.9185 39.5384 44.608 38.2746C45.2976 37.0108 46.3037 33.8819 47.6317 28.898L49.1078 23.3892C47.0954 23.3892 45.5836 23.7204 44.5723 24.3829C43.561 25.0454 43.0553 25.7945 43.0553 26.6252C43.0553 26.9054 43.1932 27.2622 43.4639 27.6953C43.704 28.0979 43.8266 28.424 43.8266 28.6737C43.8266 28.9642 43.7346 29.2037 43.5457 29.3872C43.3618 29.5706 43.1268 29.6675 42.8459 29.6675C42.4935 29.6675 42.1922 29.4993 41.9419 29.163C41.6916 28.8266 41.5639 28.3374 41.5639 27.6953C41.5639 26.5334 41.9879 25.504 42.8306 24.6071C43.6734 23.7153 44.9043 23.0834 46.5132 22.7114C47.4376 22.5025 49.2815 22.3955 52.0497 22.3955C51.304 23.8631 50.4715 26.4519 49.5522 30.1618C52.2132 30.1618 54.3124 30.065 55.8447 29.8764C56.7129 26.9666 57.4791 24.9384 58.1431 23.7867C58.807 22.6401 59.5527 21.8094 60.3853 21.2947C61.2127 20.7851 62.1423 20.5252 63.1689 20.5252C64.0525 20.5252 64.7369 20.6934 65.2119 21.0297C65.692 21.3661 65.927 21.7483 65.927 22.1814C65.927 22.4311 65.8401 22.6401 65.6716 22.7981C65.503 22.9611 65.2783 23.0376 65.0076 23.0376C64.6552 23.0376 64.2619 22.7879 63.8175 22.2834C63.3681 21.784 62.9646 21.5291 62.6122 21.5291C61.8614 21.5291 61.1157 22.2273 60.3853 23.6236C59.0777 26.1105 57.5659 31.3644 55.8498 39.3856C56.0183 39.4059 56.2584 39.4416 56.5699 39.4926C57.142 39.5945 57.6017 39.6455 57.9541 39.6455C58.3678 39.6556 58.8326 39.6047 59.3535 39.5028ZM69.7219 27.522C70.7077 27.522 71.5249 27.9144 72.1786 28.6941C72.8324 29.4789 73.1593 30.5643 73.1593 31.9606C73.1593 34.1876 72.3727 36.1903 70.8047 37.9587C69.2367 39.7321 67.5767 40.6137 65.8248 40.6137C64.7471 40.6137 63.8788 40.2621 63.22 39.5588C62.5611 38.8556 62.2342 37.8975 62.2342 36.6847C62.2342 34.5749 62.8369 32.6282 64.0423 30.8446C65.5694 28.633 67.4592 27.522 69.7219 27.522ZM68.4399 28.6533C67.5869 28.6533 66.7595 29.2649 65.9576 30.4828C65.1557 31.7008 64.7573 33.3875 64.7573 35.533C64.7573 36.8375 65.0025 37.8669 65.4979 38.6211C65.8606 39.1715 66.3407 39.4467 66.9485 39.4467C67.7912 39.4467 68.5625 38.9269 69.2571 37.8822C70.1407 36.5267 70.5851 34.845 70.5851 32.8372C70.5851 31.3338 70.3808 30.2586 69.9722 29.6165C69.5636 28.9744 69.0528 28.6533 68.4399 28.6533ZM89.6107 27.522C90.5964 27.522 91.4137 27.9144 92.0674 28.6941C92.7212 29.4789 93.0481 30.5643 93.0481 31.9606C93.0481 34.1876 92.2615 36.1903 90.6935 37.9587C89.1255 39.7321 87.4655 40.6137 85.7136 40.6137C84.6359 40.6137 83.7677 40.2621 83.1088 39.5588C82.4499 38.8556 82.123 37.8975 82.123 36.6847C82.123 34.5749 82.7257 32.6282 83.9311 30.8446C85.4531 28.633 87.348 27.522 89.6107 27.522ZM88.3287 28.6533C87.4757 28.6533 86.6483 29.2649 85.8464 30.4828C85.0445 31.7008 84.6461 33.3875 84.6461 35.533C84.6461 36.8375 84.8913 37.8669 85.3867 38.6211C85.7494 39.1715 86.2295 39.4467 86.8373 39.4467C87.68 39.4467 88.4513 38.9269 89.1459 37.8822C90.0295 36.5267 90.4739 34.845 90.4739 32.8372C90.4739 31.3338 90.2696 30.2586 89.8609 29.6165C89.4523 28.9744 88.9416 28.6533 88.3287 28.6533ZM106.583 37.6376L106.159 37.0669C105.173 37.8262 104.509 38.3052 104.167 38.4937C103.927 38.6211 103.713 38.6874 103.534 38.6874C103.243 38.6874 103.095 38.4988 103.095 38.1166C103.095 37.765 103.222 37.0516 103.473 35.9763L105.608 26.885C106.18 24.4542 106.547 23.0171 106.706 22.5636C106.951 21.8502 107.206 21.3864 107.472 21.1724C107.737 20.9584 108.049 20.8513 108.401 20.8513C108.652 20.8513 109.122 20.9023 109.806 21.0042C110.49 21.1061 110.96 21.1571 111.211 21.1571C111.594 21.1571 111.9 21.0552 112.12 20.8615C112.339 20.6679 112.452 20.4131 112.452 20.1022C112.452 19.7812 112.329 19.5111 112.089 19.3022C111.849 19.0932 111.527 18.9862 111.124 18.9862C110.358 18.9862 109.535 19.1646 108.657 19.5213C107.778 19.8729 106.997 20.3774 106.312 21.0297C105.628 21.682 105.071 22.4566 104.637 23.3535C104.203 24.2504 103.754 25.6773 103.278 27.629C102.834 27.5577 102.502 27.522 102.283 27.522C101.287 27.522 100.188 27.9705 98.9882 28.8572C97.7879 29.7439 96.6949 31.1147 95.7142 32.9697C94.7336 34.8246 94.2432 36.4655 94.2432 37.8924C94.2432 38.7995 94.422 39.4824 94.7846 39.9512C95.1473 40.4149 95.5967 40.6494 96.1279 40.6494C96.7715 40.6494 97.4916 40.42 98.2986 39.9563C99.1056 39.4977 100.112 38.616 101.317 37.3217L100.791 39.1613C100.684 39.5486 100.628 39.834 100.628 40.0022C100.628 40.1703 100.699 40.3232 100.852 40.4608C101.001 40.5984 101.2 40.6646 101.44 40.6646C101.961 40.6646 102.676 40.4047 103.58 39.8951C104.234 39.5231 105.235 38.774 106.583 37.6376ZM101.256 29.0152C101.588 29.0152 102.155 29.1069 102.962 29.2852L102.267 32.3174C101.802 34.2793 101.435 35.5075 101.164 36.012C100.715 36.8019 100.102 37.4796 99.3252 38.03C98.7787 38.402 98.2986 38.5855 97.8747 38.5855C97.5223 38.5855 97.2056 38.4224 96.9298 38.0962C96.654 37.7701 96.5161 37.3522 96.5161 36.8375C96.5161 35.7113 96.8174 34.3914 97.415 32.8728C98.0126 31.3542 98.6357 30.335 99.2793 29.805C99.9228 29.2801 100.582 29.0152 101.256 29.0152ZM115.685 27.522C116.67 27.522 117.488 27.9144 118.141 28.6941C118.795 29.4789 119.122 30.5643 119.122 31.9606C119.122 34.1876 118.335 36.1903 116.767 37.9587C115.199 39.7321 113.54 40.6137 111.788 40.6137C110.71 40.6137 109.842 40.2621 109.183 39.5588C108.524 38.8556 108.197 37.8975 108.197 36.6847C108.197 34.5749 108.8 32.6282 110.005 30.8446C111.527 28.633 113.417 27.522 115.685 27.522ZM114.398 28.6533C113.545 28.6533 112.717 29.2649 111.915 30.4828C111.113 31.7008 110.715 33.3875 110.715 35.533C110.715 36.8375 110.96 37.8669 111.456 38.6211C111.818 39.1715 112.298 39.4467 112.906 39.4467C113.749 39.4467 114.52 38.9269 115.215 37.8822C116.098 36.5267 116.543 34.845 116.543 32.8372C116.543 31.3338 116.338 30.2586 115.93 29.6165C115.526 28.9744 115.016 28.6533 114.398 28.6533ZM131.074 28.5005H134.68C135.272 25.9932 135.951 24.123 136.718 22.8999C137.484 21.6769 138.48 20.7087 139.706 20.0003C140.931 19.292 142.091 18.9403 143.174 18.9403C143.786 18.9403 144.251 19.0626 144.563 19.3022C144.874 19.5417 145.033 19.827 145.033 20.1583C145.033 20.4589 144.925 20.7087 144.716 20.9125C144.507 21.1112 144.226 21.2132 143.883 21.2132C143.531 21.2132 142.867 21.1061 141.886 20.8972C141.401 20.7953 141.023 20.7443 140.753 20.7443C140.089 20.7443 139.486 21.152 138.955 21.9725C138.418 22.7929 137.994 23.8988 137.673 25.29L136.917 28.4953H140.916L140.676 29.5655H136.626L134.266 39.1715C133.53 42.0915 132.356 44.3032 130.742 45.8116C129.128 47.3149 127.376 48.0691 125.486 48.0691C124.853 48.0691 124.373 47.9468 124.046 47.7022C123.719 47.4576 123.555 47.1518 123.555 46.79C123.555 46.4792 123.668 46.2295 123.893 46.046C124.117 45.8626 124.444 45.7657 124.868 45.7657C125.077 45.7657 125.389 45.7912 125.803 45.8422C126.508 45.9339 127.182 45.9798 127.825 45.9798C128.821 45.9798 129.547 45.7453 129.996 45.2816C130.451 44.8128 130.9 43.6713 131.355 41.8571L134.419 29.5757H130.813L131.074 28.5005ZM24.1471 44.9096C24.7141 45.4039 25.3423 45.8371 25.9859 46.2091L26.0625 46.097C25.5262 45.5975 25.041 45.0625 24.6119 44.4713C24.1676 43.8955 23.7488 43.3043 23.3606 42.6928C22.5791 41.4749 21.8845 40.1958 21.2512 38.9014C20.6178 37.6019 20.0202 36.2922 19.4942 34.9571C18.9783 33.6168 18.4931 32.2766 18.0794 30.9159C17.2877 28.1845 16.7054 25.4479 16.6493 22.7267C16.6288 21.3711 16.7106 20.036 16.9404 18.7773C17.1856 17.5287 17.5993 16.3567 18.202 15.4649C18.8149 14.5731 19.535 14.0023 20.4237 13.7118C20.863 13.5539 21.3584 13.457 21.9049 13.4417C22.334 13.4214 22.7885 13.4723 23.3095 13.6252C24.3617 13.931 25.5568 14.5782 26.7469 15.3324C27.4365 15.7646 28.1296 16.2359 28.8368 16.7168C29.3552 17.0694 29.8813 17.4271 30.4192 17.7784C31.6859 18.604 33.0343 19.4143 34.5257 20.0003C35.9967 20.6067 37.6975 20.8921 39.3166 20.673C40.9408 20.4233 42.3862 19.6742 43.5814 18.7314C44.7817 17.7784 45.747 16.6267 46.6357 15.4496L46.5387 15.3629C46.348 15.5118 46.1616 15.6634 45.9762 15.8142C45.5905 16.1279 45.2091 16.4381 44.8021 16.7134L44.3628 17.0293L43.9032 17.3096C43.8436 17.3452 43.7843 17.3813 43.725 17.4172C43.4791 17.5666 43.2339 17.7154 42.9787 17.8345C41.7427 18.4919 40.4198 18.8537 39.1736 18.8129C37.9273 18.762 36.7424 18.3696 35.6238 17.6867C34.5053 17.0242 33.448 16.1528 32.3958 15.205C31.9508 14.8038 31.5093 14.39 31.0601 13.9689C30.4421 13.3896 29.8094 12.7965 29.1321 12.2034C28.555 11.6887 27.9216 11.1791 27.2525 10.6848C26.5528 10.2058 25.7918 9.74714 24.9082 9.36494C24.0144 9.00822 22.9622 8.75342 21.8692 8.72794C20.909 8.72794 19.8977 8.86553 18.9068 9.18658C17.921 9.51782 16.9813 10.058 16.1896 10.7307C15.3928 11.4033 14.7697 12.2136 14.2845 13.0392C13.3242 14.7056 12.8901 16.4382 12.6654 18.1046C12.5632 18.9403 12.5224 19.7659 12.5173 20.5813C12.5224 21.4017 12.5888 22.2018 12.6705 22.9968C12.8543 24.5816 13.1659 26.1257 13.5949 27.629C13.6971 28.0061 13.8146 28.3781 13.932 28.7501L13.932 28.7501L14.3253 29.8407C14.499 30.3465 14.7047 30.8375 14.9099 31.3275C15.0004 31.5435 15.0908 31.7592 15.1783 31.9759C16.3939 34.7787 17.9108 37.4083 19.6576 39.8594C20.5565 41.0723 21.5014 42.2393 22.5281 43.34C23.0439 43.8853 23.5751 44.4204 24.1471 44.9096Z" fill="#2581C4"/>
</svg>
