<svg width="40" height="40" viewBox="0 0 40 40" fill="none" xmlns="http://www.w3.org/2000/svg">
<rect x="25" y="25" width="15" height="15" rx="4" fill="#1C9D5B" fill-opacity="0.4"/>
<path d="M12.5967 7.73584C13.842 8.56603 17.0797 10.2264 20.0684 10.2264C23.0571 10.2264 26.2948 8.56603 27.5401 7.73584" stroke="#2581C4" stroke-width="1.5"/>
<path d="M20.6909 27.0378C20.0682 26.8302 18.6984 26.9132 18.2003 28.9057C17.5777 31.3963 17.5777 37 13.8418 37C10.8531 37 10.1061 32.0189 9.48345 27.6604C8.8683 23.3544 7.61546 21.434 5.12495 18.3208C3.44929 16.2261 3.63658 11.3724 5.7475 8.35849C7.8071 5.41785 10.8532 4 13.8418 4C17.5777 4 17.5778 5.24528 20.691 5.24528" stroke="#2581C4" stroke-width="1.5"/>
<path d="M20.0683 27.0378C20.6689 26.8302 21.9902 26.9132 22.4707 28.9057C23.0713 31.3963 23.0713 37 26.675 37C29.558 37 30.2786 32.0189 30.8792 27.6604C31.4726 23.3544 33.1437 21.434 35.0836 18.3208C36.4773 16.084 36.5193 11.3724 34.483 8.35849C32.4963 5.41785 29.558 4 26.675 4C23.0713 4 23.0712 5.24528 20.0681 5.24528" stroke="#2581C4" stroke-width="1.5"/>
<path d="M32.2792 8.21195L24.1709 16.3203L24.878 17.0274L32.9863 8.91906L32.2792 8.21195ZM33.4374 11.6871L25.3291 19.7954L26.0362 20.5025L34.1445 12.3942L33.4374 11.6871ZM34.5955 15.1621L28.8038 20.9538L29.5109 21.6609L35.3026 15.8692L34.5955 15.1621ZM35.7542 16.3204L29.9625 8.21207L29.1488 8.7933L34.9404 16.9016L35.7542 16.3204ZM34.5955 20.9538L27.6455 10.5288L26.8134 11.0835L33.7634 21.5085L34.5955 20.9538ZM31.1211 22.112L25.3295 12.8454L24.4815 13.3754L30.2731 22.642L31.1211 22.112Z" fill="#2581C4"/>
</svg>
