<svg width="40" height="40" viewBox="0 0 40 40" fill="none" xmlns="http://www.w3.org/2000/svg">
<rect x="25" y="25" width="15" height="15" rx="4" fill="#1C9D5B" fill-opacity="0.4"/>
<path d="M20.5689 30.4314C20.0254 30.2502 18.8298 30.3227 18.395 32.0618C17.8515 34.2357 17.8515 39.1271 14.5906 39.1271C11.9819 39.1271 11.3298 34.7792 10.7863 30.9748C10.2494 27.2162 9.1558 25.54 6.98193 22.8226C5.51929 20.9942 5.68278 16.7576 7.52533 14.1268C9.32308 11.5601 10.1536 9.88457 11.871 11.8808C14.5906 15.0421 17.2826 15.9454 20 15.9454" stroke="#2581C4" stroke-width="1.5"/>
<path d="M20.0255 30.4316C20.5498 30.2504 21.7032 30.3229 22.1226 32.062C22.6468 34.236 22.6468 39.1273 25.7924 39.1273C28.3088 39.1273 28.9378 34.7794 29.4621 30.975C29.98 27.2165 31.4386 25.5402 33.1319 22.8228C34.3484 20.8704 34.3851 16.7578 32.6077 14.1271C30.8735 11.5603 30.1249 10.8001 28.129 12.3327C25.7924 14.127 22.6468 15.9456 20.0255 15.9456" stroke="#2581C4" stroke-width="1.5"/>
<path d="M20 6V11.5" stroke="#2581C4" stroke-width="1.5" stroke-linejoin="round"/>
<path d="M17.5 9.5L20 12L22.5 9.5" stroke="#2581C4" stroke-width="1.5" stroke-linejoin="round"/>
<path d="M27.4249 1.00058L28.1416 1.22161C28.233 0.925442 28.1327 0.603596 27.8894 0.411675C27.646 0.219754 27.3096 0.197295 27.0429 0.355157L27.4249 1.00058ZM13.0001 1.00017L13.3822 0.354774C13.1155 0.196891 12.7791 0.219327 12.5357 0.411233C12.2924 0.603139 12.1921 0.924982 12.2834 1.22116L13.0001 1.00017ZM27.0429 0.355157C25.2363 1.42446 22.8496 2.08737 20.2129 2.08737V3.58737C23.0909 3.58737 25.7463 2.86561 27.8069 1.64601L27.0429 0.355157ZM20.2129 2.08737C17.5758 2.08737 15.1889 1.4243 13.3822 0.354774L12.6181 1.64557C14.6788 2.86544 17.3345 3.58737 20.2129 3.58737V2.08737ZM20.2126 5.56999C17.1582 5.56999 14.5726 3.55452 13.7168 0.779181L12.2834 1.22116C13.3276 4.60765 16.4816 7.06999 20.2126 7.06999V5.56999ZM26.7082 0.779551C25.8524 3.5547 23.2668 5.56999 20.2126 5.56999V7.06999C23.9434 7.06999 27.0973 4.60787 28.1416 1.22161L26.7082 0.779551Z" fill="#2581C4"/>
</svg>
