<svg width="40" height="40" viewBox="0 0 40 40" fill="none" xmlns="http://www.w3.org/2000/svg">
<g clip-path="url(#clip0_461_11731)">
<rect y="20" width="15" height="15" rx="4" fill="#1C9D5B" fill-opacity="0.4"/>
<path d="M13.0088 11.5476C14.1914 12.336 17.2661 13.9128 20.1042 13.9128C22.9424 13.9128 26.0171 12.336 27.1997 11.5476" stroke="#2581C4" stroke-width="1.5"/>
<path d="M20.6951 29.8777C20.1038 29.6806 18.803 29.7594 18.33 31.6515C17.7387 34.0167 17.7387 39.3382 14.1909 39.3382C11.3528 39.3382 10.6433 34.6079 10.052 30.4689C9.46788 26.3798 8.27812 24.556 5.91303 21.5996C4.32174 19.6105 4.49961 15.0012 6.50423 12.139C8.46012 9.34646 11.3528 8 14.191 8C17.7387 8 17.7388 9.18257 20.6952 9.18257" stroke="#2581C4" stroke-width="1.5"/>
<path d="M20.104 29.8777C20.6743 29.6806 21.9291 29.7594 22.3854 31.6515C22.9558 34.0167 22.9558 39.3382 26.378 39.3382C29.1158 39.3382 29.8002 34.6079 30.3705 30.4689C30.934 26.3798 32.5209 24.556 34.3631 21.5996C35.6867 19.4755 35.7266 15.0012 33.7929 12.139C31.9062 9.34646 29.1158 8 26.378 8C22.9558 8 22.9557 9.18257 20.1038 9.18257" stroke="#2581C4" stroke-width="1.5"/>
<line x1="2.25" y1="13.75" x2="0.75" y2="13.75" stroke="#2581C4" stroke-width="1.5" stroke-linecap="round"/>
<line x1="39.25" y1="13.75" x2="37.75" y2="13.75" stroke="#2581C4" stroke-width="1.5" stroke-linecap="round"/>
<line x1="0.75" y1="-0.75" x2="4.02074" y2="-0.75" transform="matrix(-0.838444 -0.544988 0.654377 -0.756169 6 7.80005)" stroke="#2581C4" stroke-width="1.5" stroke-linecap="round"/>
<line x1="0.75" y1="-0.75" x2="4.02074" y2="-0.75" transform="matrix(-0.838443 0.54499 -0.654378 -0.756167 38 5.19995)" stroke="#2581C4" stroke-width="1.5" stroke-linecap="round"/>
<line x1="0.75" y1="-0.75" x2="4.02261" y2="-0.75" transform="matrix(-0.419058 -0.907959 0.944836 -0.327543 12 4.33325)" stroke="#2581C4" stroke-width="1.5" stroke-linecap="round"/>
<line x1="0.75" y1="-0.75" x2="4.02259" y2="-0.75" transform="matrix(-0.419034 0.907971 -0.944843 -0.327522 29 0)" stroke="#2581C4" stroke-width="1.5" stroke-linecap="round"/>
<line x1="19.25" y1="2.25" x2="19.25" y2="0.75" stroke="#2581C4" stroke-width="1.5" stroke-linecap="round"/>
<path d="M26 24C30.1997 24 33 27.5 33 31C33 27.5 35.8003 24 40 24C35.8003 24 33 20.5 33 17C33 20.5 30.1997 24 26 24Z" fill="white" stroke="#2581C4" stroke-width="1.5"/>
</g>
<defs>
<clipPath id="clip0_461_11731">
<rect width="40" height="40" fill="white"/>
</clipPath>
</defs>
</svg>
