<svg width="40" height="40" viewBox="0 0 40 40" fill="none" xmlns="http://www.w3.org/2000/svg">
<rect y="12" width="16" height="16" rx="4" fill="#1C9D5B" fill-opacity="0.4"/>
<path d="M12.8092 23.9207L12.6915 24.6614L12.75 24.6707H12.8092V23.9207ZM19.8985 23.9207V24.6707V23.9207ZM8.67383 19.4155L7.93211 19.5266L8.67383 19.4155ZM6.84053 15.9187L7.41522 15.4368H7.41522L6.84053 15.9187ZM5.12921 12.6575L4.38557 12.755L5.12921 12.6575ZM11.0369 1.39434L10.79 0.686132L11.0369 1.39434ZM15.1069 1.33717L15.2906 0.610018V0.610018L15.1069 1.33717ZM24.6901 1.33717L24.8738 2.06432V2.06432L24.6901 1.33717ZM28.76 1.39434L29.0069 0.686132V0.686132L28.76 1.39434ZM34.6678 12.6575L35.4114 12.755V12.755L34.6678 12.6575ZM32.9564 15.9187L32.3817 15.4368L32.9564 15.9187ZM31.1231 19.4155L31.8648 19.5266V19.5266L31.1231 19.4155ZM26.9877 23.9207V24.6707H27.0469L27.1054 24.6614L26.9877 23.9207ZM12.8092 24.6707L19.8985 24.6707V23.1707L12.8092 23.1707L12.8092 24.6707ZM7.93211 19.5266C8.46731 23.0979 11.292 24.4391 12.6915 24.6614L12.9269 23.18C11.9634 23.0269 9.82559 22.0404 9.41555 19.3043L7.93211 19.5266ZM6.26584 16.4006C7.05386 17.3404 7.72719 18.1592 7.93211 19.5266L9.41555 19.3043C9.14225 17.4806 8.20317 16.3765 7.41522 15.4368L6.26584 16.4006ZM4.38557 12.755C4.60676 14.4418 5.5019 15.4896 6.26584 16.4006L7.41522 15.4368C6.64015 14.5125 6.03103 13.7664 5.87284 12.56L4.38557 12.755ZM10.79 0.686132C5.48747 2.53455 3.71867 7.66915 4.38557 12.755L5.87284 12.56C5.26 7.88641 6.89625 3.63199 11.2838 2.10254L10.79 0.686132ZM15.2906 0.610018C14.6349 0.444352 13.9917 0.279011 13.2741 0.253565C12.5393 0.22751 11.7627 0.347087 10.79 0.686132L11.2838 2.10254C12.1165 1.81227 12.7064 1.73438 13.221 1.75262C13.7528 1.77148 14.242 1.89222 14.9232 2.06432L15.2906 0.610018ZM19.8985 1.20746C17.6519 1.20746 16.3568 0.879384 15.2906 0.610018L14.9232 2.06432C16.0395 2.34636 17.4722 2.70746 19.8985 2.70746V1.20746ZM19.8985 2.70746C22.3247 2.70746 23.7574 2.34636 24.8738 2.06432L24.5064 0.610018C23.4402 0.879384 22.145 1.20746 19.8985 1.20746V2.70746ZM24.8738 2.06432C25.555 1.89222 26.0442 1.77148 26.576 1.75262C27.0906 1.73438 27.6805 1.81227 28.5132 2.10254L29.0069 0.686132C28.0343 0.347087 27.2576 0.22751 26.5228 0.253565C25.8052 0.279011 25.1621 0.444352 24.5064 0.610018L24.8738 2.06432ZM28.5132 2.10254C32.9007 3.63199 34.537 7.88641 33.9241 12.56L35.4114 12.755C36.0783 7.66915 34.3095 2.53455 29.0069 0.686132L28.5132 2.10254ZM33.9241 12.56C33.7659 13.7664 33.1568 14.5125 32.3817 15.4368L33.5311 16.4006C34.2951 15.4896 35.1902 14.4418 35.4114 12.755L33.9241 12.56ZM32.3817 15.4368C31.5938 16.3765 30.6547 17.4806 30.3814 19.3043L31.8648 19.5266C32.0698 18.1592 32.7431 17.3404 33.5311 16.4006L32.3817 15.4368ZM30.3814 19.3043C29.9714 22.0404 27.8336 23.0269 26.87 23.18L27.1054 24.6614C28.505 24.4391 31.3296 23.0979 31.8648 19.5266L30.3814 19.3043ZM26.9877 23.1707L19.8985 23.1707V24.6707L26.9877 24.6707V23.1707Z" fill="#2581C4"/>
<path d="M13.0222 4.43799C14.1682 5.20201 17.1479 6.73005 19.8984 6.73005C22.6489 6.73005 25.6286 5.20201 26.7746 4.43799" stroke="#2581C4" stroke-width="1.5"/>
<path d="M12.5997 23.8001V23.0501H11.8497V23.8001H12.5997ZM12.5997 33.4728H11.8497V33.7546L12.0353 33.9667L12.5997 33.4728ZM17.4361 39.0001L16.8717 39.4939L17.0958 39.7501H17.4361V39.0001ZM22.5686 39.0001V39.7501H22.9436L23.1686 39.4501L22.5686 39.0001ZM26.714 33.4728L27.314 33.9228L27.464 33.7228V33.4728H26.714ZM26.714 23.8001H27.464V23.0501H26.714V23.8001ZM12.5997 24.5501H20.1997V23.0501H12.5997V24.5501ZM13.3497 33.4728V23.8001H11.8497V33.4728H13.3497ZM18.0005 38.5062L13.1642 32.9789L12.0353 33.9667L16.8717 39.4939L18.0005 38.5062ZM20.1997 38.2501H17.4361V39.7501H20.1997V38.2501ZM20.1997 39.7501H22.5686V38.2501H20.1997V39.7501ZM23.1686 39.4501L27.314 33.9228L26.114 33.0228L21.9686 38.5501L23.1686 39.4501ZM27.464 33.4728V23.8001H25.964V33.4728H27.464ZM26.714 23.0501H20.1997V24.5501H26.714V23.0501Z" fill="#2581C4"/>
<path d="M10.73 26.7856L29.0665 28.5047" stroke="#2581C4" stroke-width="1.5"/>
<path d="M10.73 30.2239L29.0665 31.9429" stroke="#2581C4" stroke-width="1.5"/>
<path d="M10.73 33.5474L29.0665 35.2664" stroke="#2581C4" stroke-width="1.5"/>
</svg>
