<svg width="41" height="40" viewBox="0 0 41 40" fill="none" xmlns="http://www.w3.org/2000/svg">
<rect width="15" height="15" rx="4" fill="#1C9D5B" fill-opacity="0.4"/>
<path d="M12.5967 6.73584C13.842 7.56603 17.0797 9.2264 20.0684 9.2264C23.0571 9.2264 26.2948 7.56603 27.5401 6.73584" stroke="#2581C4" stroke-width="1.5"/>
<path d="M20.6909 26.0378C20.0682 25.8302 18.6984 25.9132 18.2003 27.9057C17.5777 30.3962 17.5777 36 13.8418 36C10.8531 36 10.1061 31.0189 9.48344 26.6604C8.8683 22.3544 7.61545 20.434 5.12495 17.3207C3.44929 15.2261 3.63658 10.3724 5.7475 7.35849C7.8071 4.41785 10.8532 3 13.8418 3C17.5777 3 17.5778 4.24528 20.691 4.24528" stroke="#2581C4" stroke-width="1.5"/>
<path d="M20.068 26.0378C20.6686 25.8302 21.99 25.9132 22.4705 27.9057C23.0711 30.3962 23.0711 36 26.6748 36C29.5578 36 30.2784 31.0189 30.879 26.6604C31.4724 22.3544 33.1434 20.434 35.0833 17.3207C36.477 15.084 36.519 10.3724 34.4828 7.35849C32.4961 4.41785 29.5577 3 26.6748 3C23.0711 3 23.071 4.24528 20.0679 4.24528" stroke="#2581C4" stroke-width="1.5"/>
<path d="M32.0631 14.3116L31.7572 14.1793L31.454 14.3177L24.93 17.2958L24.5686 17.4608L24.5021 17.8525C22.9777 26.8288 28.7155 31.4854 31.7274 32.6959L32.0203 32.8136L32.3092 32.6864C36.2495 30.952 38.2496 28.0911 39.1386 25.2236C40.0185 22.3854 39.8082 19.5576 39.3806 17.8007L39.2923 17.4379L38.9495 17.2897L32.0631 14.3116Z" fill="white" stroke="#2581C4" stroke-width="1.5"/>
<path d="M29 22.6L31.4 25L35 21" stroke="#2581C4" stroke-width="1.5"/>
</svg>
