<svg width="40" height="40" viewBox="0 0 40 40" fill="none" xmlns="http://www.w3.org/2000/svg">
<rect y="12" width="15" height="15" rx="4" fill="#1C9D5B" fill-opacity="0.4"/>
<path d="M12.6172 6.74463C13.8655 7.57681 17.111 9.24118 20.1068 9.24118C23.1027 9.24118 26.3482 7.57681 27.5965 6.74463" stroke="#2581C4" stroke-width="1.5"/>
<path d="M20.731 26.0931C20.1068 25.885 18.7337 25.9683 18.2344 27.9655C17.6103 30.462 17.6103 36.0793 13.8655 36.0793C10.8696 36.0793 10.1208 31.0862 9.49661 26.7172C8.87999 22.4009 7.62414 20.4758 5.12766 17.3551C3.44796 15.2555 3.63571 10.3901 5.7517 7.36896C7.81624 4.42126 10.8696 3 13.8655 3C17.6103 3 17.6104 4.24827 20.7311 4.24827" stroke="#2581C4" stroke-width="1.5"/>
<path d="M20.107 26.0931C20.709 25.885 22.0335 25.9683 22.5152 27.9655C23.1173 30.462 23.1173 36.0793 26.7296 36.0793C29.6195 36.0793 30.3419 31.0862 30.9439 26.7172C31.5387 22.4009 33.2138 20.4758 35.1583 17.3551C36.5554 15.1131 36.5975 10.3901 34.5564 7.36896C32.5648 4.42126 29.6195 3 26.7296 3C23.1172 3 23.1171 4.24827 20.1068 4.24827" stroke="#2581C4" stroke-width="1.5"/>
<path d="M30.237 9.63216C32.2581 9.11563 35.5856 9.63216 35.5856 9.63216C35.5856 9.63216 36.0699 11.8112 36.1206 13.3001C36.1779 14.9866 36.2455 15.9334 35.5856 17.492C34.72 19.5366 32.3764 22.2079 32.3764 22.2079C32.3764 22.2079 28.3394 20.5012 26.493 18.54C25.157 17.1209 27.606 16.2781 27.5628 14.3481C27.4941 11.2794 27.2053 10.407 30.237 9.63216Z" fill="#2581C4" stroke="#2581C4" stroke-width="1.5"/>
</svg>
