<svg width="40" height="40" viewBox="0 0 40 40" fill="none" xmlns="http://www.w3.org/2000/svg">
<rect width="15" height="15" rx="4" fill="#1C9D5B" fill-opacity="0.4"/>
<path d="M13.0088 7.54761C14.1914 8.33599 17.2661 9.91276 20.1042 9.91276C22.9424 9.91276 26.0171 8.33599 27.1997 7.54761" stroke="#2581C4" stroke-width="1.5"/>
<path d="M20.6951 25.8777C20.1038 25.6806 18.803 25.7594 18.33 27.6515C17.7387 30.0167 17.7387 35.3382 14.1909 35.3382C11.3528 35.3382 10.6433 30.6079 10.052 26.4689C9.46788 22.3798 8.27812 20.556 5.91303 17.5996C4.32174 15.6105 4.49961 11.0012 6.50423 8.13901C8.46012 5.34646 11.3528 4 14.191 4C17.7387 4 17.7388 5.18257 20.6952 5.18257" stroke="#2581C4" stroke-width="1.5"/>
<path d="M20.104 25.8777C20.6743 25.6806 21.9291 25.7594 22.3854 27.6515C22.9558 30.0167 22.9558 35.3382 26.378 35.3382C29.1158 35.3382 29.8002 30.6079 30.3705 26.4689C30.934 22.3798 32.5209 20.556 34.3631 17.5996C35.6867 15.4755 35.7266 11.0012 33.7929 8.13901C31.9062 5.34646 29.1158 4 26.378 4C22.9558 4 22.9557 5.18257 20.1038 5.18257" stroke="#2581C4" stroke-width="1.5"/>
<path d="M14.5 17C12.1 20.6 13.5 28.8333 14.5 32.5C14 30 13.7 24.4 16.5 22" stroke="#2581C4" stroke-width="1.5"/>
<path d="M26.4059 17C29.293 20.7161 27.6088 29.2151 26.4059 33C27.0074 30.4194 27.3682 24.6387 24 22.1613" stroke="#2581C4" stroke-width="1.5"/>
</svg>
