<svg width="40" height="40" viewBox="0 0 40 40" fill="none" xmlns="http://www.w3.org/2000/svg">
<g clip-path="url(#clip0_461_11795)">
<mask id="path-1-inside-1_461_11795" fill="white">
<path fill-rule="evenodd" clip-rule="evenodd" d="M1.82432 14.6667C1.72053 15.6234 1.66699 16.599 1.66699 17.5896C1.66699 29.9665 10.0243 39.9999 20.3336 39.9999C30.6429 39.9999 39.0003 29.9665 39.0003 17.5896C39.0003 16.599 38.9467 15.6234 38.8429 14.6667H1.82432Z"/>
</mask>
<path d="M1.82432 14.6667V13.1667H0.478266L0.333076 14.505L1.82432 14.6667ZM38.8429 14.6667L40.3342 14.505L40.189 13.1667H38.8429V14.6667ZM3.16699 17.5896C3.16699 16.6531 3.21761 15.7315 3.31557 14.8285L0.333076 14.505C0.223453 15.5153 0.166992 16.545 0.166992 17.5896H3.16699ZM20.3336 38.4999C11.0978 38.4999 3.16699 29.4064 3.16699 17.5896H0.166992C0.166992 30.5265 8.95087 41.4999 20.3336 41.4999V38.4999ZM37.5003 17.5896C37.5003 29.4064 29.5695 38.4999 20.3336 38.4999V41.4999C31.7164 41.4999 40.5003 30.5265 40.5003 17.5896H37.5003ZM37.3517 14.8285C37.4497 15.7315 37.5003 16.6531 37.5003 17.5896H40.5003C40.5003 16.545 40.4438 15.5153 40.3342 14.505L37.3517 14.8285ZM38.8429 13.1667H1.82432V16.1667H38.8429V13.1667Z" fill="#2581C4" mask="url(#path-1-inside-1_461_11795)"/>
<mask id="mask0_461_11795" style="mask-type:alpha" maskUnits="userSpaceOnUse" x="1" y="14" width="39" height="27">
<path fill-rule="evenodd" clip-rule="evenodd" d="M1.82432 14.667C1.72053 15.6237 1.66699 16.5993 1.66699 17.5899C1.66699 29.9667 10.0243 40.0001 20.3336 40.0001C30.6429 40.0001 39.0003 29.9667 39.0003 17.5899C39.0003 16.5993 38.9467 15.6237 38.8429 14.667H1.82432Z" fill="white"/>
</mask>
<g mask="url(#mask0_461_11795)">
<path d="M10 15.0001L-13 39.0001L-11.917 40.038L11.083 16.038L10 15.0001ZM16 15.0001L-6.99999 39.0001L-5.91701 40.038L17.083 16.038L16 15.0001ZM22 15.0001L-0.999988 39.0001L0.0829954 40.038L23.083 16.038L22 15.0001ZM28 15.0001L5.00001 39.0001L6.08299 40.038L29.083 16.038L28 15.0001ZM34 15.0001L11 39.0001L12.083 40.038L35.083 16.038L34 15.0001ZM40 15.0001L17 39.0001L18.083 40.038L41.083 16.038L40 15.0001ZM46 15.0001L23 39.0001L24.083 40.038L47.083 16.038L46 15.0001Z" fill="#2581C4"/>
</g>
<path d="M15.3838 6.41504C16.212 6.95173 18.3652 8.0251 20.3528 8.0251C22.3404 8.0251 24.4936 6.95173 25.3217 6.41504" stroke="#2581C4" stroke-width="1.5"/>
<path d="M19.1098 20.1006C19.3925 19.0014 20.0974 18.8012 20.5554 18.8495C20.9971 18.8012 21.6771 19.0014 21.9499 20.1006C22.3493 21.7107 22.3493 25.3333 24.7459 25.3333C26.6632 25.3333 27.1424 22.1132 27.5419 19.2956C27.9365 16.5119 29.0478 15.2704 30.3379 13.2579C31.2648 11.8119 31.2927 8.76599 29.9385 6.81761C28.6173 4.91659 26.6632 4 24.7459 4C22.4335 4 22.3522 4.74944 20.5554 4.80212C18.6927 4.74944 18.6084 4 16.2112 4C14.2236 4 12.1979 4.91659 10.8282 6.81761C9.42432 8.76599 9.29976 11.9037 10.4141 13.2579C12.0704 15.2704 12.9036 16.5119 13.3127 19.2956C13.7268 22.1132 14.2236 25.3333 16.2112 25.3333C18.6957 25.3333 18.6957 21.7107 19.1098 20.1006Z" fill="white"/>
<path d="M19.1098 20.1006L18.3834 19.9138L19.1098 20.1006ZM13.3127 19.2956L12.5707 19.4046L13.3127 19.2956ZM10.4141 13.2579L9.83504 13.7344H9.83504L10.4141 13.2579ZM10.8282 6.81761L10.2197 6.37917L10.8282 6.81761ZM21.9499 20.1006L21.2219 20.2812L21.9499 20.1006ZM27.5419 19.2956L28.2844 19.4009L27.5419 19.2956ZM30.3379 13.2579L30.9693 13.6626H30.9693L30.3379 13.2579ZM29.9385 6.81761L29.3227 7.24565V7.24565L29.9385 6.81761ZM20.9973 18.1796C20.8849 18.1432 20.7622 18.1171 20.6341 18.1036L20.4767 19.5953C20.5058 19.5984 20.526 19.6037 20.5349 19.6066L20.9973 18.1796ZM20.6341 18.1036C20.2643 18.0646 19.789 18.125 19.3473 18.423C18.8971 18.7269 18.5608 19.2243 18.3834 19.9138L19.8361 20.2874C19.9415 19.8778 20.099 19.7254 20.1864 19.6664C20.2824 19.6016 20.3885 19.586 20.4767 19.5953L20.6341 18.1036ZM18.3834 19.9138C18.2697 20.3558 18.1838 20.9372 18.0924 21.4707C17.9961 22.032 17.887 22.5897 17.7241 23.0874C17.5595 23.5904 17.3589 23.9706 17.1172 24.2184C16.898 24.443 16.6239 24.5833 16.2112 24.5833V26.0833C17.0407 26.0833 17.6983 25.7707 18.1909 25.2658C18.6609 24.7841 18.952 24.158 19.1497 23.5541C19.3491 22.9449 19.4729 22.295 19.5708 21.7242C19.6734 21.1257 19.7428 20.6505 19.8361 20.2874L18.3834 19.9138ZM16.2112 24.5833C15.7357 24.5833 15.2851 24.2283 14.876 23.1128C14.4835 22.0426 14.2648 20.616 14.0547 19.1865L12.5707 19.4046C12.7747 20.7928 13.0114 22.3851 13.4678 23.6293C13.9075 24.8283 14.6992 26.0833 16.2112 26.0833V24.5833ZM14.0547 19.1865C13.8412 17.7334 13.5107 16.6444 12.9985 15.6454C12.4924 14.6581 11.8247 13.7915 10.9933 12.7813L9.83504 13.7344C10.6599 14.7367 11.2369 15.4972 11.6637 16.3297C12.0845 17.1505 12.3752 18.0741 12.5707 19.4046L14.0547 19.1865ZM10.9933 12.7813C10.6056 12.3102 10.3635 11.4084 10.4256 10.3027C10.4865 9.22021 10.8334 8.09337 11.4367 7.25604L10.2197 6.37917C9.41913 7.49023 9.00178 8.90646 8.928 10.2185C8.85553 11.5073 9.10835 12.8514 9.83504 13.7344L10.9933 12.7813ZM11.4367 7.25604C12.6613 5.55642 14.4576 4.75 16.2112 4.75V3.25C13.9897 3.25 11.7345 4.27676 10.2197 6.37917L11.4367 7.25604ZM16.2112 4.75C17.3069 4.75 17.8424 4.91627 18.3358 5.08912C18.8874 5.2824 19.4736 5.52183 20.5342 5.55182L20.5766 4.05242C19.7745 4.02974 19.3872 3.86811 18.8317 3.67349C18.218 3.45845 17.5127 3.25 16.2112 3.25V4.75ZM20.5342 5.55182C20.6093 5.55394 20.6866 5.55503 20.7662 5.55503V4.05503C20.7003 4.05503 20.6371 4.05413 20.5766 4.05242L20.5342 5.55182ZM20.5909 19.604C20.5964 19.6022 20.6124 19.5977 20.6369 19.595L20.4738 18.1039C20.3467 18.1178 20.2249 18.1446 20.1133 18.1821L20.5909 19.604ZM20.6369 19.595C20.7107 19.587 20.8013 19.5999 20.8861 19.6592C20.965 19.7144 21.1188 19.8656 21.2219 20.2812L22.6778 19.92C22.5082 19.2364 22.1857 18.7378 21.746 18.4302C21.3121 18.1267 20.8419 18.0637 20.4738 18.1039L20.6369 19.595ZM21.2219 20.2812C21.3123 20.6454 21.3795 21.1224 21.4783 21.7199C21.5726 22.2904 21.6919 22.9389 21.8837 23.5466C22.0737 24.1481 22.3537 24.7734 22.8079 25.2561C23.2853 25.7634 23.9291 26.0833 24.7459 26.0833V24.5833C24.3644 24.5833 24.1094 24.4503 23.9003 24.2281C23.668 23.9812 23.4737 23.6003 23.3141 23.0949C23.1565 22.5957 23.051 22.0366 22.9582 21.4751C22.8698 20.9405 22.7871 20.3608 22.6778 19.92L21.2219 20.2812ZM24.7459 26.0833C26.2376 26.0833 27.0014 24.8049 27.4201 23.6212C27.8595 22.3793 28.0876 20.7895 28.2844 19.4009L26.7993 19.1903C26.5967 20.6193 26.3855 22.0484 26.006 23.1209C25.606 24.2517 25.1715 24.5833 24.7459 24.5833V26.0833ZM28.2844 19.4009C28.6505 16.8187 29.638 15.7395 30.9693 13.6626L29.7065 12.8531C28.4576 14.8014 27.2225 16.2051 26.7993 19.1903L28.2844 19.4009ZM30.9693 13.6626C31.5432 12.7673 31.7931 11.4753 31.743 10.1968C31.6925 8.90541 31.3321 7.50849 30.5544 6.38957L29.3227 7.24565C29.8992 8.07511 30.2019 9.17534 30.2442 10.2555C30.287 11.3486 30.0595 12.3024 29.7065 12.8531L30.9693 13.6626ZM30.5544 6.38957C29.0928 4.28666 26.9085 3.25 24.7459 3.25V4.75C26.4178 4.75 28.1417 5.54652 29.3227 7.24565L30.5544 6.38957ZM24.7459 3.25C23.483 3.25 22.7968 3.46005 22.2012 3.67637C21.6649 3.87119 21.298 4.03003 20.5334 4.05244L20.5774 5.5518C21.6096 5.52154 22.1818 5.27932 22.7133 5.08625C23.1857 4.91468 23.6964 4.75 24.7459 4.75V3.25ZM20.5334 4.05244C20.4755 4.05414 20.4151 4.05503 20.352 4.05503V5.55503C20.4293 5.55503 20.5044 5.55394 20.5774 5.5518L20.5334 4.05244Z" fill="#2581C4"/>
<rect y="25" width="15" height="15" rx="4" fill="#1C9D5B" fill-opacity="0.4"/>
</g>
<defs>
<clipPath id="clip0_461_11795">
<rect width="40" height="40" fill="white"/>
</clipPath>
</defs>
</svg>
