<svg width="40" height="40" viewBox="0 0 40 40" fill="none" xmlns="http://www.w3.org/2000/svg">
<g clip-path="url(#clip0_461_11816)">
<rect x="25" width="15" height="15" rx="4" fill="#1C9D5B" fill-opacity="0.4"/>
<mask id="path-2-inside-1_461_11816" fill="white">
<path fill-rule="evenodd" clip-rule="evenodd" d="M9.09274 29.7856C9.03156 30.1714 9 30.5648 9 30.9643C9 35.9546 13.9249 40 20 40C26.0751 40 31 35.9546 31 30.9643C31 30.5648 30.9684 30.1714 30.9073 29.7856H9.09274Z"/>
</mask>
<path d="M9.09274 29.7856V28.2856H7.81187L7.61125 29.5507L9.09274 29.7856ZM30.9073 29.7856L32.3888 29.5507L32.1881 28.2856H30.9073V29.7856ZM10.5 30.9643C10.5 30.644 10.5253 30.3292 10.5742 30.0206L7.61125 29.5507C7.53783 30.0137 7.5 30.4856 7.5 30.9643H10.5ZM20 38.5C14.4638 38.5 10.5 34.8637 10.5 30.9643H7.5C7.5 37.0455 13.3859 41.5 20 41.5V38.5ZM29.5 30.9643C29.5 34.8637 25.5362 38.5 20 38.5V41.5C26.6141 41.5 32.5 37.0455 32.5 30.9643H29.5ZM29.4258 30.0206C29.4747 30.3292 29.5 30.644 29.5 30.9643H32.5C32.5 30.4856 32.4622 30.0137 32.3888 29.5507L29.4258 30.0206ZM30.9073 28.2856H9.09274V31.2856H30.9073V28.2856Z" fill="#2581C4" mask="url(#path-2-inside-1_461_11816)"/>
<path d="M17.0835 24.9231C17.5715 25.2394 18.8404 25.8719 20.0116 25.8719C21.1829 25.8719 22.4518 25.2394 22.9398 24.9231" stroke="#2581C4" stroke-width="1.5"/>
<path d="M19.2794 32.9879C19.446 32.3401 19.8614 32.2221 20.1313 32.2506C20.3916 32.2221 20.7923 32.3401 20.9531 32.9879C21.1884 33.9367 21.1884 36.0714 22.6007 36.0714C23.7305 36.0714 24.013 34.1739 24.2483 32.5135C24.4809 30.8731 25.1358 30.1415 25.896 28.9555C26.4422 28.1034 26.4587 26.3085 25.6607 25.1604C24.8821 24.0401 23.7305 23.5 22.6007 23.5C21.2381 23.5 21.1901 23.9416 20.1313 23.9727C19.0337 23.9416 18.984 23.5 17.5714 23.5C16.4001 23.5 15.2064 24.0401 14.3992 25.1604C13.5719 26.3085 13.4985 28.1576 14.1552 28.9555C15.1312 30.1415 15.6222 30.8731 15.8633 32.5135C16.1073 34.1739 16.4001 36.0714 17.5714 36.0714C19.0354 36.0714 19.0354 33.9367 19.2794 32.9879Z" fill="white"/>
<path d="M20.2555 32.2763C20.0115 32.1972 19.4746 32.2289 19.2794 32.9879C19.0354 33.9367 19.0354 36.0714 17.5714 36.0714C16.4001 36.0714 16.1073 34.1739 15.8633 32.5135C15.6222 30.8731 15.1312 30.1415 14.1552 28.9555C13.4985 28.1576 13.5719 26.3085 14.3992 25.1604C15.2064 24.0401 16.4001 23.5 17.5714 23.5C19.0354 23.5 19.0355 23.9744 20.2555 23.9744M20.0115 32.2763C20.2469 32.1972 20.7647 32.2289 20.9531 32.9879C21.1884 33.9367 21.1884 36.0714 22.6007 36.0714C23.7305 36.0714 24.013 34.1739 24.2483 32.5135C24.4809 30.8731 25.1358 30.1415 25.896 28.9555C26.4422 28.1034 26.4587 26.3085 25.6607 25.1604C24.8821 24.0401 23.7305 23.5 22.6007 23.5C21.1884 23.5 21.1884 23.9744 20.0115 23.9744" stroke="#2581C4" stroke-width="1.5"/>
<path d="M17.0794 18.8234C12.7191 19.8769 11.1854 22.6866 10.8329 24.9395C10.7036 25.766 9.74797 26.3691 9.17539 25.759C5.41542 21.7533 11.4203 15.2202 16.7116 15.2202L17.0794 14.5092C18.5508 12.5183 21.4935 12.7316 22.597 14.2018C27.0111 12.7798 29.0955 5.55124 29.5859 2.11471C32.5286 -0.444921 33.7548 1.99621 34 3.53673C33.7057 12.3532 26.6432 17.1162 22.9648 18.4197C22.9648 18.7752 22.082 20.1972 20.0221 20.1972C18.1829 20.1972 17.202 19.0604 17.0794 18.8234Z" stroke="#2581C4" stroke-width="1.5"/>
<path d="M22.9206 18.8234C27.2809 19.8769 28.8146 22.6866 29.1671 24.9395C29.2964 25.766 30.252 26.3691 30.8246 25.759C34.5846 21.7533 28.5797 15.2202 23.2884 15.2202L22.9206 14.5092C21.4492 12.5183 18.5065 12.7316 17.403 14.2018C12.9889 12.7798 10.9045 5.55124 10.4141 2.11471C7.47136 -0.444921 6.24523 1.99621 6 3.53673C6 14.5092 16.5 18 16.5 18C16.5 18 17.7355 20.1972 19.9779 20.1972C21.8171 20.1972 22.798 19.0604 22.9206 18.8234Z" fill="white" stroke="#2581C4" stroke-width="1.5"/>
<circle cx="20" cy="16.5" r="1" fill="#2581C4"/>
</g>
<defs>
<clipPath id="clip0_461_11816">
<rect width="40" height="40" fill="white"/>
</clipPath>
</defs>
</svg>
