<svg width="40" height="40" viewBox="0 0 40 40" fill="none" xmlns="http://www.w3.org/2000/svg">
<g clip-path="url(#clip0_461_4429)">
<rect y="25" width="15" height="15" rx="4" fill="#1C9D5B" fill-opacity="0.4"/>
<path d="M20.6951 29.8777C20.1038 29.6806 18.803 29.7594 18.33 31.6515C17.7387 34.0167 17.7387 39.3382 14.1909 39.3382C11.3528 39.3382 10.6433 34.6079 10.052 30.4689C9.46788 26.3798 8.27812 24.556 5.91303 21.5996C4.32174 19.6105 4.49961 15.0012 6.50423 12.139C8.46012 9.34646 11.3528 8 14.191 8C17.7387 8 17.7388 9.18257 20.6952 9.18257" stroke="#2581C4" stroke-width="1.5"/>
<path d="M20.104 29.8777C20.6743 29.6806 21.9291 29.7594 22.3854 31.6515C22.9558 34.0167 22.9558 39.3382 26.378 39.3382C29.1158 39.3382 29.8002 34.6079 30.3705 30.4689C30.934 26.3798 32.5209 24.556 34.3631 21.5996C35.6867 19.4755 35.7266 15.0012 33.7929 12.139C31.9062 9.34646 29.1158 8 26.378 8C22.9558 8 22.9557 9.18257 20.1038 9.18257" stroke="#2581C4" stroke-width="1.5"/>
<path d="M18 18C22.1997 18 25 21.5 25 25C25 21.5 27.8003 18 32 18C27.8003 18 25 14.5 25 11C25 14.5 22.1997 18 18 18Z" fill="white"/>
<path d="M25.75 25C25.75 21.1353 22.6618 17.25 18 17.25L18 18.75C21.7377 18.75 24.25 21.8647 24.25 25H25.75ZM24.25 11C24.25 14.8647 27.3382 18.75 32 18.75V17.25C28.2623 17.25 25.75 14.1353 25.75 11L24.25 11ZM25.75 25C25.75 21.8646 28.2624 18.75 32 18.75V17.25C27.3382 17.25 24.25 21.1354 24.25 25H25.75ZM24.25 11C24.25 14.1354 21.7376 17.25 18 17.25L18 18.75C22.6618 18.75 25.75 14.8646 25.75 11L24.25 11Z" fill="#2581C4"/>
<line x1="17.9697" y1="24.9697" x2="20.9697" y2="21.9697" stroke="#2581C4" stroke-width="1.5"/>
<path d="M21 14L18 11" stroke="#2581C4" stroke-width="1.5"/>
<path d="M32 25L29 22" stroke="#2581C4" stroke-width="1.5"/>
<circle cx="25" cy="18" r="1" fill="#2581C4"/>
<path d="M37 2L29.5 13.5L42 6.5" stroke="#2581C4" stroke-width="1.5"/>
</g>
<defs>
<clipPath id="clip0_461_4429">
<rect width="40" height="40" fill="white"/>
</clipPath>
</defs>
</svg>
