<svg width="40" height="40" viewBox="0 0 40 40" fill="none" xmlns="http://www.w3.org/2000/svg">
<rect width="15" height="15" rx="4" fill="#1C9D5B" fill-opacity="0.4"/>
<path d="M13.0088 7.54761C14.1914 8.33599 17.2661 9.91276 20.1042 9.91276C22.9424 9.91276 26.0171 8.33599 27.1997 7.54761" stroke="#2581C4" stroke-width="1.5"/>
<path d="M20.6951 25.8777C20.1038 25.6806 18.803 25.7594 18.33 27.6515C17.7387 30.0167 17.7387 35.3382 14.1909 35.3382C11.3528 35.3382 10.6433 30.6079 10.052 26.4689C9.46788 22.3798 8.27812 20.556 5.91303 17.5996C4.32174 15.6105 4.49961 11.0012 6.50423 8.13901C8.46012 5.34646 11.3528 4 14.191 4C17.7387 4 17.7388 5.18257 20.6952 5.18257" stroke="#2581C4" stroke-width="1.5"/>
<path d="M20.104 25.8777C20.6743 25.6806 21.9291 25.7594 22.3854 27.6515C22.9558 30.0167 22.9558 32 26.378 32C29.1158 32 29.8002 30.6079 30.3705 26.4689C30.934 22.3798 32.521 20.556 34.3631 17.5996C35.6867 15.4755 35.7266 11.0012 33.7929 8.13901C31.9062 5.34646 29.1158 4 26.378 4C22.9558 4 22.9557 5.18257 20.1039 5.18257" stroke="#2581C4" stroke-width="1.5"/>
<path d="M23.0134 28.4954C21.5 30 21.5611 30.032 21.2284 31.2802C20.6151 33.581 21.2283 36.0709 23.2372 37.037C29.766 40.177 32.277 34.9436 34.2858 31.2802C36.2947 27.6167 33.7836 26.0467 30.2681 25" stroke="#2581C4" stroke-width="1.5"/>
</svg>
