<svg width="41" height="40" viewBox="0 0 41 40" fill="none" xmlns="http://www.w3.org/2000/svg">
<rect x="25" y="25" width="15" height="15" rx="4" fill="#1C9D5B" fill-opacity="0.4"/>
<path d="M12.5186 7.7356C13.7638 8.56578 17.0016 10.2262 19.9903 10.2262C22.9789 10.2262 26.2167 8.56578 27.462 7.7356" stroke="#2581C4" stroke-width="1.5"/>
<path d="M20.6128 27.0378C19.9901 26.8302 18.6203 26.9132 18.1222 28.9057C17.4995 31.3963 17.4995 37 13.7637 37C10.775 37 10.028 32.0189 9.40532 27.6604C8.79018 23.3544 7.53733 21.434 5.04683 18.3208C3.37116 16.2261 3.55846 11.3724 5.66938 8.35849C7.72898 5.41785 10.775 4 13.7637 4C17.4996 4 17.4997 5.24528 20.6129 5.24528" stroke="#2581C4" stroke-width="1.5"/>
<path d="M19.9901 27.0378C20.5907 26.8302 21.9121 26.9132 22.3926 28.9057C22.9932 31.3963 22.9932 37 26.5969 37C29.4799 37 30.2005 32.0189 30.8011 27.6604C31.3945 23.3544 33.0656 21.434 35.0054 18.3208C36.3992 16.084 36.4412 11.3724 34.4049 8.35849C32.4182 5.41785 29.4799 4 26.5969 4C22.9932 4 22.9931 5.24528 19.99 5.24528" stroke="#2581C4" stroke-width="1.5"/>
<line y1="19.6235" x2="13.0083" y2="19.6235" stroke="#2581C4" stroke-width="1.5"/>
<line x1="15.373" y1="19.6235" x2="24.8336" y2="19.6235" stroke="#2581C4" stroke-width="1.5"/>
<line x1="27.1992" y1="19.6235" x2="40.2075" y2="19.6235" stroke="#2581C4" stroke-width="1.5"/>
<rect x="12.5757" y="14.0281" width="15.056" height="10.3257" rx="1.25" stroke="#2581C4" stroke-width="1.5"/>
<line x1="18.4883" y1="16.8257" x2="18.4883" y2="21.556" stroke="#2581C4" stroke-width="1.5"/>
<line x1="22.0361" y1="16.8257" x2="22.0361" y2="21.556" stroke="#2581C4" stroke-width="1.5"/>
</svg>
